<svg width="100" height="100" viewBox="0 0 100 100" fill="none" xmlns="http://www.w3.org/2000/svg">
<rect width="100" height="100" rx="16" fill="#B0FF12"/>
<rect x="11" y="40" width="25" height="15" fill="white"/>
<rect x="13" y="59" width="21" height="2" fill="white"/>
<rect x="13" y="63" width="21" height="2" fill="white"/>
<rect x="13" y="67" width="21" height="2" fill="white"/>
<rect x="7.5" y="36.5" width="32" height="42" rx="3.5" stroke="white" stroke-width="3"/>
<rect x="47.2727" y="29.904" width="20.0364" height="1.51515" transform="rotate(-82.6929 47.2727 29.904)" fill="white"/>
<rect x="47.2727" y="54.1464" width="20.0364" height="1.51515" transform="rotate(-82.6929 47.2727 54.1464)" fill="white"/>
<rect x="49.5454" y="30.2099" width="20.0364" height="1.51515" transform="rotate(-82.6929 49.5454 30.2099)" fill="white"/>
<rect x="49.5454" y="54.4523" width="20.0364" height="1.51515" transform="rotate(-82.6929 49.5454 54.4523)" fill="white"/>
<rect x="51.8181" y="30.2099" width="20.0364" height="1.51515" transform="rotate(-82.6929 51.8181 30.2099)" fill="white"/>
<rect x="51.8181" y="54.4523" width="20.0364" height="1.51515" transform="rotate(-82.6929 51.8181 54.4523)" fill="white"/>
<rect x="56.3635" y="30.2099" width="20.0364" height="1.51515" transform="rotate(-82.6929 56.3635 30.2099)" fill="white"/>
<rect x="56.3635" y="54.4523" width="20.0364" height="1.51515" transform="rotate(-82.6929 56.3635 54.4523)" fill="white"/>
<rect x="58.6365" y="30.2099" width="20.0364" height="1.51515" transform="rotate(-82.6929 58.6365 30.2099)" fill="white"/>
<rect x="58.6365" y="54.4523" width="20.0364" height="1.51515" transform="rotate(-82.6929 58.6365 54.4523)" fill="white"/>
<rect x="60.9092" y="30.2099" width="20.0364" height="1.51515" transform="rotate(-82.6929 60.9092 30.2099)" fill="white"/>
<rect x="60.9092" y="54.4523" width="20.0364" height="1.51515" transform="rotate(-82.6929 60.9092 54.4523)" fill="white"/>
<rect x="63.1819" y="30.2099" width="20.0364" height="1.51515" transform="rotate(-82.6929 63.1819 30.2099)" fill="white"/>
<rect x="63.1819" y="54.4523" width="20.0364" height="1.51515" transform="rotate(-82.6929 63.1819 54.4523)" fill="white"/>
<rect x="65.4546" y="30.2099" width="20.0364" height="1.51515" transform="rotate(-82.6929 65.4546 30.2099)" fill="white"/>
<rect x="65.4546" y="54.4523" width="20.0364" height="1.51515" transform="rotate(-82.6929 65.4546 54.4523)" fill="white"/>
<rect x="67.7273" y="30.2099" width="20.0364" height="1.51515" transform="rotate(-82.6929 67.7273 30.2099)" fill="white"/>
<rect x="67.7273" y="54.4523" width="20.0364" height="1.51515" transform="rotate(-82.6929 67.7273 54.4523)" fill="white"/>
<rect x="70" y="30.2099" width="20.0364" height="1.51515" transform="rotate(-82.6929 70 30.2099)" fill="white"/>
<rect x="70" y="54.4523" width="20.0364" height="1.51515" transform="rotate(-82.6929 70 54.4523)" fill="white"/>
<rect x="72.2727" y="30.2099" width="20.0364" height="1.51515" transform="rotate(-82.6929 72.2727 30.2099)" fill="white"/>
<rect x="72.2727" y="54.4523" width="20.0364" height="1.51515" transform="rotate(-82.6929 72.2727 54.4523)" fill="white"/>
<rect x="74.5454" y="30.2099" width="20.0364" height="1.51515" transform="rotate(-82.6929 74.5454 30.2099)" fill="white"/>
<rect x="74.5454" y="54.4523" width="20.0364" height="1.51515" transform="rotate(-82.6929 74.5454 54.4523)" fill="white"/>
<rect x="76.8181" y="30.2099" width="20.0364" height="1.51515" transform="rotate(-82.6929 76.8181 30.2099)" fill="white"/>
<rect x="76.8181" y="54.4523" width="20.0364" height="1.51515" transform="rotate(-82.6929 76.8181 54.4523)" fill="white"/>
<rect x="79.0908" y="30.2099" width="20.0364" height="1.51515" transform="rotate(-82.6929 79.0908 30.2099)" fill="white"/>
<rect x="79.0908" y="54.4523" width="20.0364" height="1.51515" transform="rotate(-82.6929 79.0908 54.4523)" fill="white"/>
<rect x="81.3635" y="30.2099" width="20.0364" height="1.51515" transform="rotate(-82.6929 81.3635 30.2099)" fill="white"/>
<rect x="81.3635" y="54.4523" width="20.0364" height="1.51515" transform="rotate(-82.6929 81.3635 54.4523)" fill="white"/>
<rect x="83.6365" y="30.2099" width="20.0364" height="1.51515" transform="rotate(-82.6929 83.6365 30.2099)" fill="white"/>
<rect x="83.6365" y="54.4523" width="20.0364" height="1.51515" transform="rotate(-82.6929 83.6365 54.4523)" fill="white"/>
<rect x="85.9092" y="30.2099" width="20.0364" height="1.51515" transform="rotate(-82.6929 85.9092 30.2099)" fill="white"/>
<rect x="85.9092" y="54.4523" width="20.0364" height="1.51515" transform="rotate(-82.6929 85.9092 54.4523)" fill="white"/>
<rect x="88.1819" y="30.2099" width="20.0364" height="1.51515" transform="rotate(-82.6929 88.1819 30.2099)" fill="white"/>
<rect x="88.1819" y="54.4523" width="20.0364" height="1.51515" transform="rotate(-82.6929 88.1819 54.4523)" fill="white"/>
<rect x="54.0908" y="30.2099" width="20.0364" height="1.51515" transform="rotate(-82.6929 54.0908 30.2099)" fill="white"/>
<rect x="54.0908" y="54.4523" width="20.0364" height="1.51515" transform="rotate(-82.6929 54.0908 54.4523)" fill="white"/>
<rect x="45" y="31.2424" width="48.4848" height="3.0303" fill="white"/>
<rect x="46.5" y="8.5" width="47" height="47" rx="4.5" stroke="white" stroke-width="3"/>
</svg>
