<svg width="100" height="100" viewBox="0 0 100 100" fill="none" xmlns="http://www.w3.org/2000/svg">
<rect width="100" height="100" rx="16" fill="#B0FF12"/>
<path d="M71.3113 84H27.066C26.5138 84 26.066 83.5523 26.066 83V42.4314C26.066 41.4713 24.8445 41.0629 24.2671 41.83L17.8223 50.3913C17.4607 50.8716 16.7601 50.9266 16.328 50.5086L7.67309 42.1355C7.29443 41.7691 7.26495 41.1718 7.6057 40.77L25.7665 19.3532C25.9565 19.1292 26.2354 19 26.5292 19H37.4734C37.7041 19 37.9313 19.0831 38.1109 19.228C46.5623 26.0498 51.4993 25.9811 60.2717 19.2138C60.4481 19.0776 60.6682 19 60.8911 19H71.8725C72.1522 19 72.4191 19.1171 72.6084 19.3229L92.3396 40.7666C92.707 41.1658 92.689 41.7852 92.2991 42.1624L83.6079 50.5706C83.1992 50.966 82.5434 50.9415 82.1654 50.5166L74.0584 41.4041C73.4474 40.7172 72.3113 41.1495 72.3113 42.0688V83C72.3113 83.5523 71.8636 84 71.3113 84Z" stroke="white" stroke-width="5"/>
</svg>
