<svg width="100" height="100" viewBox="0 0 100 100" fill="none" xmlns="http://www.w3.org/2000/svg">
<rect width="100" height="100" rx="16" fill="#B0FF12"/>
<rect x="70.5" y="18.5" width="22" height="37" rx="3.5" stroke="white" stroke-width="3"/>
<circle cx="81.5" cy="50.3333" r="2.5" fill="white"/>
<path d="M69.5568 76.5H8.77702C7.99739 76.5 7.51762 75.6474 7.92224 74.981L15.3548 62.7392C15.4498 62.5827 15.5 62.4032 15.5 62.2202V49V34C15.5 33.4477 15.9477 33 16.5 33H60.5C61.0523 33 61.5 33.4477 61.5 34V62.1795C61.5 62.388 61.5651 62.5912 61.6863 62.7608L70.3705 74.9188C70.8433 75.5806 70.3702 76.5 69.5568 76.5Z" stroke="white" stroke-width="5"/>
<rect x="20.5" y="37.5" width="36" height="24" fill="white"/>
</svg>
