<svg width="100" height="100" viewBox="0 0 100 100" fill="none" xmlns="http://www.w3.org/2000/svg">
<rect width="100" height="100" rx="16" fill="#B0FF12"/>
<path d="M65.1132 63.64H33.2893C32.169 63.64 31.0811 64.0163 30.2002 64.7084L24.0828 69.515C22.236 70.966 19.6281 70.9361 17.8151 69.443L11.9455 64.6092C9.78061 62.8264 9.50518 59.6121 11.3351 57.4869L30.0639 35.7374C31.0138 34.6343 32.3971 34 33.8528 34H64.3205C65.722 34 67.0592 34.5882 68.0063 35.6214L88.2516 57.7072C90.1057 59.7299 89.9834 62.8689 87.9774 64.7411L82.9772 69.4079C81.3358 70.9399 78.8743 71.1899 76.9584 70.019L67.7204 64.3736C66.9354 63.8938 66.0332 63.64 65.1132 63.64Z" stroke="white" stroke-width="5"/>
<circle cx="58.92" cy="43.88" r="2.28" fill="white"/>
<circle cx="58.92" cy="53" r="2.28" fill="white"/>
<circle cx="63.4799" cy="48.44" r="2.28" fill="white"/>
<circle cx="54.36" cy="48.44" r="2.28" fill="white"/>
<line x1="39.5" y1="42" x2="39.5" y2="56" stroke="white" stroke-width="3"/>
<line x1="33" y1="49.5" x2="46.68" y2="49.5" stroke="white" stroke-width="3"/>
</svg>
