<svg width="275" height="58" viewBox="0 0 275 58" fill="none" xmlns="http://www.w3.org/2000/svg">
<rect width="275" height="58" rx="21" fill="#6DA300"/>
<rect width="275" height="58" rx="21" fill="#C1FF45" fill-opacity="0.31"/>
<g filter="url(#filter1_d_129_2)">
<path d="M59.844 41V15.548H64.344V26.42H76.224V15.548H80.688V41H76.224V30.524H64.344V41H59.844ZM91.571 41.252C90.731 41.252 89.915 41.132 89.123 40.892C88.355 40.652 87.659 40.304 87.035 39.848C86.411 39.368 85.919 38.78 85.559 38.084C85.199 37.364 85.019 36.524 85.019 35.564C85.019 34.34 85.259 33.344 85.739 32.576C86.219 31.784 86.867 31.184 87.683 30.776C88.523 30.368 89.471 30.092 90.527 29.948C91.583 29.78 92.687 29.696 93.839 29.696H97.547C97.547 28.856 97.415 28.136 97.151 27.536C96.887 26.912 96.467 26.42 95.891 26.06C95.339 25.7 94.619 25.52 93.731 25.52C93.155 25.52 92.615 25.592 92.111 25.736C91.631 25.856 91.211 26.06 90.851 26.348C90.515 26.612 90.275 26.96 90.131 27.392H85.631C85.799 26.408 86.135 25.568 86.639 24.872C87.167 24.152 87.803 23.564 88.547 23.108C89.315 22.652 90.155 22.316 91.067 22.1C91.979 21.86 92.903 21.74 93.839 21.74C95.687 21.74 97.187 22.1 98.339 22.82C99.515 23.54 100.379 24.572 100.931 25.916C101.483 27.26 101.759 28.88 101.759 30.776V41H97.871L97.763 38.696C97.235 39.368 96.623 39.896 95.927 40.28C95.255 40.64 94.547 40.892 93.803 41.036C93.059 41.18 92.315 41.252 91.571 41.252ZM92.579 37.688C93.563 37.688 94.427 37.508 95.171 37.148C95.915 36.788 96.503 36.284 96.935 35.636C97.367 34.988 97.583 34.232 97.583 33.368V32.792H94.163C93.539 32.792 92.939 32.816 92.363 32.864C91.787 32.888 91.271 32.984 90.815 33.152C90.383 33.296 90.035 33.524 89.771 33.836C89.507 34.148 89.375 34.592 89.375 35.168C89.375 35.72 89.519 36.188 89.807 36.572C90.095 36.932 90.479 37.208 90.959 37.4C91.463 37.592 92.003 37.688 92.579 37.688ZM115.972 41V22.028H129.436V25.916H120.364V41H115.972ZM130.559 41.036V37.076C131.087 37.076 131.543 36.956 131.927 36.716C132.311 36.452 132.635 36.104 132.899 35.672C133.211 35.144 133.439 34.472 133.583 33.656C133.727 32.84 133.823 32.012 133.871 31.172C133.943 30.092 133.991 29.012 134.015 27.932C134.063 26.828 134.099 25.772 134.123 24.764C134.171 23.732 134.195 22.82 134.195 22.028H148.451V41H144.059V25.916H138.263C138.239 26.708 138.203 27.548 138.155 28.436C138.131 29.324 138.095 30.224 138.047 31.136C137.999 32.024 137.915 32.888 137.795 33.728C137.699 34.664 137.531 35.612 137.291 36.572C137.075 37.532 136.691 38.396 136.139 39.164C135.563 39.884 134.843 40.376 133.979 40.64C133.139 40.904 131.999 41.036 130.559 41.036ZM158.614 41.252C157.774 41.252 156.958 41.132 156.166 40.892C155.398 40.652 154.702 40.304 154.078 39.848C153.454 39.368 152.962 38.78 152.602 38.084C152.242 37.364 152.062 36.524 152.062 35.564C152.062 34.34 152.302 33.344 152.782 32.576C153.262 31.784 153.91 31.184 154.726 30.776C155.566 30.368 156.514 30.092 157.57 29.948C158.626 29.78 159.73 29.696 160.882 29.696H164.59C164.59 28.856 164.458 28.136 164.194 27.536C163.93 26.912 163.51 26.42 162.934 26.06C162.382 25.7 161.662 25.52 160.774 25.52C160.198 25.52 159.658 25.592 159.154 25.736C158.674 25.856 158.254 26.06 157.894 26.348C157.558 26.612 157.318 26.96 157.174 27.392H152.674C152.842 26.408 153.178 25.568 153.682 24.872C154.21 24.152 154.846 23.564 155.59 23.108C156.358 22.652 157.198 22.316 158.11 22.1C159.022 21.86 159.946 21.74 160.882 21.74C162.73 21.74 164.23 22.1 165.382 22.82C166.558 23.54 167.422 24.572 167.974 25.916C168.526 27.26 168.802 28.88 168.802 30.776V41H164.914L164.806 38.696C164.278 39.368 163.666 39.896 162.97 40.28C162.298 40.64 161.59 40.892 160.846 41.036C160.102 41.18 159.358 41.252 158.614 41.252ZM159.622 37.688C160.606 37.688 161.47 37.508 162.214 37.148C162.958 36.788 163.546 36.284 163.978 35.636C164.41 34.988 164.626 34.232 164.626 33.368V32.792H161.206C160.582 32.792 159.982 32.816 159.406 32.864C158.83 32.888 158.314 32.984 157.858 33.152C157.426 33.296 157.078 33.524 156.814 33.836C156.55 34.148 156.418 34.592 156.418 35.168C156.418 35.72 156.562 36.188 156.85 36.572C157.138 36.932 157.522 37.208 158.002 37.4C158.506 37.592 159.046 37.688 159.622 37.688ZM172.995 41V22.028H181.599C182.415 22.028 183.231 22.088 184.047 22.208C184.887 22.304 185.643 22.532 186.315 22.892C186.987 23.228 187.527 23.72 187.935 24.368C188.367 24.992 188.583 25.844 188.583 26.924C188.583 27.5 188.487 28.04 188.295 28.544C188.127 29.048 187.875 29.48 187.539 29.84C187.227 30.2 186.831 30.512 186.351 30.776C187.455 31.088 188.247 31.64 188.727 32.432C189.231 33.2 189.483 34.136 189.483 35.24C189.483 36.272 189.279 37.16 188.871 37.904C188.463 38.624 187.911 39.212 187.215 39.668C186.543 40.124 185.787 40.46 184.947 40.676C184.131 40.892 183.303 41 182.463 41H172.995ZM177.423 37.184H181.923C182.523 37.184 183.063 37.124 183.543 37.004C184.023 36.884 184.407 36.668 184.695 36.356C185.007 36.044 185.163 35.612 185.163 35.06C185.163 34.556 185.043 34.16 184.803 33.872C184.587 33.56 184.287 33.344 183.903 33.224C183.543 33.08 183.135 32.996 182.679 32.972C182.223 32.924 181.779 32.9 181.347 32.9H177.423V37.184ZM177.423 29.804H180.411C180.819 29.804 181.251 29.78 181.707 29.732C182.163 29.684 182.595 29.588 183.003 29.444C183.411 29.276 183.747 29.048 184.011 28.76C184.275 28.472 184.407 28.1 184.407 27.644C184.407 27.02 184.227 26.576 183.867 26.312C183.531 26.048 183.111 25.88 182.607 25.808C182.127 25.736 181.647 25.7 181.167 25.7H177.423V29.804ZM193.104 41V22.028H197.496V29.66H205.416V22.028H209.808V41H205.416V33.584H197.496V41H193.104ZM214.85 49.496V45.104C215.93 45.104 216.794 44.984 217.442 44.744C218.114 44.528 218.678 44.168 219.134 43.664C219.59 43.184 220.01 42.548 220.394 41.756L212.33 22.028H217.442L222.914 36.752L227.234 22.028H232.058L226.946 37.904C226.658 38.792 226.334 39.716 225.974 40.676C225.638 41.636 225.242 42.572 224.786 43.484C224.354 44.396 223.862 45.236 223.31 46.004C222.758 46.772 222.134 47.408 221.438 47.912C220.862 48.32 220.286 48.632 219.71 48.848C219.158 49.088 218.498 49.256 217.73 49.352C216.986 49.448 216.026 49.496 214.85 49.496ZM250.831 41.252C248.167 41.252 246.079 40.544 244.567 39.128C243.055 37.688 242.155 35.804 241.867 33.476H238.735V41H234.343V22.028H238.735V29.588H241.867C242.059 28.028 242.515 26.66 243.235 25.484C243.979 24.308 244.987 23.396 246.259 22.748C247.531 22.076 249.043 21.74 250.795 21.74C252.739 21.74 254.395 22.148 255.763 22.964C257.131 23.78 258.175 24.92 258.895 26.384C259.639 27.824 260.011 29.54 260.011 31.532C260.011 33.476 259.651 35.18 258.931 36.644C258.235 38.084 257.203 39.212 255.835 40.028C254.491 40.844 252.823 41.252 250.831 41.252ZM250.759 37.292C251.959 37.292 252.907 37.028 253.603 36.5C254.323 35.948 254.839 35.24 255.151 34.376C255.487 33.488 255.655 32.528 255.655 31.496C255.655 30.488 255.487 29.552 255.151 28.688C254.839 27.8 254.323 27.08 253.603 26.528C252.907 25.976 251.959 25.7 250.759 25.7C249.583 25.7 248.635 25.976 247.915 26.528C247.195 27.056 246.667 27.764 246.331 28.652C246.019 29.516 245.863 30.476 245.863 31.532C245.863 32.54 246.019 33.488 246.331 34.376C246.667 35.264 247.195 35.972 247.915 36.5C248.635 37.028 249.583 37.292 250.759 37.292Z" fill="#D2D2D2"/>
</g>
<g filter="url(#filter2_d_129_2)">
<path d="M45 30.5C45.8284 30.5 46.5 29.8284 46.5 29C46.5 28.1716 45.8284 27.5 45 27.5V29V30.5ZM14.9393 27.9393C14.3536 28.5251 14.3536 29.4749 14.9393 30.0607L24.4853 39.6066C25.0711 40.1924 26.0208 40.1924 26.6066 39.6066C27.1924 39.0208 27.1924 38.0711 26.6066 37.4853L18.1213 29L26.6066 20.5147C27.1924 19.9289 27.1924 18.9792 26.6066 18.3934C26.0208 17.8076 25.0711 17.8076 24.4853 18.3934L14.9393 27.9393ZM45 29V27.5L16 27.5V29V30.5L45 30.5V29Z" fill="#D2D2D2"/>
</g>
<defs>
<filter id="filter1_d_129_2" x="55.844" y="15.548" width="208.167" height="41.948" filterUnits="userSpaceOnUse" color-interpolation-filters="sRGB">
<feFlood flood-opacity="0" result="BackgroundImageFix"/>
<feColorMatrix in="SourceAlpha" type="matrix" values="0 0 0 0 0 0 0 0 0 0 0 0 0 0 0 0 0 0 127 0" result="hardAlpha"/>
<feOffset dy="4"/>
<feGaussianBlur stdDeviation="2"/>
<feComposite in2="hardAlpha" operator="out"/>
<feColorMatrix type="matrix" values="0 0 0 0 0 0 0 0 0 0 0 0 0 0 0 0 0 0 0.25 0"/>
<feBlend mode="normal" in2="BackgroundImageFix" result="effect1_dropShadow_129_2"/>
<feBlend mode="normal" in="SourceGraphic" in2="effect1_dropShadow_129_2" result="shape"/>
</filter>
<filter id="filter2_d_129_2" x="10.5" y="17.954" width="40" height="30.0919" filterUnits="userSpaceOnUse" color-interpolation-filters="sRGB">
<feFlood flood-opacity="0" result="BackgroundImageFix"/>
<feColorMatrix in="SourceAlpha" type="matrix" values="0 0 0 0 0 0 0 0 0 0 0 0 0 0 0 0 0 0 127 0" result="hardAlpha"/>
<feOffset dy="4"/>
<feGaussianBlur stdDeviation="2"/>
<feComposite in2="hardAlpha" operator="out"/>
<feColorMatrix type="matrix" values="0 0 0 0 0 0 0 0 0 0 0 0 0 0 0 0 0 0 0.25 0"/>
<feBlend mode="normal" in2="BackgroundImageFix" result="effect1_dropShadow_129_2"/>
<feBlend mode="normal" in="SourceGraphic" in2="effect1_dropShadow_129_2" result="shape"/>
</filter>
</defs>
</svg>
