<svg width="90" height="90" viewBox="0 0 90 90" fill="none" xmlns="http://www.w3.org/2000/svg">
<g clip-path="url(#clip0_127_51)">
<path d="M63.2651 14.6667C73.3946 13.9852 81.2611 23.3527 78.8388 33.2119L77.5186 38.5851C76.7702 41.6312 76.9955 44.8352 78.1628 47.7466L80.222 52.8822C84.0003 62.3053 77.5222 72.6816 67.397 73.4244L61.8788 73.8292C58.7505 74.0587 55.7729 75.2631 53.3648 77.273L49.1169 80.8184C41.3225 87.3237 29.4523 84.369 25.6169 74.969L23.5267 69.8459C22.3417 66.9417 20.2762 64.482 17.6205 62.8128L12.936 59.8684C4.34048 54.4658 3.4824 42.2635 11.2372 35.7111L15.4636 32.14C17.8595 30.1156 19.5605 27.3911 20.3273 24.3496L21.6801 18.9844C24.1621 9.14013 35.502 4.55332 44.1301 9.90379L48.8324 12.8198C51.4981 14.4729 54.615 15.2487 57.7445 15.0381L63.2651 14.6667Z" fill="#7AAF10"/>
<path d="M45.1602 9.88072C53.5393 4.14811 65.0738 8.22093 67.9955 17.9438L69.5878 23.2428C70.4905 26.2468 72.3122 28.8922 74.7966 30.8069L79.1791 34.1845C87.2204 40.382 86.9113 52.6105 78.5671 58.3938L74.0196 61.5457C71.4416 63.3324 69.4886 65.8824 68.4353 68.8369L66.5772 74.0487C63.168 83.6115 51.4424 87.0964 43.3637 80.9477L38.9609 77.5967C36.4649 75.697 33.4362 74.6276 30.3008 74.5388L24.77 74.3823C14.6216 74.095 7.68397 64.0202 11.0352 54.4368L12.8617 49.2139C13.8971 46.2531 13.9782 43.0422 13.0938 40.0328L11.5335 34.7243C8.67077 24.9839 16.1086 15.2725 26.2585 15.4983L31.7902 15.6214C34.9261 15.6912 38.0049 14.7761 40.5937 13.005L45.1602 9.88072Z" fill="#8DCA13"/>
<path d="M33.3355 12.0043C39.3277 3.80891 51.5602 3.80891 57.5525 12.0043L60.8183 16.4707C62.6696 19.0027 65.2681 20.8907 68.2483 21.869L73.5054 23.5947C83.1513 26.7612 86.9313 38.3949 80.9888 46.6264L77.7501 51.1126C75.9142 53.6558 74.9216 56.7105 74.9121 59.8472L74.8954 65.3802C74.8646 75.5325 64.9683 82.7226 55.3034 79.6146L50.036 77.9207C47.0499 76.9605 43.838 76.9605 40.8519 77.9207L35.5845 79.6146C25.9196 82.7226 16.0233 75.5325 15.9926 65.3802L15.9758 59.8472C15.9663 56.7105 14.9738 53.6558 13.1378 51.1126L9.89912 46.6264C3.9566 38.3949 7.73663 26.7612 17.3826 23.5947L22.6396 21.869C25.6198 20.8907 28.2183 19.0027 30.0697 16.4707L33.3355 12.0043Z" fill="url(#paint0_radial_127_51)"/>
</g>
<defs>
<radialGradient id="paint0_radial_127_51" cx="0" cy="0" r="1" gradientUnits="userSpaceOnUse" gradientTransform="translate(45.444 43.444) rotate(92.6026) scale(44.0454)">
<stop stop-color="#E0FFA2"/>
<stop offset="0.9999" stop-color="#B0FF12"/>
</radialGradient>
<clipPath id="clip0_127_51">
<rect width="90" height="90" fill="white"/>
</clipPath>
</defs>
</svg>
