<svg width="274" height="274" viewBox="0 0 274 274" fill="none" xmlns="http://www.w3.org/2000/svg">
<rect width="274" height="274" fill="#1E1E1E"/>
<g clip-path="url(#clip0_0_1)">
<path d="M274 0H0V274H274V0Z" fill="white"/>
<path d="M91.3333 16.606H83.0303V24.909H91.3333V16.606Z" fill="black"/>
<path d="M107.939 16.606H99.6364V24.909H107.939V16.606Z" fill="black"/>
<path d="M116.242 16.606H107.939V24.909H116.242V16.606Z" fill="black"/>
<path d="M149.455 16.606H141.151V24.909H149.455V16.606Z" fill="black"/>
<path d="M157.758 16.606H149.455V24.909H157.758V16.606Z" fill="black"/>
<path d="M166.061 16.606H157.758V24.909H166.061V16.606Z" fill="black"/>
<path d="M182.667 16.606H174.364V24.909H182.667V16.606Z" fill="black"/>
<path d="M91.3333 24.9089H83.0303V33.212H91.3333V24.9089Z" fill="black"/>
<path d="M99.6364 24.9089H91.3334V33.212H99.6364V24.9089Z" fill="black"/>
<path d="M107.939 24.9089H99.6364V33.212H107.939V24.9089Z" fill="black"/>
<path d="M124.545 24.9089H116.242V33.212H124.545V24.9089Z" fill="black"/>
<path d="M157.758 24.9089H149.455V33.212H157.758V24.9089Z" fill="black"/>
<path d="M166.061 24.9089H157.758V33.212H166.061V24.9089Z" fill="black"/>
<path d="M174.364 24.9089H166.061V33.212H174.364V24.9089Z" fill="black"/>
<path d="M182.667 24.9089H174.364V33.212H182.667V24.9089Z" fill="black"/>
<path d="M190.97 24.9089H182.667V33.212H190.97V24.9089Z" fill="black"/>
<path d="M91.3333 33.2119H83.0303V41.5149H91.3333V33.2119Z" fill="black"/>
<path d="M99.6364 33.2119H91.3334V41.5149H99.6364V33.2119Z" fill="black"/>
<path d="M107.939 33.2119H99.6364V41.5149H107.939V33.2119Z" fill="black"/>
<path d="M124.545 33.2119H116.242V41.5149H124.545V33.2119Z" fill="black"/>
<path d="M149.455 33.2119H141.151V41.5149H149.455V33.2119Z" fill="black"/>
<path d="M157.758 33.2119H149.455V41.5149H157.758V33.2119Z" fill="black"/>
<path d="M190.97 33.2119H182.667V41.5149H190.97V33.2119Z" fill="black"/>
<path d="M99.6364 41.5151H91.3334V49.8182H99.6364V41.5151Z" fill="black"/>
<path d="M124.545 41.5151H116.242V49.8182H124.545V41.5151Z" fill="black"/>
<path d="M157.758 41.5151H149.455V49.8182H157.758V41.5151Z" fill="black"/>
<path d="M182.667 41.5151H174.364V49.8182H182.667V41.5151Z" fill="black"/>
<path d="M190.97 41.5151H182.667V49.8182H190.97V41.5151Z" fill="black"/>
<path d="M91.3333 49.8181H83.0303V58.1211H91.3333V49.8181Z" fill="black"/>
<path d="M141.152 49.8181H132.849V58.1211H141.152V49.8181Z" fill="black"/>
<path d="M149.455 49.8181H141.151V58.1211H149.455V49.8181Z" fill="black"/>
<path d="M157.758 49.8181H149.455V58.1211H157.758V49.8181Z" fill="black"/>
<path d="M166.061 49.8181H157.758V58.1211H166.061V49.8181Z" fill="black"/>
<path d="M99.6364 58.1211H91.3334V66.4241H99.6364V58.1211Z" fill="black"/>
<path d="M107.939 58.1211H99.6364V66.4241H107.939V58.1211Z" fill="black"/>
<path d="M116.242 58.1211H107.939V66.4241H116.242V58.1211Z" fill="black"/>
<path d="M124.545 58.1211H116.242V66.4241H124.545V58.1211Z" fill="black"/>
<path d="M149.455 58.1211H141.151V66.4241H149.455V58.1211Z" fill="black"/>
<path d="M157.758 58.1211H149.455V66.4241H157.758V58.1211Z" fill="black"/>
<path d="M166.061 58.1211H157.758V66.4241H166.061V58.1211Z" fill="black"/>
<path d="M190.97 58.1211H182.667V66.4241H190.97V58.1211Z" fill="black"/>
<path d="M91.3333 66.4241H83.0303V74.7271H91.3333V66.4241Z" fill="black"/>
<path d="M107.939 66.4241H99.6364V74.7271H107.939V66.4241Z" fill="black"/>
<path d="M124.545 66.4241H116.242V74.7271H124.545V66.4241Z" fill="black"/>
<path d="M141.152 66.4241H132.849V74.7271H141.152V66.4241Z" fill="black"/>
<path d="M157.758 66.4241H149.455V74.7271H157.758V66.4241Z" fill="black"/>
<path d="M174.364 66.4241H166.061V74.7271H174.364V66.4241Z" fill="black"/>
<path d="M190.97 66.4241H182.667V74.7271H190.97V66.4241Z" fill="black"/>
<path d="M99.6364 74.7271H91.3334V83.0301H99.6364V74.7271Z" fill="black"/>
<path d="M107.939 74.7271H99.6364V83.0301H107.939V74.7271Z" fill="black"/>
<path d="M116.242 74.7271H107.939V83.0301H116.242V74.7271Z" fill="black"/>
<path d="M132.849 74.7271H124.546V83.0301H132.849V74.7271Z" fill="black"/>
<path d="M149.455 74.7271H141.151V83.0301H149.455V74.7271Z" fill="black"/>
<path d="M157.758 74.7271H149.455V83.0301H157.758V74.7271Z" fill="black"/>
<path d="M24.9091 83.0303H16.6061V91.3333H24.9091V83.0303Z" fill="black"/>
<path d="M49.8182 83.0303H41.5151V91.3333H49.8182V83.0303Z" fill="black"/>
<path d="M58.1213 83.0303H49.8182V91.3333H58.1213V83.0303Z" fill="black"/>
<path d="M66.4242 83.0303H58.1212V91.3333H66.4242V83.0303Z" fill="black"/>
<path d="M74.7273 83.0303H66.4243V91.3333H74.7273V83.0303Z" fill="black"/>
<path d="M83.0303 83.0303H74.7273V91.3333H83.0303V83.0303Z" fill="black"/>
<path d="M91.3333 83.0303H83.0303V91.3333H91.3333V83.0303Z" fill="black"/>
<path d="M116.242 83.0303H107.939V91.3333H116.242V83.0303Z" fill="black"/>
<path d="M124.545 83.0303H116.242V91.3333H124.545V83.0303Z" fill="black"/>
<path d="M132.849 83.0303H124.546V91.3333H132.849V83.0303Z" fill="black"/>
<path d="M199.273 83.0303H190.97V91.3333H199.273V83.0303Z" fill="black"/>
<path d="M224.182 83.0303H215.879V91.3333H224.182V83.0303Z" fill="black"/>
<path d="M240.788 83.0303H232.485V91.3333H240.788V83.0303Z" fill="black"/>
<path d="M249.091 83.0303H240.788V91.3333H249.091V83.0303Z" fill="black"/>
<path d="M257.394 83.0303H249.091V91.3333H257.394V83.0303Z" fill="black"/>
<path d="M41.5152 91.3333H33.2122V99.6363H41.5152V91.3333Z" fill="black"/>
<path d="M58.1213 91.3333H49.8182V99.6363H58.1213V91.3333Z" fill="black"/>
<path d="M66.4242 91.3333H58.1212V99.6363H66.4242V91.3333Z" fill="black"/>
<path d="M107.939 91.3333H99.6364V99.6363H107.939V91.3333Z" fill="black"/>
<path d="M116.242 91.3333H107.939V99.6363H116.242V91.3333Z" fill="black"/>
<path d="M124.545 91.3333H116.242V99.6363H124.545V91.3333Z" fill="black"/>
<path d="M132.849 91.3333H124.546V99.6363H132.849V91.3333Z" fill="black"/>
<path d="M157.758 91.3333H149.455V99.6363H157.758V91.3333Z" fill="black"/>
<path d="M166.061 91.3333H157.758V99.6363H166.061V91.3333Z" fill="black"/>
<path d="M174.364 91.3333H166.061V99.6363H174.364V91.3333Z" fill="black"/>
<path d="M199.273 91.3333H190.97V99.6363H199.273V91.3333Z" fill="black"/>
<path d="M215.879 91.3333H207.576V99.6363H215.879V91.3333Z" fill="black"/>
<path d="M224.182 91.3333H215.879V99.6363H224.182V91.3333Z" fill="black"/>
<path d="M240.788 91.3333H232.485V99.6363H240.788V91.3333Z" fill="black"/>
<path d="M249.091 91.3333H240.788V99.6363H249.091V91.3333Z" fill="black"/>
<path d="M24.9091 99.6362H16.6061V107.939H24.9091V99.6362Z" fill="black"/>
<path d="M33.2121 99.6362H24.9091V107.939H33.2121V99.6362Z" fill="black"/>
<path d="M49.8182 99.6362H41.5151V107.939H49.8182V99.6362Z" fill="black"/>
<path d="M66.4242 99.6362H58.1212V107.939H66.4242V99.6362Z" fill="black"/>
<path d="M74.7273 99.6362H66.4243V107.939H74.7273V99.6362Z" fill="black"/>
<path d="M83.0303 99.6362H74.7273V107.939H83.0303V99.6362Z" fill="black"/>
<path d="M91.3333 99.6362H83.0303V107.939H91.3333V99.6362Z" fill="black"/>
<path d="M99.6364 99.6362H91.3334V107.939H99.6364V99.6362Z" fill="black"/>
<path d="M107.939 99.6362H99.6364V107.939H107.939V99.6362Z" fill="black"/>
<path d="M116.242 99.6362H107.939V107.939H116.242V99.6362Z" fill="black"/>
<path d="M124.545 99.6362H116.242V107.939H124.545V99.6362Z" fill="black"/>
<path d="M132.849 99.6362H124.546V107.939H132.849V99.6362Z" fill="black"/>
<path d="M149.455 99.6362H141.151V107.939H149.455V99.6362Z" fill="black"/>
<path d="M157.758 99.6362H149.455V107.939H157.758V99.6362Z" fill="black"/>
<path d="M166.061 99.6362H157.758V107.939H166.061V99.6362Z" fill="black"/>
<path d="M215.879 99.6362H207.576V107.939H215.879V99.6362Z" fill="black"/>
<path d="M224.182 99.6362H215.879V107.939H224.182V99.6362Z" fill="black"/>
<path d="M240.788 99.6362H232.485V107.939H240.788V99.6362Z" fill="black"/>
<path d="M24.9091 107.939H16.6061V116.242H24.9091V107.939Z" fill="black"/>
<path d="M33.2121 107.939H24.9091V116.242H33.2121V107.939Z" fill="black"/>
<path d="M49.8182 107.939H41.5151V116.242H49.8182V107.939Z" fill="black"/>
<path d="M91.3333 107.939H83.0303V116.242H91.3333V107.939Z" fill="black"/>
<path d="M99.6364 107.939H91.3334V116.242H99.6364V107.939Z" fill="black"/>
<path d="M132.849 107.939H124.546V116.242H132.849V107.939Z" fill="black"/>
<path d="M157.758 107.939H149.455V116.242H157.758V107.939Z" fill="black"/>
<path d="M166.061 107.939H157.758V116.242H166.061V107.939Z" fill="black"/>
<path d="M174.364 107.939H166.061V116.242H174.364V107.939Z" fill="black"/>
<path d="M182.667 107.939H174.364V116.242H182.667V107.939Z" fill="black"/>
<path d="M199.273 107.939H190.97V116.242H199.273V107.939Z" fill="black"/>
<path d="M207.576 107.939H199.273V116.242H207.576V107.939Z" fill="black"/>
<path d="M215.879 107.939H207.576V116.242H215.879V107.939Z" fill="black"/>
<path d="M232.485 107.939H224.182V116.242H232.485V107.939Z" fill="black"/>
<path d="M257.394 107.939H249.091V116.242H257.394V107.939Z" fill="black"/>
<path d="M33.2121 116.242H24.9091V124.545H33.2121V116.242Z" fill="black"/>
<path d="M49.8182 116.242H41.5151V124.545H49.8182V116.242Z" fill="black"/>
<path d="M58.1213 116.242H49.8182V124.545H58.1213V116.242Z" fill="black"/>
<path d="M66.4242 116.242H58.1212V124.545H66.4242V116.242Z" fill="black"/>
<path d="M74.7273 116.242H66.4243V124.545H74.7273V116.242Z" fill="black"/>
<path d="M91.3333 116.242H83.0303V124.545H91.3333V116.242Z" fill="black"/>
<path d="M116.242 116.242H107.939V124.545H116.242V116.242Z" fill="black"/>
<path d="M124.545 116.242H116.242V124.545H124.545V116.242Z" fill="black"/>
<path d="M132.849 116.242H124.546V124.545H132.849V116.242Z" fill="black"/>
<path d="M149.455 116.242H141.151V124.545H149.455V116.242Z" fill="black"/>
<path d="M157.758 116.242H149.455V124.545H157.758V116.242Z" fill="black"/>
<path d="M166.061 116.242H157.758V124.545H166.061V116.242Z" fill="black"/>
<path d="M190.97 116.242H182.667V124.545H190.97V116.242Z" fill="black"/>
<path d="M207.576 116.242H199.273V124.545H207.576V116.242Z" fill="black"/>
<path d="M215.879 116.242H207.576V124.545H215.879V116.242Z" fill="black"/>
<path d="M257.394 116.242H249.091V124.545H257.394V116.242Z" fill="black"/>
<path d="M33.2121 124.545H24.9091V132.848H33.2121V124.545Z" fill="black"/>
<path d="M41.5152 124.545H33.2122V132.848H41.5152V124.545Z" fill="black"/>
<path d="M49.8182 124.545H41.5151V132.848H49.8182V124.545Z" fill="black"/>
<path d="M58.1213 124.545H49.8182V132.848H58.1213V124.545Z" fill="black"/>
<path d="M66.4242 124.545H58.1212V132.848H66.4242V124.545Z" fill="black"/>
<path d="M83.0303 124.545H74.7273V132.848H83.0303V124.545Z" fill="black"/>
<path d="M107.939 124.545H99.6364V132.848H107.939V124.545Z" fill="black"/>
<path d="M132.849 124.545H124.546V132.848H132.849V124.545Z" fill="black"/>
<path d="M141.152 124.545H132.849V132.848H141.152V124.545Z" fill="black"/>
<path d="M157.758 124.545H149.455V132.848H157.758V124.545Z" fill="black"/>
<path d="M166.061 124.545H157.758V132.848H166.061V124.545Z" fill="black"/>
<path d="M174.364 124.545H166.061V132.848H174.364V124.545Z" fill="black"/>
<path d="M182.667 124.545H174.364V132.848H182.667V124.545Z" fill="black"/>
<path d="M207.576 124.545H199.273V132.848H207.576V124.545Z" fill="black"/>
<path d="M215.879 124.545H207.576V132.848H215.879V124.545Z" fill="black"/>
<path d="M224.182 124.545H215.879V132.848H224.182V124.545Z" fill="black"/>
<path d="M232.485 124.545H224.182V132.848H232.485V124.545Z" fill="black"/>
<path d="M240.788 124.545H232.485V132.848H240.788V124.545Z" fill="black"/>
<path d="M249.091 124.545H240.788V132.848H249.091V124.545Z" fill="black"/>
<path d="M257.394 124.545H249.091V132.848H257.394V124.545Z" fill="black"/>
<path d="M24.9091 132.848H16.6061V141.151H24.9091V132.848Z" fill="black"/>
<path d="M41.5152 132.848H33.2122V141.151H41.5152V132.848Z" fill="black"/>
<path d="M49.8182 132.848H41.5151V141.151H49.8182V132.848Z" fill="black"/>
<path d="M74.7273 132.848H66.4243V141.151H74.7273V132.848Z" fill="black"/>
<path d="M91.3333 132.848H83.0303V141.151H91.3333V132.848Z" fill="black"/>
<path d="M99.6364 132.848H91.3334V141.151H99.6364V132.848Z" fill="black"/>
<path d="M124.545 132.848H116.242V141.151H124.545V132.848Z" fill="black"/>
<path d="M132.849 132.848H124.546V141.151H132.849V132.848Z" fill="black"/>
<path d="M157.758 132.848H149.455V141.151H157.758V132.848Z" fill="black"/>
<path d="M166.061 132.848H157.758V141.151H166.061V132.848Z" fill="black"/>
<path d="M174.364 132.848H166.061V141.151H174.364V132.848Z" fill="black"/>
<path d="M182.667 132.848H174.364V141.151H182.667V132.848Z" fill="black"/>
<path d="M190.97 132.848H182.667V141.151H190.97V132.848Z" fill="black"/>
<path d="M199.273 132.848H190.97V141.151H199.273V132.848Z" fill="black"/>
<path d="M207.576 132.848H199.273V141.151H207.576V132.848Z" fill="black"/>
<path d="M224.182 132.848H215.879V141.151H224.182V132.848Z" fill="black"/>
<path d="M240.788 132.848H232.485V141.151H240.788V132.848Z" fill="black"/>
<path d="M257.394 132.848H249.091V141.151H257.394V132.848Z" fill="black"/>
<path d="M24.9091 141.151H16.6061V149.454H24.9091V141.151Z" fill="black"/>
<path d="M41.5152 141.151H33.2122V149.454H41.5152V141.151Z" fill="black"/>
<path d="M58.1213 141.151H49.8182V149.454H58.1213V141.151Z" fill="black"/>
<path d="M66.4242 141.151H58.1212V149.454H66.4242V141.151Z" fill="black"/>
<path d="M83.0303 141.151H74.7273V149.454H83.0303V141.151Z" fill="black"/>
<path d="M91.3333 141.151H83.0303V149.454H91.3333V141.151Z" fill="black"/>
<path d="M99.6364 141.151H91.3334V149.454H99.6364V141.151Z" fill="black"/>
<path d="M107.939 141.151H99.6364V149.454H107.939V141.151Z" fill="black"/>
<path d="M116.242 141.151H107.939V149.454H116.242V141.151Z" fill="black"/>
<path d="M149.455 141.151H141.151V149.454H149.455V141.151Z" fill="black"/>
<path d="M182.667 141.151H174.364V149.454H182.667V141.151Z" fill="black"/>
<path d="M215.879 141.151H207.576V149.454H215.879V141.151Z" fill="black"/>
<path d="M224.182 141.151H215.879V149.454H224.182V141.151Z" fill="black"/>
<path d="M240.788 141.151H232.485V149.454H240.788V141.151Z" fill="black"/>
<path d="M257.394 141.151H249.091V149.454H257.394V141.151Z" fill="black"/>
<path d="M49.8182 149.454H41.5151V157.757H49.8182V149.454Z" fill="black"/>
<path d="M66.4242 149.454H58.1212V157.757H66.4242V149.454Z" fill="black"/>
<path d="M74.7273 149.454H66.4243V157.757H74.7273V149.454Z" fill="black"/>
<path d="M107.939 149.454H99.6364V157.757H107.939V149.454Z" fill="black"/>
<path d="M141.152 149.454H132.849V157.757H141.152V149.454Z" fill="black"/>
<path d="M157.758 149.454H149.455V157.757H157.758V149.454Z" fill="black"/>
<path d="M166.061 149.454H157.758V157.757H166.061V149.454Z" fill="black"/>
<path d="M182.667 149.454H174.364V157.757H182.667V149.454Z" fill="black"/>
<path d="M190.97 149.454H182.667V157.757H190.97V149.454Z" fill="black"/>
<path d="M199.273 149.454H190.97V157.757H199.273V149.454Z" fill="black"/>
<path d="M232.485 149.454H224.182V157.757H232.485V149.454Z" fill="black"/>
<path d="M24.9091 157.758H16.6061V166.061H24.9091V157.758Z" fill="black"/>
<path d="M33.2121 157.758H24.9091V166.061H33.2121V157.758Z" fill="black"/>
<path d="M41.5152 157.758H33.2122V166.061H41.5152V157.758Z" fill="black"/>
<path d="M49.8182 157.758H41.5151V166.061H49.8182V157.758Z" fill="black"/>
<path d="M66.4242 157.758H58.1212V166.061H66.4242V157.758Z" fill="black"/>
<path d="M83.0303 157.758H74.7273V166.061H83.0303V157.758Z" fill="black"/>
<path d="M91.3333 157.758H83.0303V166.061H91.3333V157.758Z" fill="black"/>
<path d="M107.939 157.758H99.6364V166.061H107.939V157.758Z" fill="black"/>
<path d="M132.849 157.758H124.546V166.061H132.849V157.758Z" fill="black"/>
<path d="M141.152 157.758H132.849V166.061H141.152V157.758Z" fill="black"/>
<path d="M157.758 157.758H149.455V166.061H157.758V157.758Z" fill="black"/>
<path d="M166.061 157.758H157.758V166.061H166.061V157.758Z" fill="black"/>
<path d="M174.364 157.758H166.061V166.061H174.364V157.758Z" fill="black"/>
<path d="M182.667 157.758H174.364V166.061H182.667V157.758Z" fill="black"/>
<path d="M224.182 157.758H215.879V166.061H224.182V157.758Z" fill="black"/>
<path d="M240.788 157.758H232.485V166.061H240.788V157.758Z" fill="black"/>
<path d="M249.091 157.758H240.788V166.061H249.091V157.758Z" fill="black"/>
<path d="M24.9091 166.061H16.6061V174.364H24.9091V166.061Z" fill="black"/>
<path d="M33.2121 166.061H24.9091V174.364H33.2121V166.061Z" fill="black"/>
<path d="M49.8182 166.061H41.5151V174.364H49.8182V166.061Z" fill="black"/>
<path d="M66.4242 166.061H58.1212V174.364H66.4242V166.061Z" fill="black"/>
<path d="M74.7273 166.061H66.4243V174.364H74.7273V166.061Z" fill="black"/>
<path d="M124.545 166.061H116.242V174.364H124.545V166.061Z" fill="black"/>
<path d="M149.455 166.061H141.151V174.364H149.455V166.061Z" fill="black"/>
<path d="M166.061 166.061H157.758V174.364H166.061V166.061Z" fill="black"/>
<path d="M182.667 166.061H174.364V174.364H182.667V166.061Z" fill="black"/>
<path d="M224.182 166.061H215.879V174.364H224.182V166.061Z" fill="black"/>
<path d="M232.485 166.061H224.182V174.364H232.485V166.061Z" fill="black"/>
<path d="M257.394 166.061H249.091V174.364H257.394V166.061Z" fill="black"/>
<path d="M24.9091 174.364H16.6061V182.667H24.9091V174.364Z" fill="black"/>
<path d="M33.2121 174.364H24.9091V182.667H33.2121V174.364Z" fill="black"/>
<path d="M99.6364 174.364H91.3334V182.667H99.6364V174.364Z" fill="black"/>
<path d="M107.939 174.364H99.6364V182.667H107.939V174.364Z" fill="black"/>
<path d="M141.152 174.364H132.849V182.667H141.152V174.364Z" fill="black"/>
<path d="M182.667 174.364H174.364V182.667H182.667V174.364Z" fill="black"/>
<path d="M207.576 174.364H199.273V182.667H207.576V174.364Z" fill="black"/>
<path d="M232.485 174.364H224.182V182.667H232.485V174.364Z" fill="black"/>
<path d="M240.788 174.364H232.485V182.667H240.788V174.364Z" fill="black"/>
<path d="M24.9091 182.667H16.6061V190.97H24.9091V182.667Z" fill="black"/>
<path d="M33.2121 182.667H24.9091V190.97H33.2121V182.667Z" fill="black"/>
<path d="M49.8182 182.667H41.5151V190.97H49.8182V182.667Z" fill="black"/>
<path d="M74.7273 182.667H66.4243V190.97H74.7273V182.667Z" fill="black"/>
<path d="M83.0303 182.667H74.7273V190.97H83.0303V182.667Z" fill="black"/>
<path d="M91.3333 182.667H83.0303V190.97H91.3333V182.667Z" fill="black"/>
<path d="M107.939 182.667H99.6364V190.97H107.939V182.667Z" fill="black"/>
<path d="M116.242 182.667H107.939V190.97H116.242V182.667Z" fill="black"/>
<path d="M124.545 182.667H116.242V190.97H124.545V182.667Z" fill="black"/>
<path d="M132.849 182.667H124.546V190.97H132.849V182.667Z" fill="black"/>
<path d="M141.152 182.667H132.849V190.97H141.152V182.667Z" fill="black"/>
<path d="M149.455 182.667H141.151V190.97H149.455V182.667Z" fill="black"/>
<path d="M157.758 182.667H149.455V190.97H157.758V182.667Z" fill="black"/>
<path d="M190.97 182.667H182.667V190.97H190.97V182.667Z" fill="black"/>
<path d="M199.273 182.667H190.97V190.97H199.273V182.667Z" fill="black"/>
<path d="M207.576 182.667H199.273V190.97H207.576V182.667Z" fill="black"/>
<path d="M215.879 182.667H207.576V190.97H215.879V182.667Z" fill="black"/>
<path d="M224.182 182.667H215.879V190.97H224.182V182.667Z" fill="black"/>
<path d="M232.485 182.667H224.182V190.97H232.485V182.667Z" fill="black"/>
<path d="M240.788 182.667H232.485V190.97H240.788V182.667Z" fill="black"/>
<path d="M249.091 182.667H240.788V190.97H249.091V182.667Z" fill="black"/>
<path d="M91.3333 190.969H83.0303V199.273H91.3333V190.969Z" fill="black"/>
<path d="M107.939 190.969H99.6364V199.273H107.939V190.969Z" fill="black"/>
<path d="M124.545 190.969H116.242V199.273H124.545V190.969Z" fill="black"/>
<path d="M141.152 190.969H132.849V199.273H141.152V190.969Z" fill="black"/>
<path d="M166.061 190.969H157.758V199.273H166.061V190.969Z" fill="black"/>
<path d="M174.364 190.969H166.061V199.273H174.364V190.969Z" fill="black"/>
<path d="M190.97 190.969H182.667V199.273H190.97V190.969Z" fill="black"/>
<path d="M224.182 190.969H215.879V199.273H224.182V190.969Z" fill="black"/>
<path d="M232.485 190.969H224.182V199.273H232.485V190.969Z" fill="black"/>
<path d="M91.3333 199.273H83.0303V207.576H91.3333V199.273Z" fill="black"/>
<path d="M99.6364 199.273H91.3334V207.576H99.6364V199.273Z" fill="black"/>
<path d="M107.939 199.273H99.6364V207.576H107.939V199.273Z" fill="black"/>
<path d="M124.545 199.273H116.242V207.576H124.545V199.273Z" fill="black"/>
<path d="M141.152 199.273H132.849V207.576H141.152V199.273Z" fill="black"/>
<path d="M182.667 199.273H174.364V207.576H182.667V199.273Z" fill="black"/>
<path d="M190.97 199.273H182.667V207.576H190.97V199.273Z" fill="black"/>
<path d="M207.576 199.273H199.273V207.576H207.576V199.273Z" fill="black"/>
<path d="M224.182 199.273H215.879V207.576H224.182V199.273Z" fill="black"/>
<path d="M232.485 199.273H224.182V207.576H232.485V199.273Z" fill="black"/>
<path d="M91.3333 207.576H83.0303V215.879H91.3333V207.576Z" fill="black"/>
<path d="M99.6364 207.576H91.3334V215.879H99.6364V207.576Z" fill="black"/>
<path d="M107.939 207.576H99.6364V215.879H107.939V207.576Z" fill="black"/>
<path d="M116.242 207.576H107.939V215.879H116.242V207.576Z" fill="black"/>
<path d="M141.152 207.576H132.849V215.879H141.152V207.576Z" fill="black"/>
<path d="M149.455 207.576H141.151V215.879H149.455V207.576Z" fill="black"/>
<path d="M166.061 207.576H157.758V215.879H166.061V207.576Z" fill="black"/>
<path d="M174.364 207.576H166.061V215.879H174.364V207.576Z" fill="black"/>
<path d="M182.667 207.576H174.364V215.879H182.667V207.576Z" fill="black"/>
<path d="M190.97 207.576H182.667V215.879H190.97V207.576Z" fill="black"/>
<path d="M224.182 207.576H215.879V215.879H224.182V207.576Z" fill="black"/>
<path d="M257.394 207.576H249.091V215.879H257.394V207.576Z" fill="black"/>
<path d="M91.3333 215.879H83.0303V224.182H91.3333V215.879Z" fill="black"/>
<path d="M99.6364 215.879H91.3334V224.182H99.6364V215.879Z" fill="black"/>
<path d="M132.849 215.879H124.546V224.182H132.849V215.879Z" fill="black"/>
<path d="M141.152 215.879H132.849V224.182H141.152V215.879Z" fill="black"/>
<path d="M166.061 215.879H157.758V224.182H166.061V215.879Z" fill="black"/>
<path d="M174.364 215.879H166.061V224.182H174.364V215.879Z" fill="black"/>
<path d="M182.667 215.879H174.364V224.182H182.667V215.879Z" fill="black"/>
<path d="M190.97 215.879H182.667V224.182H190.97V215.879Z" fill="black"/>
<path d="M199.273 215.879H190.97V224.182H199.273V215.879Z" fill="black"/>
<path d="M207.576 215.879H199.273V224.182H207.576V215.879Z" fill="black"/>
<path d="M215.879 215.879H207.576V224.182H215.879V215.879Z" fill="black"/>
<path d="M224.182 215.879H215.879V224.182H224.182V215.879Z" fill="black"/>
<path d="M232.485 215.879H224.182V224.182H232.485V215.879Z" fill="black"/>
<path d="M91.3333 224.182H83.0303V232.485H91.3333V224.182Z" fill="black"/>
<path d="M116.242 224.182H107.939V232.485H116.242V224.182Z" fill="black"/>
<path d="M124.545 224.182H116.242V232.485H124.545V224.182Z" fill="black"/>
<path d="M132.849 224.182H124.546V232.485H132.849V224.182Z" fill="black"/>
<path d="M166.061 224.182H157.758V232.485H166.061V224.182Z" fill="black"/>
<path d="M174.364 224.182H166.061V232.485H174.364V224.182Z" fill="black"/>
<path d="M199.273 224.182H190.97V232.485H199.273V224.182Z" fill="black"/>
<path d="M249.091 224.182H240.788V232.485H249.091V224.182Z" fill="black"/>
<path d="M107.939 232.485H99.6364V240.788H107.939V232.485Z" fill="black"/>
<path d="M132.849 232.485H124.546V240.788H132.849V232.485Z" fill="black"/>
<path d="M149.455 232.485H141.151V240.788H149.455V232.485Z" fill="black"/>
<path d="M166.061 232.485H157.758V240.788H166.061V232.485Z" fill="black"/>
<path d="M190.97 232.485H182.667V240.788H190.97V232.485Z" fill="black"/>
<path d="M199.273 232.485H190.97V240.788H199.273V232.485Z" fill="black"/>
<path d="M215.879 232.485H207.576V240.788H215.879V232.485Z" fill="black"/>
<path d="M224.182 232.485H215.879V240.788H224.182V232.485Z" fill="black"/>
<path d="M240.788 232.485H232.485V240.788H240.788V232.485Z" fill="black"/>
<path d="M249.091 232.485H240.788V240.788H249.091V232.485Z" fill="black"/>
<path d="M257.394 232.485H249.091V240.788H257.394V232.485Z" fill="black"/>
<path d="M107.939 240.788H99.6364V249.091H107.939V240.788Z" fill="black"/>
<path d="M116.242 240.788H107.939V249.091H116.242V240.788Z" fill="black"/>
<path d="M132.849 240.788H124.546V249.091H132.849V240.788Z" fill="black"/>
<path d="M141.152 240.788H132.849V249.091H141.152V240.788Z" fill="black"/>
<path d="M157.758 240.788H149.455V249.091H157.758V240.788Z" fill="black"/>
<path d="M166.061 240.788H157.758V249.091H166.061V240.788Z" fill="black"/>
<path d="M174.364 240.788H166.061V249.091H174.364V240.788Z" fill="black"/>
<path d="M207.576 240.788H199.273V249.091H207.576V240.788Z" fill="black"/>
<path d="M215.879 240.788H207.576V249.091H215.879V240.788Z" fill="black"/>
<path d="M232.485 240.788H224.182V249.091H232.485V240.788Z" fill="black"/>
<path d="M240.788 240.788H232.485V249.091H240.788V240.788Z" fill="black"/>
<path d="M257.394 240.788H249.091V249.091H257.394V240.788Z" fill="black"/>
<path d="M91.3333 249.091H83.0303V257.394H91.3333V249.091Z" fill="black"/>
<path d="M107.939 249.091H99.6364V257.394H107.939V249.091Z" fill="black"/>
<path d="M149.455 249.091H141.151V257.394H149.455V249.091Z" fill="black"/>
<path d="M166.061 249.091H157.758V257.394H166.061V249.091Z" fill="black"/>
<path d="M182.667 249.091H174.364V257.394H182.667V249.091Z" fill="black"/>
<path d="M190.97 249.091H182.667V257.394H190.97V249.091Z" fill="black"/>
<path d="M207.576 249.091H199.273V257.394H207.576V249.091Z" fill="black"/>
<path d="M224.182 249.091H215.879V257.394H224.182V249.091Z" fill="black"/>
<path d="M66.0091 16.606H25.3243H16.6061V25.3241V66.009V74.7272H25.3243H66.0091H74.7273V66.009V25.3241V16.606H66.0091ZM66.0091 66.009H25.3243V25.3241H66.0091V66.009Z" fill="black"/>
<path d="M248.676 16.606H207.991H199.273V25.3241V66.009V74.7272H207.991H248.676H257.394V66.009V25.3241V16.606H248.676ZM248.676 66.009H207.991V25.3241H248.676V66.009Z" fill="black"/>
<path d="M66.0091 199.273H25.3243H16.6061V207.991V248.676V257.394H25.3243H66.0091H74.7273V248.676V207.991V199.273H66.0091ZM66.0091 248.676H25.3243V207.991H66.0091V248.676Z" fill="black"/>
<path d="M58.1212 33.2119H33.2122V58.121H58.1212V33.2119Z" fill="black"/>
<path d="M240.788 33.2119H215.879V58.121H240.788V33.2119Z" fill="black"/>
<path d="M58.1212 215.879H33.2122V240.788H58.1212V215.879Z" fill="black"/>
</g>
<defs>
<clipPath id="clip0_0_1">
<rect width="274" height="274" rx="16" fill="white"/>
</clipPath>
</defs>
</svg>
