<svg width="100" height="100" viewBox="0 0 100 100" fill="none" xmlns="http://www.w3.org/2000/svg">
<g clip-path="url(#clip0_108_4)">
<rect width="100" height="100" fill="white"/>
<path d="M-11 45L38 -15H66.5L0 75V98.5L79.3311 10M99.5 -12.5L79.3311 10M79.3311 10C84.624 19.763 94.2539 29.7368 85 39.5L24 104L70 109L121.5 17" stroke="#B0FF12" stroke-width="14"/>
<path d="M3.37014 54.9894L6.46138 36.8692L19.1225 39.0291L18.624 41.9509L9.16665 40.3375L8.24409 45.7454L16.3431 47.127L15.8446 50.0488L7.74564 48.6672L6.57385 55.5359L3.37014 54.9894ZM18.788 57.6196L21.8793 39.4994L25.083 40.0459L21.9917 58.1662L18.788 57.6196ZM26.0464 58.8579L29.1377 40.7377L32.5721 41.3236L39.06 56.0138L41.3118 42.8145L44.5155 43.3611L41.4243 61.4813L38.0668 60.9085L31.4888 46.282L29.2501 59.4044L26.0464 58.8579ZM45.469 62.1713L48.5602 44.0511L55.2496 45.1923C57.1462 45.5158 58.6896 46.1572 59.8799 47.1163C61.0732 48.0584 61.8949 49.2712 62.3452 50.7547C62.8155 52.2241 62.8888 53.907 62.5653 55.8036C62.2475 57.6661 61.6318 59.2139 60.7181 60.4471C59.8214 61.6833 58.6526 62.5565 57.2116 63.0668C55.7735 63.5599 54.0976 63.6433 52.1839 63.3168L45.469 62.1713ZM49.1711 59.796L52.6055 60.3819C53.9553 60.6122 55.084 60.541 55.9916 60.1683C56.9192 59.7815 57.6482 59.1673 58.1786 58.3259C58.729 57.4702 59.1077 56.4359 59.3147 55.2227C59.5158 54.0438 59.5071 52.9609 59.2886 51.9741C59.0701 50.9873 58.5874 50.1576 57.8405 49.4851C57.1137 48.7984 56.0753 48.3399 54.7255 48.1097L51.2655 47.5194L49.1711 59.796ZM64.0906 65.3481L67.1818 47.2279L79.971 49.4096L79.4726 52.3314L69.8871 50.6962L69.0738 55.4633L77.4035 56.8843L76.9138 59.7548L68.5841 58.3338L67.7927 62.9728L77.3782 64.6081L76.8798 67.5299L64.0906 65.3481ZM79.9339 68.0509L83.0252 49.9307L90.1759 51.1506C91.0985 51.308 91.9539 51.5506 92.742 51.8785C93.533 52.1892 94.2067 52.6207 94.7631 53.1728C95.3224 53.7078 95.7174 54.3818 95.948 55.1948C96.1785 56.0078 96.1991 56.9697 96.0096 58.0803C95.8522 59.003 95.5514 59.7869 95.1073 60.432C94.6631 61.0772 94.1097 61.5894 93.4472 61.9688C92.8017 62.351 92.0641 62.6032 91.2344 62.7254L94.0046 70.4513L90.4165 69.8392L87.9689 62.6958L84.2526 62.0619L83.1376 68.5974L79.9339 68.0509ZM84.7379 59.217L88.2492 59.816C88.8301 59.9151 89.3671 59.9627 89.8601 59.9589C90.3731 59.9409 90.8279 59.8515 91.2247 59.6906C91.6385 59.5326 91.9714 59.2816 92.2235 58.9378C92.4955 58.5798 92.6911 58.1032 92.8102 57.5081C92.9327 56.7905 92.8751 56.2004 92.6375 55.7379C92.417 55.2782 92.0394 54.9149 91.5047 54.6478C90.987 54.3837 90.3438 54.186 89.5749 54.0549L85.7304 53.399L84.7379 59.217Z" fill="#000756"/>
<mask id="path-3-outside-1_108_4" maskUnits="userSpaceOnUse" x="5.35053" y="24.8176" width="38.4911" height="18.0513" fill="black">
<rect fill="white" x="5.35053" y="24.8176" width="38.4911" height="18.0513"/>
<path d="M11.2225 35.7169C10.3629 35.5703 9.64797 35.2657 9.07762 34.8032C8.51651 34.3342 8.12089 33.7513 7.89076 33.0547C7.66198 32.3502 7.61956 31.5761 7.76351 30.7322C7.9115 29.8648 8.21347 29.1413 8.66943 28.5617C9.13462 27.9756 9.71293 27.5589 10.4044 27.3116C11.0971 27.0565 11.8733 27.0023 12.7329 27.1489C13.5767 27.2928 14.2798 27.5954 14.8423 28.0566C15.4126 28.5191 15.8168 29.0993 16.0548 29.7973C16.3021 30.4887 16.3524 31.2642 16.2057 32.1238C16.0618 32.9676 15.7605 33.6872 15.3018 34.2825C14.8445 34.87 14.2649 35.2945 13.5629 35.5562C12.8701 35.8113 12.09 35.8649 11.2225 35.7169ZM11.5668 33.9131C12.103 34.0046 12.5576 33.9564 12.9305 33.7684C13.3034 33.5804 13.5971 33.31 13.8115 32.957C14.0259 32.604 14.1668 32.2304 14.234 31.8361C14.2838 31.5443 14.2902 31.2451 14.2532 30.9385C14.2242 30.6333 14.1398 30.343 14.0001 30.0676C13.8683 29.7935 13.6733 29.5573 13.4149 29.3591C13.1566 29.1608 12.8184 29.026 12.4005 28.9547C11.8721 28.8646 11.4215 28.9135 11.0485 29.1015C10.677 29.2815 10.38 29.5474 10.1577 29.899C9.94332 30.252 9.80046 30.6374 9.72916 31.0554C9.65786 31.4734 9.66878 31.8851 9.76192 32.2905C9.85507 32.6959 10.0471 33.0452 10.3379 33.3383C10.6367 33.6327 11.0463 33.8243 11.5668 33.9131ZM16.1991 36.4685L16.4554 34.9662L21.5245 30.5843L17.4435 29.8881L17.7462 28.1137L24.3468 29.2398L24.0905 30.742L19.0194 35.1358L23.1478 35.8401L22.8471 37.6026L16.1991 36.4685ZM27.7994 38.5449C26.9398 38.3982 26.2249 38.0937 25.6545 37.6312C25.0934 37.1621 24.6978 36.5793 24.4677 35.8827C24.2389 35.1782 24.1965 34.404 24.3404 33.5602C24.4884 32.6927 24.7904 31.9692 25.2463 31.3896C25.7115 30.8035 26.2898 30.3868 26.9813 30.1396C27.674 29.8845 28.4502 29.8302 29.3098 29.9769C30.1536 30.1208 30.8567 30.4234 31.4192 30.8845C31.9895 31.347 32.3937 31.9273 32.6317 32.6252C32.879 33.3166 32.9293 34.0921 32.7827 34.9517C32.6387 35.7955 32.3374 36.5151 31.8787 37.1105C31.4214 37.6979 30.8418 38.1225 30.1398 38.3842C29.447 38.6393 28.6669 38.6929 27.7994 38.5449ZM28.1437 36.7411C28.6799 36.8326 29.1345 36.7843 29.5074 36.5964C29.8804 36.4084 30.174 36.1379 30.3884 35.785C30.6028 35.432 30.7437 35.0584 30.8109 34.6641C30.8607 34.3723 30.8671 34.0731 30.8302 33.7665C30.8011 33.4613 30.7167 33.1709 30.577 32.8955C30.4452 32.6215 30.2502 32.3853 29.9918 32.187C29.7335 31.9888 29.3953 31.854 28.9774 31.7827C28.449 31.6925 27.9984 31.7415 27.6255 31.9294C27.2539 32.1095 26.9569 32.3753 26.7346 32.727C26.5202 33.0799 26.3774 33.4654 26.3061 33.8834C26.2348 34.3013 26.2457 34.713 26.3388 35.1185C26.432 35.5239 26.624 35.8732 26.9148 36.1663C27.2136 36.4607 27.6232 36.6523 28.1437 36.7411ZM33.2847 39.3833L34.7134 31.0083L36.5706 31.3251L39.3812 37.1852L40.2731 31.9567L42.2013 32.2857L40.7725 40.6607L38.9627 40.3519L36.0829 34.5409L35.201 39.7102L33.2847 39.3833Z"/>
</mask>
<path d="M11.2225 35.7169C10.3629 35.5703 9.64797 35.2657 9.07762 34.8032C8.51651 34.3342 8.12089 33.7513 7.89076 33.0547C7.66198 32.3502 7.61956 31.5761 7.76351 30.7322C7.9115 29.8648 8.21347 29.1413 8.66943 28.5617C9.13462 27.9756 9.71293 27.5589 10.4044 27.3116C11.0971 27.0565 11.8733 27.0023 12.7329 27.1489C13.5767 27.2928 14.2798 27.5954 14.8423 28.0566C15.4126 28.5191 15.8168 29.0993 16.0548 29.7973C16.3021 30.4887 16.3524 31.2642 16.2057 32.1238C16.0618 32.9676 15.7605 33.6872 15.3018 34.2825C14.8445 34.87 14.2649 35.2945 13.5629 35.5562C12.8701 35.8113 12.09 35.8649 11.2225 35.7169ZM11.5668 33.9131C12.103 34.0046 12.5576 33.9564 12.9305 33.7684C13.3034 33.5804 13.5971 33.31 13.8115 32.957C14.0259 32.604 14.1668 32.2304 14.234 31.8361C14.2838 31.5443 14.2902 31.2451 14.2532 30.9385C14.2242 30.6333 14.1398 30.343 14.0001 30.0676C13.8683 29.7935 13.6733 29.5573 13.4149 29.3591C13.1566 29.1608 12.8184 29.026 12.4005 28.9547C11.8721 28.8646 11.4215 28.9135 11.0485 29.1015C10.677 29.2815 10.38 29.5474 10.1577 29.899C9.94332 30.252 9.80046 30.6374 9.72916 31.0554C9.65786 31.4734 9.66878 31.8851 9.76192 32.2905C9.85507 32.6959 10.0471 33.0452 10.3379 33.3383C10.6367 33.6327 11.0463 33.8243 11.5668 33.9131ZM16.1991 36.4685L16.4554 34.9662L21.5245 30.5843L17.4435 29.8881L17.7462 28.1137L24.3468 29.2398L24.0905 30.742L19.0194 35.1358L23.1478 35.8401L22.8471 37.6026L16.1991 36.4685ZM27.7994 38.5449C26.9398 38.3982 26.2249 38.0937 25.6545 37.6312C25.0934 37.1621 24.6978 36.5793 24.4677 35.8827C24.2389 35.1782 24.1965 34.404 24.3404 33.5602C24.4884 32.6927 24.7904 31.9692 25.2463 31.3896C25.7115 30.8035 26.2898 30.3868 26.9813 30.1396C27.674 29.8845 28.4502 29.8302 29.3098 29.9769C30.1536 30.1208 30.8567 30.4234 31.4192 30.8845C31.9895 31.347 32.3937 31.9273 32.6317 32.6252C32.879 33.3166 32.9293 34.0921 32.7827 34.9517C32.6387 35.7955 32.3374 36.5151 31.8787 37.1105C31.4214 37.6979 30.8418 38.1225 30.1398 38.3842C29.447 38.6393 28.6669 38.6929 27.7994 38.5449ZM28.1437 36.7411C28.6799 36.8326 29.1345 36.7843 29.5074 36.5964C29.8804 36.4084 30.174 36.1379 30.3884 35.785C30.6028 35.432 30.7437 35.0584 30.8109 34.6641C30.8607 34.3723 30.8671 34.0731 30.8302 33.7665C30.8011 33.4613 30.7167 33.1709 30.577 32.8955C30.4452 32.6215 30.2502 32.3853 29.9918 32.187C29.7335 31.9888 29.3953 31.854 28.9774 31.7827C28.449 31.6925 27.9984 31.7415 27.6255 31.9294C27.2539 32.1095 26.9569 32.3753 26.7346 32.727C26.5202 33.0799 26.3774 33.4654 26.3061 33.8834C26.2348 34.3013 26.2457 34.713 26.3388 35.1185C26.432 35.5239 26.624 35.8732 26.9148 36.1663C27.2136 36.4607 27.6232 36.6523 28.1437 36.7411ZM33.2847 39.3833L34.7134 31.0083L36.5706 31.3251L39.3812 37.1852L40.2731 31.9567L42.2013 32.2857L40.7725 40.6607L38.9627 40.3519L36.0829 34.5409L35.201 39.7102L33.2847 39.3833Z" fill="white"/>
<path d="M9.07762 34.8032L8.43627 35.5705L8.44199 35.5752L8.44778 35.5799L9.07762 34.8032ZM7.89076 33.0547L6.93964 33.3636L6.94123 33.3684L7.89076 33.0547ZM8.66943 28.5617L7.88615 27.94L7.88349 27.9434L8.66943 28.5617ZM10.4044 27.3116L10.7411 28.2533L10.7499 28.25L10.4044 27.3116ZM14.8423 28.0566L14.2082 28.8299L14.2124 28.8333L14.8423 28.0566ZM16.0548 29.7973L15.1083 30.12L15.1107 30.127L15.1132 30.134L16.0548 29.7973ZM15.3018 34.2825L16.0909 34.8968L16.094 34.8928L15.3018 34.2825ZM13.5629 35.5562L13.9085 36.4946L13.9121 36.4932L13.5629 35.5562ZM13.8115 32.957L12.9568 32.4378L12.9568 32.4378L13.8115 32.957ZM14.2532 30.9385L13.2578 31.0334L13.2589 31.0458L13.2604 31.0583L14.2532 30.9385ZM14.0001 30.0676L13.0989 30.5009L13.1035 30.5105L13.1082 30.5199L14.0001 30.0676ZM13.4149 29.3591L14.0238 28.5658L14.0238 28.5658L13.4149 29.3591ZM11.0485 29.1015L11.4847 30.0013L11.4917 29.9979L11.4986 29.9944L11.0485 29.1015ZM10.1577 29.899L9.31248 29.3646L9.3077 29.3722L9.30306 29.3798L10.1577 29.899ZM10.3379 33.3383L9.62808 34.0427L9.63597 34.0505L10.3379 33.3383ZM11.2225 35.7169L11.3907 34.7312C10.6686 34.608 10.1214 34.3622 9.70747 34.0265L9.07762 34.8032L8.44778 35.5799C9.17452 36.1693 10.0573 36.5326 11.0543 36.7027L11.2225 35.7169ZM9.07762 34.8032L9.71897 34.036C9.30132 33.6868 9.01216 33.2613 8.84029 32.741L7.89076 33.0547L6.94123 33.3684C7.22962 34.2414 7.7317 34.9815 8.43627 35.5705L9.07762 34.8032ZM7.89076 33.0547L8.84187 32.7459C8.67032 32.2176 8.62827 31.6097 8.74927 30.9004L7.76351 30.7322L6.77775 30.5641C6.61085 31.5424 6.65364 32.4828 6.93965 33.3636L7.89076 33.0547ZM7.76351 30.7322L8.74927 30.9004C8.87463 30.1656 9.12071 29.6054 9.45537 29.18L8.66943 28.5617L7.88349 27.9434C7.30624 28.6771 6.94837 29.564 6.77775 30.5641L7.76351 30.7322ZM8.66943 28.5617L9.45271 29.1834C9.80416 28.7405 10.2289 28.4364 10.7411 28.2532L10.4044 27.3116L10.0676 26.37C9.19691 26.6814 8.46508 27.2106 7.88615 27.94L8.66943 28.5617ZM10.4044 27.3116L10.7499 28.25C11.251 28.0655 11.8462 28.0121 12.5647 28.1347L12.7329 27.1489L12.9011 26.1631C11.9004 25.9924 10.9432 26.0475 10.0588 26.3732L10.4044 27.3116ZM12.7329 27.1489L12.5647 28.1347C13.2679 28.2546 13.802 28.4968 14.2083 28.8299L14.8423 28.0566L15.4763 27.2832C14.7576 26.694 13.8855 26.3311 12.9011 26.1631L12.7329 27.1489ZM14.8423 28.0566L14.2124 28.8333C14.636 29.1767 14.9308 29.5993 15.1083 30.12L16.0548 29.7973L17.0013 29.4745C16.7028 28.5992 16.1893 27.8614 15.4721 27.2798L14.8423 28.0566ZM16.0548 29.7973L15.1132 30.134C15.2927 30.6358 15.3432 31.2335 15.22 31.9556L16.2057 32.1238L17.1915 32.2919C17.3616 31.2949 17.3115 30.3416 16.9964 29.4605L16.0548 29.7973ZM16.2057 32.1238L15.22 31.9556C15.0996 32.661 14.8555 33.2232 14.5097 33.6722L15.3018 34.2825L16.094 34.8928C16.6654 34.1511 17.0239 33.2741 17.1915 32.2919L16.2057 32.1238ZM15.3018 34.2825L14.5127 33.6682C14.1701 34.1085 13.7431 34.4218 13.2136 34.6192L13.5629 35.5562L13.9121 36.4932C14.7867 36.1672 15.519 35.6315 16.0909 34.8968L15.3018 34.2825ZM13.5629 35.5562L13.2173 34.6178C12.7176 34.8018 12.1189 34.8554 11.3907 34.7312L11.2225 35.7169L11.0543 36.7027C12.0611 36.8744 13.0226 36.8208 13.9085 36.4946L13.5629 35.5562ZM11.5668 33.9131L11.3986 34.8989C12.0818 35.0154 12.7662 34.9711 13.3806 34.6614L12.9305 33.7684L12.4804 32.8754C12.349 32.9417 12.1242 32.9938 11.7349 32.9274L11.5668 33.9131ZM12.9305 33.7684L13.3806 34.6614C13.9187 34.3901 14.3534 33.9911 14.6662 33.4762L13.8115 32.957L12.9568 32.4378C12.8408 32.6289 12.6881 32.7707 12.4804 32.8754L12.9305 33.7684ZM13.8115 32.957L14.6662 33.4762C14.9439 33.0191 15.1306 32.5268 15.2198 32.0043L14.234 31.8361L13.2483 31.6679C13.2029 31.934 13.108 32.189 12.9568 32.4378L13.8115 32.957ZM14.234 31.8361L15.2198 32.0043C15.2865 31.6133 15.2941 31.217 15.2461 30.8188L14.2532 30.9385L13.2604 31.0583C13.2864 31.2732 13.2811 31.4753 13.2483 31.6679L14.234 31.8361ZM14.2532 30.9385L15.2487 30.8437C15.2077 30.413 15.0878 30.0015 14.892 29.6153L14.0001 30.0676L13.1082 30.5199C13.1917 30.6845 13.2406 30.8536 13.2578 31.0334L14.2532 30.9385ZM14.0001 30.0676L14.9013 29.6342C14.6969 29.209 14.3974 28.8525 14.0238 28.5658L13.4149 29.3591L12.8061 30.1524C12.9491 30.2621 13.0398 30.378 13.0989 30.5009L14.0001 30.0676ZM13.4149 29.3591L14.0238 28.5658C13.6033 28.2431 13.1001 28.0596 12.5686 27.969L12.4005 28.9547L12.2323 29.9405C12.5368 29.9924 12.7099 30.0785 12.8061 30.1524L13.4149 29.3591ZM12.4005 28.9547L12.5686 27.969C11.8896 27.8531 11.2102 27.9001 10.5984 28.2085L11.0485 29.1015L11.4986 29.9944C11.6327 29.9269 11.8547 29.876 12.2323 29.9405L12.4005 28.9547ZM11.0485 29.1015L10.6124 28.2016C10.0717 28.4636 9.63362 28.8567 9.31248 29.3646L10.1577 29.899L11.003 30.4334C11.1264 30.2381 11.2822 30.0995 11.4847 30.0013L11.0485 29.1015ZM10.1577 29.899L9.30306 29.3798C9.02147 29.8434 8.83532 30.3484 8.7434 30.8872L9.72916 31.0554L10.7149 31.2236C10.7656 30.9264 10.8652 30.6606 11.0124 30.4182L10.1577 29.899ZM9.72916 31.0554L8.7434 30.8872C8.65033 31.4328 8.66403 31.9778 8.78731 32.5144L9.76192 32.2905L10.7365 32.0666C10.6735 31.7923 10.6654 31.514 10.7149 31.2236L9.72916 31.0554ZM9.76192 32.2905L8.78731 32.5144C8.92188 33.1001 9.20489 33.6162 9.62812 34.0427L10.3379 33.3383L11.0477 32.6339C10.8892 32.4742 10.7883 32.2918 10.7365 32.0666L9.76192 32.2905ZM10.3379 33.3383L9.63597 34.0505C10.1142 34.5219 10.7288 34.7846 11.3986 34.8989L11.5668 33.9131L11.7349 32.9274C11.3637 32.864 11.1591 32.7436 11.0399 32.6261L10.3379 33.3383ZM16.1991 36.4685L15.2134 36.3004L15.0452 37.2861L16.031 37.4543L16.1991 36.4685ZM16.4554 34.9662L15.8014 34.2097L15.53 34.4444L15.4696 34.7981L16.4554 34.9662ZM21.5245 30.5843L22.1785 31.3408L23.7817 29.9549L21.6927 29.5985L21.5245 30.5843ZM17.4435 29.8881L16.4577 29.7199L16.2895 30.7057L17.2753 30.8738L17.4435 29.8881ZM17.7462 28.1137L17.9143 27.1279L16.9286 26.9598L16.7604 27.9455L17.7462 28.1137ZM24.3468 29.2398L25.3326 29.4079L25.5007 28.4222L24.515 28.254L24.3468 29.2398ZM24.0905 30.742L24.7453 31.4978L25.016 31.2633L25.0763 30.9102L24.0905 30.742ZM19.0194 35.1358L18.3646 34.3801L16.7653 35.7657L18.8512 36.1216L19.0194 35.1358ZM23.1478 35.8401L24.1335 36.0083L24.3017 35.0225L23.3159 34.8544L23.1478 35.8401ZM22.8471 37.6026L22.6789 38.5884L23.6647 38.7566L23.8328 37.7708L22.8471 37.6026ZM16.1991 36.4685L17.1849 36.6367L17.4412 35.1344L16.4554 34.9662L15.4696 34.7981L15.2134 36.3004L16.1991 36.4685ZM16.4554 34.9662L17.1094 35.7228L22.1785 31.3408L21.5245 30.5843L20.8705 29.8278L15.8014 34.2097L16.4554 34.9662ZM21.5245 30.5843L21.6927 29.5985L17.6116 28.9023L17.4435 29.8881L17.2753 30.8738L21.3563 31.57L21.5245 30.5843ZM17.4435 29.8881L18.4292 30.0562L18.7319 28.2819L17.7462 28.1137L16.7604 27.9455L16.4577 29.7199L17.4435 29.8881ZM17.7462 28.1137L17.578 29.0995L24.1786 30.2255L24.3468 29.2398L24.515 28.254L17.9143 27.1279L17.7462 28.1137ZM24.3468 29.2398L23.361 29.0716L23.1048 30.5739L24.0905 30.742L25.0763 30.9102L25.3326 29.4079L24.3468 29.2398ZM24.0905 30.742L23.4357 29.9863L18.3646 34.3801L19.0194 35.1358L19.6742 35.8916L24.7453 31.4978L24.0905 30.742ZM19.0194 35.1358L18.8512 36.1216L22.9796 36.8259L23.1478 35.8401L23.3159 34.8544L19.1876 34.1501L19.0194 35.1358ZM23.1478 35.8401L22.162 35.6719L21.8613 37.4345L22.8471 37.6026L23.8328 37.7708L24.1335 36.0083L23.1478 35.8401ZM22.8471 37.6026L23.0152 36.6169L16.3673 35.4828L16.1991 36.4685L16.031 37.4543L22.6789 38.5884L22.8471 37.6026ZM25.6545 37.6312L25.0132 38.3984L25.0189 38.4032L25.0247 38.4079L25.6545 37.6312ZM24.4677 35.8827L23.5166 36.1916L23.5181 36.1964L24.4677 35.8827ZM25.2463 31.3896L24.4631 30.768L24.4604 30.7713L25.2463 31.3896ZM26.9813 30.1396L27.318 31.0812L27.3269 31.078L26.9813 30.1396ZM31.4192 30.8845L30.7852 31.6578L30.7894 31.6612L31.4192 30.8845ZM32.6317 32.6252L31.6853 32.948L31.6876 32.955L31.6901 32.9619L32.6317 32.6252ZM31.8787 37.1105L32.6679 37.7247L32.6709 37.7208L31.8787 37.1105ZM30.1398 38.3842L30.4854 39.3226L30.4891 39.3212L30.1398 38.3842ZM30.3884 35.785L29.5338 35.2658L29.5338 35.2658L30.3884 35.785ZM30.8302 33.7665L29.8347 33.8614L29.8359 33.8738L29.8374 33.8862L30.8302 33.7665ZM30.577 32.8955L29.6758 33.3289L29.6804 33.3384L29.6852 33.3478L30.577 32.8955ZM29.9918 32.187L30.6007 31.3937L30.6007 31.3937L29.9918 32.187ZM27.6255 31.9294L28.0616 32.8293L28.0686 32.8259L28.0755 32.8224L27.6255 31.9294ZM26.7346 32.727L25.8894 32.1926L25.8846 32.2002L25.88 32.2078L26.7346 32.727ZM26.9148 36.1663L26.205 36.8707L26.2129 36.8785L26.9148 36.1663ZM27.7994 38.5449L27.9676 37.5591C27.2455 37.4359 26.6983 37.1901 26.2844 36.8545L25.6545 37.6312L25.0247 38.4079C25.7514 38.9972 26.6342 39.3606 27.6313 39.5306L27.7994 38.5449ZM25.6545 37.6312L26.2959 36.8639C25.8782 36.5148 25.5891 36.0893 25.4172 35.569L24.4677 35.8827L23.5181 36.1964C23.8065 37.0693 24.3086 37.8095 25.0132 38.3984L25.6545 37.6312ZM24.4677 35.8827L25.4188 35.5738C25.2472 35.0456 25.2052 34.4376 25.3262 33.7284L24.3404 33.5602L23.3547 33.392C23.1878 34.3704 23.2306 35.3108 23.5166 36.1915L24.4677 35.8827ZM24.3404 33.5602L25.3262 33.7284C25.4515 32.9936 25.6976 32.4333 26.0323 32.0079L25.2463 31.3896L24.4604 30.7713C23.8832 31.5051 23.5253 32.3919 23.3547 33.392L24.3404 33.5602ZM25.2463 31.3896L26.0296 32.0113C26.3811 31.5685 26.8059 31.2643 27.318 31.0812L26.9813 30.1396L26.6446 29.198C25.7738 29.5094 25.042 30.0386 24.4631 30.768L25.2463 31.3896ZM26.9813 30.1396L27.3269 31.078C27.8279 30.8934 28.4231 30.84 29.1416 30.9626L29.3098 29.9769L29.478 28.9911C28.4774 28.8204 27.5201 28.8755 26.6357 29.2012L26.9813 30.1396ZM29.3098 29.9769L29.1416 30.9626C29.8448 31.0826 30.3789 31.3248 30.7852 31.6578L31.4192 30.8845L32.0532 30.1112C31.3345 29.522 30.4624 29.159 29.478 28.9911L29.3098 29.9769ZM31.4192 30.8845L30.7894 31.6612C31.2129 32.0047 31.5077 32.4273 31.6853 32.948L32.6317 32.6252L33.5782 32.3025C33.2798 31.4272 32.7662 30.6894 32.0491 30.1078L31.4192 30.8845ZM32.6317 32.6252L31.6901 32.9619C31.8696 33.4638 31.9201 34.0615 31.7969 34.7836L32.7827 34.9517L33.7684 35.1199C33.9385 34.1228 33.8884 33.1695 33.5734 32.2885L32.6317 32.6252ZM32.7827 34.9517L31.7969 34.7836C31.6765 35.489 31.4325 36.0512 31.0866 36.5002L31.8787 37.1105L32.6709 37.7208C33.2423 36.979 33.6009 36.1021 33.7684 35.1199L32.7827 34.9517ZM31.8787 37.1105L31.0896 36.4962C30.747 36.9364 30.32 37.2498 29.7905 37.4472L30.1398 38.3842L30.4891 39.3212C31.3636 38.9952 32.0959 38.4594 32.6678 37.7247L31.8787 37.1105ZM30.1398 38.3842L29.7942 37.4458C29.2945 37.6298 28.6958 37.6834 27.9676 37.5591L27.7994 38.5449L27.6313 39.5306C28.638 39.7024 29.5995 39.6488 30.4854 39.3226L30.1398 38.3842ZM28.1437 36.7411L27.9755 37.7268C28.6587 37.8434 29.3431 37.799 29.9575 37.4893L29.5074 36.5964L29.0573 35.7034C28.9259 35.7696 28.7011 35.8217 28.3118 35.7553L28.1437 36.7411ZM29.5074 36.5964L29.9575 37.4893C30.4957 37.2181 30.9303 36.819 31.2431 36.3041L30.3884 35.785L29.5338 35.2658C29.4177 35.4569 29.265 35.5987 29.0573 35.7034L29.5074 36.5964ZM30.3884 35.785L31.2431 36.3041C31.5208 35.847 31.7076 35.3548 31.7967 34.8322L30.8109 34.6641L29.8252 34.4959C29.7798 34.7619 29.6849 35.017 29.5338 35.2658L30.3884 35.785ZM30.8109 34.6641L31.7967 34.8322C31.8634 34.4413 31.871 34.045 31.823 33.6468L30.8302 33.7665L29.8374 33.8862C29.8633 34.1012 29.858 34.3033 29.8252 34.4959L30.8109 34.6641ZM30.8302 33.7665L31.8257 33.6717C31.7846 33.2409 31.6648 32.8294 31.4689 32.4432L30.577 32.8955L29.6852 33.3478C29.7686 33.5124 29.8175 33.6816 29.8347 33.8614L30.8302 33.7665ZM30.577 32.8955L31.4782 32.4622C31.2738 32.037 30.9743 31.6805 30.6007 31.3937L29.9918 32.187L29.383 32.9803C29.526 33.0901 29.6167 33.206 29.6758 33.3289L30.577 32.8955ZM29.9918 32.187L30.6007 31.3937C30.1802 31.071 29.677 30.8876 29.1456 30.7969L28.9774 31.7827L28.8092 32.7684C29.1137 32.8204 29.2868 32.9065 29.383 32.9803L29.9918 32.187ZM28.9774 31.7827L29.1456 30.7969C28.4665 30.6811 27.7872 30.7281 27.1754 31.0364L27.6255 31.9294L28.0755 32.8224C28.2096 32.7548 28.4316 32.704 28.8092 32.7684L28.9774 31.7827ZM27.6255 31.9294L27.1893 31.0295C26.6487 31.2916 26.2105 31.6846 25.8894 32.1926L26.7346 32.727L27.5799 33.2613C27.7034 33.0661 27.8591 32.9274 28.0616 32.8293L27.6255 31.9294ZM26.7346 32.727L25.88 32.2078C25.5984 32.6714 25.4122 33.1764 25.3203 33.7152L26.3061 33.8834L27.2918 34.0515C27.3425 33.7544 27.4421 33.4885 27.5893 33.2461L26.7346 32.727ZM26.3061 33.8834L25.3203 33.7152C25.2272 34.2607 25.2409 34.8058 25.3642 35.3424L26.3388 35.1185L27.3135 34.8946C27.2504 34.6203 27.2423 34.3419 27.2918 34.0515L26.3061 33.8834ZM26.3388 35.1185L25.3642 35.3424C25.4988 35.9281 25.7818 36.4442 26.205 36.8707L26.9148 36.1663L27.6246 35.4619C27.4662 35.3022 27.3652 35.1197 27.3135 34.8946L26.3388 35.1185ZM26.9148 36.1663L26.2129 36.8785C26.6912 37.3498 27.3057 37.6126 27.9755 37.7268L28.1437 36.7411L28.3118 35.7553C27.9407 35.692 27.736 35.5715 27.6168 35.454L26.9148 36.1663ZM33.2847 39.3833L32.2989 39.2151L32.1308 40.2009L33.1165 40.369L33.2847 39.3833ZM34.7134 31.0083L34.8816 30.0225L33.8958 29.8543L33.7277 30.8401L34.7134 31.0083ZM36.5706 31.3251L37.4723 30.8926L37.2486 30.4263L36.7388 30.3393L36.5706 31.3251ZM39.3812 37.1852L38.4795 37.6176L39.8384 40.4511L40.3669 37.3534L39.3812 37.1852ZM40.2731 31.9567L40.4413 30.971L39.4555 30.8028L39.2874 31.7886L40.2731 31.9567ZM42.2013 32.2857L43.187 32.4538L43.3552 31.4681L42.3694 31.2999L42.2013 32.2857ZM40.7725 40.6607L40.6043 41.6464L41.5901 41.8146L41.7583 40.8288L40.7725 40.6607ZM38.9627 40.3519L38.0666 40.7959L38.2927 41.2521L38.7945 41.3377L38.9627 40.3519ZM36.0829 34.5409L36.9789 34.0968L35.614 31.3427L35.0971 34.3727L36.0829 34.5409ZM35.201 39.7102L35.0328 40.6959L36.0186 40.8641L36.1868 39.8783L35.201 39.7102ZM33.2847 39.3833L34.2704 39.5514L35.6992 31.1764L34.7134 31.0083L33.7277 30.8401L32.2989 39.2151L33.2847 39.3833ZM34.7134 31.0083L34.5453 31.994L36.4024 32.3108L36.5706 31.3251L36.7388 30.3393L34.8816 30.0225L34.7134 31.0083ZM36.5706 31.3251L35.6689 31.7575L38.4795 37.6176L39.3812 37.1852L40.2828 36.7527L37.4723 30.8926L36.5706 31.3251ZM39.3812 37.1852L40.3669 37.3534L41.2589 32.1249L40.2731 31.9567L39.2874 31.7886L38.3954 37.017L39.3812 37.1852ZM40.2731 31.9567L40.1049 32.9425L42.0331 33.2714L42.2013 32.2857L42.3694 31.2999L40.4413 30.971L40.2731 31.9567ZM42.2013 32.2857L41.2155 32.1175L39.7868 40.4925L40.7725 40.6607L41.7583 40.8288L43.187 32.4538L42.2013 32.2857ZM40.7725 40.6607L40.9407 39.6749L39.1308 39.3661L38.9627 40.3519L38.7945 41.3377L40.6043 41.6464L40.7725 40.6607ZM38.9627 40.3519L39.8587 39.9079L36.9789 34.0968L36.0829 34.5409L35.1869 34.9849L38.0666 40.7959L38.9627 40.3519ZM36.0829 34.5409L35.0971 34.3727L34.2152 39.542L35.201 39.7102L36.1868 39.8783L37.0686 34.709L36.0829 34.5409ZM35.201 39.7102L35.3692 38.7244L33.4529 38.3975L33.2847 39.3833L33.1165 40.369L35.0328 40.6959L35.201 39.7102Z" fill="#B0FF12" mask="url(#path-3-outside-1_108_4)"/>
<path d="M3.37014 54.9894L6.46138 36.8692L19.1225 39.0291L18.624 41.9509L9.16665 40.3375L8.24409 45.7454L16.3431 47.127L15.8446 50.0488L7.74564 48.6672L6.57385 55.5359L3.37014 54.9894ZM18.788 57.6196L21.8793 39.4994L25.083 40.0459L21.9917 58.1662L18.788 57.6196ZM26.0464 58.8579L29.1377 40.7377L32.5721 41.3236L39.06 56.0138L41.3118 42.8145L44.5155 43.3611L41.4243 61.4813L38.0668 60.9085L31.4888 46.282L29.2501 59.4044L26.0464 58.8579ZM45.469 62.1713L48.5602 44.0511L55.2496 45.1923C57.1462 45.5158 58.6896 46.1572 59.8799 47.1163C61.0732 48.0584 61.8949 49.2712 62.3452 50.7547C62.8155 52.2241 62.8888 53.907 62.5653 55.8036C62.2475 57.6661 61.6318 59.2139 60.7181 60.4471C59.8214 61.6833 58.6526 62.5565 57.2116 63.0668C55.7735 63.5599 54.0976 63.6433 52.1839 63.3168L45.469 62.1713ZM49.1711 59.796L52.6055 60.3819C53.9553 60.6122 55.084 60.541 55.9916 60.1683C56.9192 59.7815 57.6482 59.1673 58.1786 58.3259C58.729 57.4702 59.1077 56.4359 59.3147 55.2227C59.5158 54.0438 59.5071 52.9609 59.2886 51.9741C59.0701 50.9873 58.5874 50.1576 57.8405 49.4851C57.1137 48.7984 56.0753 48.3399 54.7255 48.1097L51.2655 47.5194L49.1711 59.796ZM64.0906 65.3481L67.1818 47.2279L79.971 49.4096L79.4726 52.3314L69.8871 50.6962L69.0738 55.4633L77.4035 56.8843L76.9138 59.7548L68.5841 58.3338L67.7927 62.9728L77.3782 64.6081L76.8798 67.5299L64.0906 65.3481ZM79.9339 68.0509L83.0252 49.9307L90.1759 51.1506C91.0985 51.308 91.9539 51.5506 92.742 51.8785C93.533 52.1892 94.2067 52.6207 94.7631 53.1728C95.3224 53.7078 95.7174 54.3818 95.948 55.1948C96.1785 56.0078 96.1991 56.9697 96.0096 58.0803C95.8522 59.003 95.5514 59.7869 95.1073 60.432C94.6631 61.0772 94.1097 61.5894 93.4472 61.9688C92.8017 62.351 92.0641 62.6032 91.2344 62.7254L94.0046 70.4513L90.4165 69.8392L87.9689 62.6958L84.2526 62.0619L83.1376 68.5974L79.9339 68.0509ZM84.7379 59.217L88.2492 59.816C88.8301 59.9151 89.3671 59.9627 89.8601 59.9589C90.3731 59.9409 90.8279 59.8515 91.2247 59.6906C91.6385 59.5326 91.9714 59.2816 92.2235 58.9378C92.4955 58.5798 92.6911 58.1032 92.8102 57.5081C92.9327 56.7905 92.8751 56.2004 92.6375 55.7379C92.417 55.2782 92.0394 54.9149 91.5047 54.6478C90.987 54.3837 90.3438 54.186 89.5749 54.0549L85.7304 53.399L84.7379 59.217Z" fill="#000756"/>
<mask id="path-6-outside-2_108_4" maskUnits="userSpaceOnUse" x="5.35053" y="24.8176" width="38.4911" height="18.0513" fill="black">
<rect fill="white" x="5.35053" y="24.8176" width="38.4911" height="18.0513"/>
<path d="M11.2225 35.7169C10.3629 35.5703 9.64797 35.2657 9.07762 34.8032C8.51651 34.3342 8.12089 33.7513 7.89076 33.0547C7.66198 32.3502 7.61956 31.5761 7.76351 30.7322C7.9115 29.8648 8.21347 29.1413 8.66943 28.5617C9.13462 27.9756 9.71293 27.5589 10.4044 27.3116C11.0971 27.0565 11.8733 27.0023 12.7329 27.1489C13.5767 27.2928 14.2798 27.5954 14.8423 28.0566C15.4126 28.5191 15.8168 29.0993 16.0548 29.7973C16.3021 30.4887 16.3524 31.2642 16.2057 32.1238C16.0618 32.9676 15.7605 33.6872 15.3018 34.2825C14.8445 34.87 14.2649 35.2945 13.5629 35.5562C12.8701 35.8113 12.09 35.8649 11.2225 35.7169ZM11.5668 33.9131C12.103 34.0046 12.5576 33.9564 12.9305 33.7684C13.3034 33.5804 13.5971 33.31 13.8115 32.957C14.0259 32.604 14.1668 32.2304 14.234 31.8361C14.2838 31.5443 14.2902 31.2451 14.2532 30.9385C14.2242 30.6333 14.1398 30.343 14.0001 30.0676C13.8683 29.7935 13.6733 29.5573 13.4149 29.3591C13.1566 29.1608 12.8184 29.026 12.4005 28.9547C11.8721 28.8646 11.4215 28.9135 11.0485 29.1015C10.677 29.2815 10.38 29.5474 10.1577 29.899C9.94332 30.252 9.80046 30.6374 9.72916 31.0554C9.65786 31.4734 9.66878 31.8851 9.76192 32.2905C9.85507 32.6959 10.0471 33.0452 10.3379 33.3383C10.6367 33.6327 11.0463 33.8243 11.5668 33.9131ZM16.1991 36.4685L16.4554 34.9662L21.5245 30.5843L17.4435 29.8881L17.7462 28.1137L24.3468 29.2398L24.0905 30.742L19.0194 35.1358L23.1478 35.8401L22.8471 37.6026L16.1991 36.4685ZM27.7994 38.5449C26.9398 38.3982 26.2249 38.0937 25.6545 37.6312C25.0934 37.1621 24.6978 36.5793 24.4677 35.8827C24.2389 35.1782 24.1965 34.404 24.3404 33.5602C24.4884 32.6927 24.7904 31.9692 25.2463 31.3896C25.7115 30.8035 26.2898 30.3868 26.9813 30.1396C27.674 29.8845 28.4502 29.8302 29.3098 29.9769C30.1536 30.1208 30.8567 30.4234 31.4192 30.8845C31.9895 31.347 32.3937 31.9273 32.6317 32.6252C32.879 33.3166 32.9293 34.0921 32.7827 34.9517C32.6387 35.7955 32.3374 36.5151 31.8787 37.1105C31.4214 37.6979 30.8418 38.1225 30.1398 38.3842C29.447 38.6393 28.6669 38.6929 27.7994 38.5449ZM28.1437 36.7411C28.6799 36.8326 29.1345 36.7843 29.5074 36.5964C29.8804 36.4084 30.174 36.1379 30.3884 35.785C30.6028 35.432 30.7437 35.0584 30.8109 34.6641C30.8607 34.3723 30.8671 34.0731 30.8302 33.7665C30.8011 33.4613 30.7167 33.1709 30.577 32.8955C30.4452 32.6215 30.2502 32.3853 29.9918 32.187C29.7335 31.9888 29.3953 31.854 28.9774 31.7827C28.449 31.6925 27.9984 31.7415 27.6255 31.9294C27.2539 32.1095 26.9569 32.3753 26.7346 32.727C26.5202 33.0799 26.3774 33.4654 26.3061 33.8834C26.2348 34.3013 26.2457 34.713 26.3388 35.1185C26.432 35.5239 26.624 35.8732 26.9148 36.1663C27.2136 36.4607 27.6232 36.6523 28.1437 36.7411ZM33.2847 39.3833L34.7134 31.0083L36.5706 31.3251L39.3812 37.1852L40.2731 31.9567L42.2013 32.2857L40.7725 40.6607L38.9627 40.3519L36.0829 34.5409L35.201 39.7102L33.2847 39.3833Z"/>
</mask>
<path d="M11.2225 35.7169C10.3629 35.5703 9.64797 35.2657 9.07762 34.8032C8.51651 34.3342 8.12089 33.7513 7.89076 33.0547C7.66198 32.3502 7.61956 31.5761 7.76351 30.7322C7.9115 29.8648 8.21347 29.1413 8.66943 28.5617C9.13462 27.9756 9.71293 27.5589 10.4044 27.3116C11.0971 27.0565 11.8733 27.0023 12.7329 27.1489C13.5767 27.2928 14.2798 27.5954 14.8423 28.0566C15.4126 28.5191 15.8168 29.0993 16.0548 29.7973C16.3021 30.4887 16.3524 31.2642 16.2057 32.1238C16.0618 32.9676 15.7605 33.6872 15.3018 34.2825C14.8445 34.87 14.2649 35.2945 13.5629 35.5562C12.8701 35.8113 12.09 35.8649 11.2225 35.7169ZM11.5668 33.9131C12.103 34.0046 12.5576 33.9564 12.9305 33.7684C13.3034 33.5804 13.5971 33.31 13.8115 32.957C14.0259 32.604 14.1668 32.2304 14.234 31.8361C14.2838 31.5443 14.2902 31.2451 14.2532 30.9385C14.2242 30.6333 14.1398 30.343 14.0001 30.0676C13.8683 29.7935 13.6733 29.5573 13.4149 29.3591C13.1566 29.1608 12.8184 29.026 12.4005 28.9547C11.8721 28.8646 11.4215 28.9135 11.0485 29.1015C10.677 29.2815 10.38 29.5474 10.1577 29.899C9.94332 30.252 9.80046 30.6374 9.72916 31.0554C9.65786 31.4734 9.66878 31.8851 9.76192 32.2905C9.85507 32.6959 10.0471 33.0452 10.3379 33.3383C10.6367 33.6327 11.0463 33.8243 11.5668 33.9131ZM16.1991 36.4685L16.4554 34.9662L21.5245 30.5843L17.4435 29.8881L17.7462 28.1137L24.3468 29.2398L24.0905 30.742L19.0194 35.1358L23.1478 35.8401L22.8471 37.6026L16.1991 36.4685ZM27.7994 38.5449C26.9398 38.3982 26.2249 38.0937 25.6545 37.6312C25.0934 37.1621 24.6978 36.5793 24.4677 35.8827C24.2389 35.1782 24.1965 34.404 24.3404 33.5602C24.4884 32.6927 24.7904 31.9692 25.2463 31.3896C25.7115 30.8035 26.2898 30.3868 26.9813 30.1396C27.674 29.8845 28.4502 29.8302 29.3098 29.9769C30.1536 30.1208 30.8567 30.4234 31.4192 30.8845C31.9895 31.347 32.3937 31.9273 32.6317 32.6252C32.879 33.3166 32.9293 34.0921 32.7827 34.9517C32.6387 35.7955 32.3374 36.5151 31.8787 37.1105C31.4214 37.6979 30.8418 38.1225 30.1398 38.3842C29.447 38.6393 28.6669 38.6929 27.7994 38.5449ZM28.1437 36.7411C28.6799 36.8326 29.1345 36.7843 29.5074 36.5964C29.8804 36.4084 30.174 36.1379 30.3884 35.785C30.6028 35.432 30.7437 35.0584 30.8109 34.6641C30.8607 34.3723 30.8671 34.0731 30.8302 33.7665C30.8011 33.4613 30.7167 33.1709 30.577 32.8955C30.4452 32.6215 30.2502 32.3853 29.9918 32.187C29.7335 31.9888 29.3953 31.854 28.9774 31.7827C28.449 31.6925 27.9984 31.7415 27.6255 31.9294C27.2539 32.1095 26.9569 32.3753 26.7346 32.727C26.5202 33.0799 26.3774 33.4654 26.3061 33.8834C26.2348 34.3013 26.2457 34.713 26.3388 35.1185C26.432 35.5239 26.624 35.8732 26.9148 36.1663C27.2136 36.4607 27.6232 36.6523 28.1437 36.7411ZM33.2847 39.3833L34.7134 31.0083L36.5706 31.3251L39.3812 37.1852L40.2731 31.9567L42.2013 32.2857L40.7725 40.6607L38.9627 40.3519L36.0829 34.5409L35.201 39.7102L33.2847 39.3833Z" fill="white"/>
<path d="M9.07762 34.8032L8.43627 35.5705L8.44199 35.5752L8.44778 35.5799L9.07762 34.8032ZM7.89076 33.0547L6.93964 33.3636L6.94123 33.3684L7.89076 33.0547ZM8.66943 28.5617L7.88615 27.94L7.88349 27.9434L8.66943 28.5617ZM10.4044 27.3116L10.7411 28.2533L10.7499 28.25L10.4044 27.3116ZM14.8423 28.0566L14.2082 28.8299L14.2124 28.8333L14.8423 28.0566ZM16.0548 29.7973L15.1083 30.12L15.1107 30.127L15.1132 30.134L16.0548 29.7973ZM15.3018 34.2825L16.0909 34.8968L16.094 34.8928L15.3018 34.2825ZM13.5629 35.5562L13.9085 36.4946L13.9121 36.4932L13.5629 35.5562ZM13.8115 32.957L12.9568 32.4378L12.9568 32.4378L13.8115 32.957ZM14.2532 30.9385L13.2578 31.0334L13.2589 31.0458L13.2604 31.0583L14.2532 30.9385ZM14.0001 30.0676L13.0989 30.5009L13.1035 30.5105L13.1082 30.5199L14.0001 30.0676ZM13.4149 29.3591L14.0238 28.5658L14.0238 28.5658L13.4149 29.3591ZM11.0485 29.1015L11.4847 30.0013L11.4917 29.9979L11.4986 29.9944L11.0485 29.1015ZM10.1577 29.899L9.31248 29.3646L9.3077 29.3722L9.30306 29.3798L10.1577 29.899ZM10.3379 33.3383L9.62808 34.0427L9.63597 34.0505L10.3379 33.3383ZM11.2225 35.7169L11.3907 34.7312C10.6686 34.608 10.1214 34.3622 9.70747 34.0265L9.07762 34.8032L8.44778 35.5799C9.17452 36.1693 10.0573 36.5326 11.0543 36.7027L11.2225 35.7169ZM9.07762 34.8032L9.71897 34.036C9.30132 33.6868 9.01216 33.2613 8.84029 32.741L7.89076 33.0547L6.94123 33.3684C7.22962 34.2414 7.7317 34.9815 8.43627 35.5705L9.07762 34.8032ZM7.89076 33.0547L8.84187 32.7459C8.67032 32.2176 8.62827 31.6097 8.74927 30.9004L7.76351 30.7322L6.77775 30.5641C6.61085 31.5424 6.65364 32.4828 6.93965 33.3636L7.89076 33.0547ZM7.76351 30.7322L8.74927 30.9004C8.87463 30.1656 9.12071 29.6054 9.45537 29.18L8.66943 28.5617L7.88349 27.9434C7.30624 28.6771 6.94837 29.564 6.77775 30.5641L7.76351 30.7322ZM8.66943 28.5617L9.45271 29.1834C9.80416 28.7405 10.2289 28.4364 10.7411 28.2532L10.4044 27.3116L10.0676 26.37C9.19691 26.6814 8.46508 27.2106 7.88615 27.94L8.66943 28.5617ZM10.4044 27.3116L10.7499 28.25C11.251 28.0655 11.8462 28.0121 12.5647 28.1347L12.7329 27.1489L12.9011 26.1631C11.9004 25.9924 10.9432 26.0475 10.0588 26.3732L10.4044 27.3116ZM12.7329 27.1489L12.5647 28.1347C13.2679 28.2546 13.802 28.4968 14.2083 28.8299L14.8423 28.0566L15.4763 27.2832C14.7576 26.694 13.8855 26.3311 12.9011 26.1631L12.7329 27.1489ZM14.8423 28.0566L14.2124 28.8333C14.636 29.1767 14.9308 29.5993 15.1083 30.12L16.0548 29.7973L17.0013 29.4745C16.7028 28.5992 16.1893 27.8614 15.4721 27.2798L14.8423 28.0566ZM16.0548 29.7973L15.1132 30.134C15.2927 30.6358 15.3432 31.2335 15.22 31.9556L16.2057 32.1238L17.1915 32.2919C17.3616 31.2949 17.3115 30.3416 16.9964 29.4605L16.0548 29.7973ZM16.2057 32.1238L15.22 31.9556C15.0996 32.661 14.8555 33.2232 14.5097 33.6722L15.3018 34.2825L16.094 34.8928C16.6654 34.1511 17.0239 33.2741 17.1915 32.2919L16.2057 32.1238ZM15.3018 34.2825L14.5127 33.6682C14.1701 34.1085 13.7431 34.4218 13.2136 34.6192L13.5629 35.5562L13.9121 36.4932C14.7867 36.1672 15.519 35.6315 16.0909 34.8968L15.3018 34.2825ZM13.5629 35.5562L13.2173 34.6178C12.7176 34.8018 12.1189 34.8554 11.3907 34.7312L11.2225 35.7169L11.0543 36.7027C12.0611 36.8744 13.0226 36.8208 13.9085 36.4946L13.5629 35.5562ZM11.5668 33.9131L11.3986 34.8989C12.0818 35.0154 12.7662 34.9711 13.3806 34.6614L12.9305 33.7684L12.4804 32.8754C12.349 32.9417 12.1242 32.9938 11.7349 32.9274L11.5668 33.9131ZM12.9305 33.7684L13.3806 34.6614C13.9187 34.3901 14.3534 33.9911 14.6662 33.4762L13.8115 32.957L12.9568 32.4378C12.8408 32.6289 12.6881 32.7707 12.4804 32.8754L12.9305 33.7684ZM13.8115 32.957L14.6662 33.4762C14.9439 33.0191 15.1306 32.5268 15.2198 32.0043L14.234 31.8361L13.2483 31.6679C13.2029 31.934 13.108 32.189 12.9568 32.4378L13.8115 32.957ZM14.234 31.8361L15.2198 32.0043C15.2865 31.6133 15.2941 31.217 15.2461 30.8188L14.2532 30.9385L13.2604 31.0583C13.2864 31.2732 13.2811 31.4753 13.2483 31.6679L14.234 31.8361ZM14.2532 30.9385L15.2487 30.8437C15.2077 30.413 15.0878 30.0015 14.892 29.6153L14.0001 30.0676L13.1082 30.5199C13.1917 30.6845 13.2406 30.8536 13.2578 31.0334L14.2532 30.9385ZM14.0001 30.0676L14.9013 29.6342C14.6969 29.209 14.3974 28.8525 14.0238 28.5658L13.4149 29.3591L12.8061 30.1524C12.9491 30.2621 13.0398 30.378 13.0989 30.5009L14.0001 30.0676ZM13.4149 29.3591L14.0238 28.5658C13.6033 28.2431 13.1001 28.0596 12.5686 27.969L12.4005 28.9547L12.2323 29.9405C12.5368 29.9924 12.7099 30.0785 12.8061 30.1524L13.4149 29.3591ZM12.4005 28.9547L12.5686 27.969C11.8896 27.8531 11.2102 27.9001 10.5984 28.2085L11.0485 29.1015L11.4986 29.9944C11.6327 29.9269 11.8547 29.876 12.2323 29.9405L12.4005 28.9547ZM11.0485 29.1015L10.6124 28.2016C10.0717 28.4636 9.63362 28.8567 9.31248 29.3646L10.1577 29.899L11.003 30.4334C11.1264 30.2381 11.2822 30.0995 11.4847 30.0013L11.0485 29.1015ZM10.1577 29.899L9.30306 29.3798C9.02147 29.8434 8.83532 30.3484 8.7434 30.8872L9.72916 31.0554L10.7149 31.2236C10.7656 30.9264 10.8652 30.6606 11.0124 30.4182L10.1577 29.899ZM9.72916 31.0554L8.7434 30.8872C8.65033 31.4328 8.66403 31.9778 8.78731 32.5144L9.76192 32.2905L10.7365 32.0666C10.6735 31.7923 10.6654 31.514 10.7149 31.2236L9.72916 31.0554ZM9.76192 32.2905L8.78731 32.5144C8.92188 33.1001 9.20489 33.6162 9.62812 34.0427L10.3379 33.3383L11.0477 32.6339C10.8892 32.4742 10.7883 32.2918 10.7365 32.0666L9.76192 32.2905ZM10.3379 33.3383L9.63597 34.0505C10.1142 34.5219 10.7288 34.7846 11.3986 34.8989L11.5668 33.9131L11.7349 32.9274C11.3637 32.864 11.1591 32.7436 11.0399 32.6261L10.3379 33.3383ZM16.1991 36.4685L15.2134 36.3004L15.0452 37.2861L16.031 37.4543L16.1991 36.4685ZM16.4554 34.9662L15.8014 34.2097L15.53 34.4444L15.4696 34.7981L16.4554 34.9662ZM21.5245 30.5843L22.1785 31.3408L23.7817 29.9549L21.6927 29.5985L21.5245 30.5843ZM17.4435 29.8881L16.4577 29.7199L16.2895 30.7057L17.2753 30.8738L17.4435 29.8881ZM17.7462 28.1137L17.9143 27.1279L16.9286 26.9598L16.7604 27.9455L17.7462 28.1137ZM24.3468 29.2398L25.3326 29.4079L25.5007 28.4222L24.515 28.254L24.3468 29.2398ZM24.0905 30.742L24.7453 31.4978L25.016 31.2633L25.0763 30.9102L24.0905 30.742ZM19.0194 35.1358L18.3646 34.3801L16.7653 35.7657L18.8512 36.1216L19.0194 35.1358ZM23.1478 35.8401L24.1335 36.0083L24.3017 35.0225L23.3159 34.8544L23.1478 35.8401ZM22.8471 37.6026L22.6789 38.5884L23.6647 38.7566L23.8328 37.7708L22.8471 37.6026ZM16.1991 36.4685L17.1849 36.6367L17.4412 35.1344L16.4554 34.9662L15.4696 34.7981L15.2134 36.3004L16.1991 36.4685ZM16.4554 34.9662L17.1094 35.7228L22.1785 31.3408L21.5245 30.5843L20.8705 29.8278L15.8014 34.2097L16.4554 34.9662ZM21.5245 30.5843L21.6927 29.5985L17.6116 28.9023L17.4435 29.8881L17.2753 30.8738L21.3563 31.57L21.5245 30.5843ZM17.4435 29.8881L18.4292 30.0562L18.7319 28.2819L17.7462 28.1137L16.7604 27.9455L16.4577 29.7199L17.4435 29.8881ZM17.7462 28.1137L17.578 29.0995L24.1786 30.2255L24.3468 29.2398L24.515 28.254L17.9143 27.1279L17.7462 28.1137ZM24.3468 29.2398L23.361 29.0716L23.1048 30.5739L24.0905 30.742L25.0763 30.9102L25.3326 29.4079L24.3468 29.2398ZM24.0905 30.742L23.4357 29.9863L18.3646 34.3801L19.0194 35.1358L19.6742 35.8916L24.7453 31.4978L24.0905 30.742ZM19.0194 35.1358L18.8512 36.1216L22.9796 36.8259L23.1478 35.8401L23.3159 34.8544L19.1876 34.1501L19.0194 35.1358ZM23.1478 35.8401L22.162 35.6719L21.8613 37.4345L22.8471 37.6026L23.8328 37.7708L24.1335 36.0083L23.1478 35.8401ZM22.8471 37.6026L23.0152 36.6169L16.3673 35.4828L16.1991 36.4685L16.031 37.4543L22.6789 38.5884L22.8471 37.6026ZM25.6545 37.6312L25.0132 38.3984L25.0189 38.4032L25.0247 38.4079L25.6545 37.6312ZM24.4677 35.8827L23.5166 36.1916L23.5181 36.1964L24.4677 35.8827ZM25.2463 31.3896L24.4631 30.768L24.4604 30.7713L25.2463 31.3896ZM26.9813 30.1396L27.318 31.0812L27.3269 31.078L26.9813 30.1396ZM31.4192 30.8845L30.7852 31.6578L30.7894 31.6612L31.4192 30.8845ZM32.6317 32.6252L31.6853 32.948L31.6876 32.955L31.6901 32.9619L32.6317 32.6252ZM31.8787 37.1105L32.6679 37.7247L32.6709 37.7208L31.8787 37.1105ZM30.1398 38.3842L30.4854 39.3226L30.4891 39.3212L30.1398 38.3842ZM30.3884 35.785L29.5338 35.2658L29.5338 35.2658L30.3884 35.785ZM30.8302 33.7665L29.8347 33.8614L29.8359 33.8738L29.8374 33.8862L30.8302 33.7665ZM30.577 32.8955L29.6758 33.3289L29.6804 33.3384L29.6852 33.3478L30.577 32.8955ZM29.9918 32.187L30.6007 31.3937L30.6007 31.3937L29.9918 32.187ZM27.6255 31.9294L28.0616 32.8293L28.0686 32.8259L28.0755 32.8224L27.6255 31.9294ZM26.7346 32.727L25.8894 32.1926L25.8846 32.2002L25.88 32.2078L26.7346 32.727ZM26.9148 36.1663L26.205 36.8707L26.2129 36.8785L26.9148 36.1663ZM27.7994 38.5449L27.9676 37.5591C27.2455 37.4359 26.6983 37.1901 26.2844 36.8545L25.6545 37.6312L25.0247 38.4079C25.7514 38.9972 26.6342 39.3606 27.6313 39.5306L27.7994 38.5449ZM25.6545 37.6312L26.2959 36.8639C25.8782 36.5148 25.5891 36.0893 25.4172 35.569L24.4677 35.8827L23.5181 36.1964C23.8065 37.0693 24.3086 37.8095 25.0132 38.3984L25.6545 37.6312ZM24.4677 35.8827L25.4188 35.5738C25.2472 35.0456 25.2052 34.4376 25.3262 33.7284L24.3404 33.5602L23.3547 33.392C23.1878 34.3704 23.2306 35.3108 23.5166 36.1915L24.4677 35.8827ZM24.3404 33.5602L25.3262 33.7284C25.4515 32.9936 25.6976 32.4333 26.0323 32.0079L25.2463 31.3896L24.4604 30.7713C23.8832 31.5051 23.5253 32.3919 23.3547 33.392L24.3404 33.5602ZM25.2463 31.3896L26.0296 32.0113C26.3811 31.5685 26.8059 31.2643 27.318 31.0812L26.9813 30.1396L26.6446 29.198C25.7738 29.5094 25.042 30.0386 24.4631 30.768L25.2463 31.3896ZM26.9813 30.1396L27.3269 31.078C27.8279 30.8934 28.4231 30.84 29.1416 30.9626L29.3098 29.9769L29.478 28.9911C28.4774 28.8204 27.5201 28.8755 26.6357 29.2012L26.9813 30.1396ZM29.3098 29.9769L29.1416 30.9626C29.8448 31.0826 30.3789 31.3248 30.7852 31.6578L31.4192 30.8845L32.0532 30.1112C31.3345 29.522 30.4624 29.159 29.478 28.9911L29.3098 29.9769ZM31.4192 30.8845L30.7894 31.6612C31.2129 32.0047 31.5077 32.4273 31.6853 32.948L32.6317 32.6252L33.5782 32.3025C33.2798 31.4272 32.7662 30.6894 32.0491 30.1078L31.4192 30.8845ZM32.6317 32.6252L31.6901 32.9619C31.8696 33.4638 31.9201 34.0615 31.7969 34.7836L32.7827 34.9517L33.7684 35.1199C33.9385 34.1228 33.8884 33.1695 33.5734 32.2885L32.6317 32.6252ZM32.7827 34.9517L31.7969 34.7836C31.6765 35.489 31.4325 36.0512 31.0866 36.5002L31.8787 37.1105L32.6709 37.7208C33.2423 36.979 33.6009 36.1021 33.7684 35.1199L32.7827 34.9517ZM31.8787 37.1105L31.0896 36.4962C30.747 36.9364 30.32 37.2498 29.7905 37.4472L30.1398 38.3842L30.4891 39.3212C31.3636 38.9952 32.0959 38.4594 32.6678 37.7247L31.8787 37.1105ZM30.1398 38.3842L29.7942 37.4458C29.2945 37.6298 28.6958 37.6834 27.9676 37.5591L27.7994 38.5449L27.6313 39.5306C28.638 39.7024 29.5995 39.6488 30.4854 39.3226L30.1398 38.3842ZM28.1437 36.7411L27.9755 37.7268C28.6587 37.8434 29.3431 37.799 29.9575 37.4893L29.5074 36.5964L29.0573 35.7034C28.9259 35.7696 28.7011 35.8217 28.3118 35.7553L28.1437 36.7411ZM29.5074 36.5964L29.9575 37.4893C30.4957 37.2181 30.9303 36.819 31.2431 36.3041L30.3884 35.785L29.5338 35.2658C29.4177 35.4569 29.265 35.5987 29.0573 35.7034L29.5074 36.5964ZM30.3884 35.785L31.2431 36.3041C31.5208 35.847 31.7076 35.3548 31.7967 34.8322L30.8109 34.6641L29.8252 34.4959C29.7798 34.7619 29.6849 35.017 29.5338 35.2658L30.3884 35.785ZM30.8109 34.6641L31.7967 34.8322C31.8634 34.4413 31.871 34.045 31.823 33.6468L30.8302 33.7665L29.8374 33.8862C29.8633 34.1012 29.858 34.3033 29.8252 34.4959L30.8109 34.6641ZM30.8302 33.7665L31.8257 33.6717C31.7846 33.2409 31.6648 32.8294 31.4689 32.4432L30.577 32.8955L29.6852 33.3478C29.7686 33.5124 29.8175 33.6816 29.8347 33.8614L30.8302 33.7665ZM30.577 32.8955L31.4782 32.4622C31.2738 32.037 30.9743 31.6805 30.6007 31.3937L29.9918 32.187L29.383 32.9803C29.526 33.0901 29.6167 33.206 29.6758 33.3289L30.577 32.8955ZM29.9918 32.187L30.6007 31.3937C30.1802 31.071 29.677 30.8876 29.1456 30.7969L28.9774 31.7827L28.8092 32.7684C29.1137 32.8204 29.2868 32.9065 29.383 32.9803L29.9918 32.187ZM28.9774 31.7827L29.1456 30.7969C28.4665 30.6811 27.7872 30.7281 27.1754 31.0364L27.6255 31.9294L28.0755 32.8224C28.2096 32.7548 28.4316 32.704 28.8092 32.7684L28.9774 31.7827ZM27.6255 31.9294L27.1893 31.0295C26.6487 31.2916 26.2105 31.6846 25.8894 32.1926L26.7346 32.727L27.5799 33.2613C27.7034 33.0661 27.8591 32.9274 28.0616 32.8293L27.6255 31.9294ZM26.7346 32.727L25.88 32.2078C25.5984 32.6714 25.4122 33.1764 25.3203 33.7152L26.3061 33.8834L27.2918 34.0515C27.3425 33.7544 27.4421 33.4885 27.5893 33.2461L26.7346 32.727ZM26.3061 33.8834L25.3203 33.7152C25.2272 34.2607 25.2409 34.8058 25.3642 35.3424L26.3388 35.1185L27.3135 34.8946C27.2504 34.6203 27.2423 34.3419 27.2918 34.0515L26.3061 33.8834ZM26.3388 35.1185L25.3642 35.3424C25.4988 35.9281 25.7818 36.4442 26.205 36.8707L26.9148 36.1663L27.6246 35.4619C27.4662 35.3022 27.3652 35.1197 27.3135 34.8946L26.3388 35.1185ZM26.9148 36.1663L26.2129 36.8785C26.6912 37.3498 27.3057 37.6126 27.9755 37.7268L28.1437 36.7411L28.3118 35.7553C27.9407 35.692 27.736 35.5715 27.6168 35.454L26.9148 36.1663ZM33.2847 39.3833L32.2989 39.2151L32.1308 40.2009L33.1165 40.369L33.2847 39.3833ZM34.7134 31.0083L34.8816 30.0225L33.8958 29.8543L33.7277 30.8401L34.7134 31.0083ZM36.5706 31.3251L37.4723 30.8926L37.2486 30.4263L36.7388 30.3393L36.5706 31.3251ZM39.3812 37.1852L38.4795 37.6176L39.8384 40.4511L40.3669 37.3534L39.3812 37.1852ZM40.2731 31.9567L40.4413 30.971L39.4555 30.8028L39.2874 31.7886L40.2731 31.9567ZM42.2013 32.2857L43.187 32.4538L43.3552 31.4681L42.3694 31.2999L42.2013 32.2857ZM40.7725 40.6607L40.6043 41.6464L41.5901 41.8146L41.7583 40.8288L40.7725 40.6607ZM38.9627 40.3519L38.0666 40.7959L38.2927 41.2521L38.7945 41.3377L38.9627 40.3519ZM36.0829 34.5409L36.9789 34.0968L35.614 31.3427L35.0971 34.3727L36.0829 34.5409ZM35.201 39.7102L35.0328 40.6959L36.0186 40.8641L36.1868 39.8783L35.201 39.7102ZM33.2847 39.3833L34.2704 39.5514L35.6992 31.1764L34.7134 31.0083L33.7277 30.8401L32.2989 39.2151L33.2847 39.3833ZM34.7134 31.0083L34.5453 31.994L36.4024 32.3108L36.5706 31.3251L36.7388 30.3393L34.8816 30.0225L34.7134 31.0083ZM36.5706 31.3251L35.6689 31.7575L38.4795 37.6176L39.3812 37.1852L40.2828 36.7527L37.4723 30.8926L36.5706 31.3251ZM39.3812 37.1852L40.3669 37.3534L41.2589 32.1249L40.2731 31.9567L39.2874 31.7886L38.3954 37.017L39.3812 37.1852ZM40.2731 31.9567L40.1049 32.9425L42.0331 33.2714L42.2013 32.2857L42.3694 31.2999L40.4413 30.971L40.2731 31.9567ZM42.2013 32.2857L41.2155 32.1175L39.7868 40.4925L40.7725 40.6607L41.7583 40.8288L43.187 32.4538L42.2013 32.2857ZM40.7725 40.6607L40.9407 39.6749L39.1308 39.3661L38.9627 40.3519L38.7945 41.3377L40.6043 41.6464L40.7725 40.6607ZM38.9627 40.3519L39.8587 39.9079L36.9789 34.0968L36.0829 34.5409L35.1869 34.9849L38.0666 40.7959L38.9627 40.3519ZM36.0829 34.5409L35.0971 34.3727L34.2152 39.542L35.201 39.7102L36.1868 39.8783L37.0686 34.709L36.0829 34.5409ZM35.201 39.7102L35.3692 38.7244L33.4529 38.3975L33.2847 39.3833L33.1165 40.369L35.0328 40.6959L35.201 39.7102Z" fill="#B0FF12" mask="url(#path-6-outside-2_108_4)"/>
<path d="M41.1146 67.4345C40.499 66.8801 40.4494 65.9316 41.0038 65.3161L46.6921 59L48.9213 61.0076L43.233 67.3237C42.6786 67.9393 41.7302 67.9889 41.1146 67.4345V67.4345Z" fill="#000756"/>
<path d="M56 49.3865C58.0324 51.066 58.7333 52.1955 58.3575 54.9039" stroke="#000756"/>
</g>
<defs>
<clipPath id="clip0_108_4">
<rect width="100" height="100" fill="white"/>
</clipPath>
</defs>
</svg>
