<svg width="100" height="100" viewBox="0 0 100 100" fill="none" xmlns="http://www.w3.org/2000/svg">
<g clip-path="url(#clip0_108_18)">
<rect width="100" height="100" rx="50" fill="#B0FF12"/>
<path d="M-6 43L43 -17H71.5L5 73V96.5L84.3311 8M104.5 -14.5L84.3311 8M84.3311 8C89.624 17.763 99.2539 27.7368 90 37.5L29 102L75 107L126.5 15" stroke="white" stroke-width="14"/>
<path d="M-6 43L43 -17H71.5L5 73V96.5L84.3311 8M104.5 -14.5L84.3311 8M84.3311 8C89.624 17.763 99.2539 27.7368 90 37.5L29 102L75 107L126.5 15" stroke="white" stroke-width="14"/>
<path d="M3.37014 57.9894L6.46138 39.8692L19.1225 42.0291L18.624 44.9509L9.16665 43.3375L8.24409 48.7454L16.3431 50.127L15.8446 53.0488L7.74564 51.6672L6.57385 58.5359L3.37014 57.9894ZM18.788 60.6196L21.8793 42.4994L25.083 43.0459L21.9917 61.1662L18.788 60.6196ZM26.0464 61.8579L29.1377 43.7377L32.5721 44.3236L39.06 59.0138L41.3118 45.8145L44.5155 46.3611L41.4243 64.4813L38.0668 63.9085L31.4888 49.282L29.2501 62.4044L26.0464 61.8579ZM45.469 65.1713L48.5602 47.0511L55.2496 48.1923C57.1462 48.5158 58.6896 49.1572 59.8799 50.1163C61.0732 51.0584 61.8949 52.2712 62.3452 53.7547C62.8155 55.2241 62.8888 56.907 62.5653 58.8036C62.2475 60.6661 61.6318 62.2139 60.7181 63.4471C59.8214 64.6833 58.6526 65.5565 57.2116 66.0668C55.7735 66.5599 54.0976 66.6433 52.1839 66.3168L45.469 65.1713ZM49.1711 62.796L52.6055 63.3819C53.9553 63.6122 55.084 63.541 55.9916 63.1683C56.9192 62.7815 57.6482 62.1673 58.1786 61.3259C58.729 60.4702 59.1077 59.4359 59.3147 58.2227C59.5158 57.0438 59.5071 55.9609 59.2886 54.9741C59.0701 53.9873 58.5874 53.1576 57.8405 52.4851C57.1137 51.7984 56.0753 51.3399 54.7255 51.1097L51.2655 50.5194L49.1711 62.796ZM64.0906 68.3481L67.1818 50.2279L79.971 52.4096L79.4726 55.3314L69.8871 53.6962L69.0738 58.4633L77.4035 59.8843L76.9138 62.7548L68.5841 61.3338L67.7927 65.9728L77.3782 67.6081L76.8798 70.5299L64.0906 68.3481ZM79.9339 71.0509L83.0252 52.9307L90.1759 54.1506C91.0985 54.308 91.9539 54.5506 92.742 54.8785C93.533 55.1892 94.2067 55.6207 94.7631 56.1728C95.3224 56.7078 95.7174 57.3818 95.948 58.1948C96.1785 59.0078 96.1991 59.9697 96.0096 61.0803C95.8522 62.003 95.5514 62.7869 95.1073 63.432C94.6631 64.0772 94.1097 64.5894 93.4472 64.9688C92.8017 65.351 92.0641 65.6032 91.2344 65.7254L94.0046 73.4513L90.4165 72.8392L87.9689 65.6958L84.2526 65.0619L83.1376 71.5974L79.9339 71.0509ZM84.7379 62.217L88.2492 62.816C88.8301 62.9151 89.3671 62.9627 89.8601 62.9589C90.3731 62.9409 90.8279 62.8515 91.2247 62.6906C91.6385 62.5326 91.9714 62.2816 92.2235 61.9378C92.4955 61.5798 92.6911 61.1032 92.8102 60.5081C92.9327 59.7905 92.8751 59.2004 92.6375 58.7379C92.417 58.2782 92.0394 57.9149 91.5047 57.6478C90.987 57.3837 90.3438 57.186 89.5749 57.0549L85.7304 56.399L84.7379 62.217Z" fill="#000756"/>
<path d="M3.37014 57.9894L6.46138 39.8692L19.1225 42.0291L18.624 44.9509L9.16665 43.3375L8.24409 48.7454L16.3431 50.127L15.8446 53.0488L7.74564 51.6672L6.57385 58.5359L3.37014 57.9894ZM18.788 60.6196L21.8793 42.4994L25.083 43.0459L21.9917 61.1662L18.788 60.6196ZM26.0464 61.8579L29.1377 43.7377L32.5721 44.3236L39.06 59.0138L41.3118 45.8145L44.5155 46.3611L41.4243 64.4813L38.0668 63.9085L31.4888 49.282L29.2501 62.4044L26.0464 61.8579ZM45.469 65.1713L48.5602 47.0511L55.2496 48.1923C57.1462 48.5158 58.6896 49.1572 59.8799 50.1163C61.0732 51.0584 61.8949 52.2712 62.3452 53.7547C62.8155 55.2241 62.8888 56.907 62.5653 58.8036C62.2475 60.6661 61.6318 62.2139 60.7181 63.4471C59.8214 64.6833 58.6526 65.5565 57.2116 66.0668C55.7735 66.5599 54.0976 66.6433 52.1839 66.3168L45.469 65.1713ZM49.1711 62.796L52.6055 63.3819C53.9553 63.6122 55.084 63.541 55.9916 63.1683C56.9192 62.7815 57.6482 62.1673 58.1786 61.3259C58.729 60.4702 59.1077 59.4359 59.3147 58.2227C59.5158 57.0438 59.5071 55.9609 59.2886 54.9741C59.0701 53.9873 58.5874 53.1576 57.8405 52.4851C57.1137 51.7984 56.0753 51.3399 54.7255 51.1097L51.2655 50.5194L49.1711 62.796ZM64.0906 68.3481L67.1818 50.2279L79.971 52.4096L79.4726 55.3314L69.8871 53.6962L69.0738 58.4633L77.4035 59.8843L76.9138 62.7548L68.5841 61.3338L67.7927 65.9728L77.3782 67.6081L76.8798 70.5299L64.0906 68.3481ZM79.9339 71.0509L83.0252 52.9307L90.1759 54.1506C91.0985 54.308 91.9539 54.5506 92.742 54.8785C93.533 55.1892 94.2067 55.6207 94.7631 56.1728C95.3224 56.7078 95.7174 57.3818 95.948 58.1948C96.1785 59.0078 96.1991 59.9697 96.0096 61.0803C95.8522 62.003 95.5514 62.7869 95.1073 63.432C94.6631 64.0772 94.1097 64.5894 93.4472 64.9688C92.8017 65.351 92.0641 65.6032 91.2344 65.7254L94.0046 73.4513L90.4165 72.8392L87.9689 65.6958L84.2526 65.0619L83.1376 71.5974L79.9339 71.0509ZM84.7379 62.217L88.2492 62.816C88.8301 62.9151 89.3671 62.9627 89.8601 62.9589C90.3731 62.9409 90.8279 62.8515 91.2247 62.6906C91.6385 62.5326 91.9714 62.2816 92.2235 61.9378C92.4955 61.5798 92.6911 61.1032 92.8102 60.5081C92.9327 59.7905 92.8751 59.2004 92.6375 58.7379C92.417 58.2782 92.0394 57.9149 91.5047 57.6478C90.987 57.3837 90.3438 57.186 89.5749 57.0549L85.7304 56.399L84.7379 62.217Z" fill="#000756"/>
<mask id="path-6-outside-1_108_18" maskUnits="userSpaceOnUse" x="5.35053" y="27.8176" width="38.4911" height="18.0513" fill="black">
<rect fill="white" x="5.35053" y="27.8176" width="38.4911" height="18.0513"/>
<path d="M11.2225 38.7169C10.3629 38.5703 9.64797 38.2657 9.07762 37.8032C8.51651 37.3342 8.12089 36.7513 7.89076 36.0547C7.66198 35.3502 7.61956 34.5761 7.76351 33.7322C7.9115 32.8648 8.21347 32.1413 8.66943 31.5617C9.13462 30.9756 9.71293 30.5589 10.4044 30.3116C11.0971 30.0565 11.8733 30.0023 12.7329 30.1489C13.5767 30.2928 14.2798 30.5954 14.8423 31.0566C15.4126 31.5191 15.8168 32.0993 16.0548 32.7973C16.3021 33.4887 16.3524 34.2642 16.2057 35.1238C16.0618 35.9676 15.7605 36.6872 15.3018 37.2825C14.8445 37.87 14.2649 38.2945 13.5629 38.5562C12.8701 38.8113 12.09 38.8649 11.2225 38.7169ZM11.5668 36.9131C12.103 37.0046 12.5576 36.9564 12.9305 36.7684C13.3034 36.5804 13.5971 36.31 13.8115 35.957C14.0259 35.604 14.1668 35.2304 14.234 34.8361C14.2838 34.5443 14.2902 34.2451 14.2532 33.9385C14.2242 33.6333 14.1398 33.343 14.0001 33.0676C13.8683 32.7935 13.6733 32.5573 13.4149 32.3591C13.1566 32.1608 12.8184 32.026 12.4005 31.9547C11.8721 31.8646 11.4215 31.9135 11.0485 32.1015C10.677 32.2815 10.38 32.5474 10.1577 32.899C9.94332 33.252 9.80046 33.6374 9.72916 34.0554C9.65786 34.4734 9.66878 34.8851 9.76192 35.2905C9.85507 35.6959 10.0471 36.0452 10.3379 36.3383C10.6367 36.6327 11.0463 36.8243 11.5668 36.9131ZM16.1991 39.4685L16.4554 37.9662L21.5245 33.5843L17.4435 32.8881L17.7462 31.1137L24.3468 32.2398L24.0905 33.742L19.0194 38.1358L23.1478 38.8401L22.8471 40.6026L16.1991 39.4685ZM27.7994 41.5449C26.9398 41.3982 26.2249 41.0937 25.6545 40.6312C25.0934 40.1621 24.6978 39.5793 24.4677 38.8827C24.2389 38.1782 24.1965 37.404 24.3404 36.5602C24.4884 35.6927 24.7904 34.9692 25.2463 34.3896C25.7115 33.8035 26.2898 33.3868 26.9813 33.1396C27.674 32.8845 28.4502 32.8302 29.3098 32.9769C30.1536 33.1208 30.8567 33.4234 31.4192 33.8845C31.9895 34.347 32.3937 34.9273 32.6317 35.6252C32.879 36.3166 32.9293 37.0921 32.7827 37.9517C32.6387 38.7955 32.3374 39.5151 31.8787 40.1105C31.4214 40.6979 30.8418 41.1225 30.1398 41.3842C29.447 41.6393 28.6669 41.6929 27.7994 41.5449ZM28.1437 39.7411C28.6799 39.8326 29.1345 39.7843 29.5074 39.5964C29.8804 39.4084 30.174 39.1379 30.3884 38.785C30.6028 38.432 30.7437 38.0584 30.8109 37.6641C30.8607 37.3723 30.8671 37.0731 30.8302 36.7665C30.8011 36.4613 30.7167 36.1709 30.577 35.8955C30.4452 35.6215 30.2502 35.3853 29.9918 35.187C29.7335 34.9888 29.3953 34.854 28.9774 34.7827C28.449 34.6925 27.9984 34.7415 27.6255 34.9294C27.2539 35.1095 26.9569 35.3753 26.7346 35.727C26.5202 36.0799 26.3774 36.4654 26.3061 36.8834C26.2348 37.3013 26.2457 37.713 26.3388 38.1185C26.432 38.5239 26.624 38.8732 26.9148 39.1663C27.2136 39.4607 27.6232 39.6523 28.1437 39.7411ZM33.2847 42.3833L34.7134 34.0083L36.5706 34.3251L39.3812 40.1852L40.2731 34.9567L42.2013 35.2857L40.7725 43.6607L38.9627 43.3519L36.0829 37.5409L35.201 42.7102L33.2847 42.3833Z"/>
</mask>
<path d="M11.2225 38.7169C10.3629 38.5703 9.64797 38.2657 9.07762 37.8032C8.51651 37.3342 8.12089 36.7513 7.89076 36.0547C7.66198 35.3502 7.61956 34.5761 7.76351 33.7322C7.9115 32.8648 8.21347 32.1413 8.66943 31.5617C9.13462 30.9756 9.71293 30.5589 10.4044 30.3116C11.0971 30.0565 11.8733 30.0023 12.7329 30.1489C13.5767 30.2928 14.2798 30.5954 14.8423 31.0566C15.4126 31.5191 15.8168 32.0993 16.0548 32.7973C16.3021 33.4887 16.3524 34.2642 16.2057 35.1238C16.0618 35.9676 15.7605 36.6872 15.3018 37.2825C14.8445 37.87 14.2649 38.2945 13.5629 38.5562C12.8701 38.8113 12.09 38.8649 11.2225 38.7169ZM11.5668 36.9131C12.103 37.0046 12.5576 36.9564 12.9305 36.7684C13.3034 36.5804 13.5971 36.31 13.8115 35.957C14.0259 35.604 14.1668 35.2304 14.234 34.8361C14.2838 34.5443 14.2902 34.2451 14.2532 33.9385C14.2242 33.6333 14.1398 33.343 14.0001 33.0676C13.8683 32.7935 13.6733 32.5573 13.4149 32.3591C13.1566 32.1608 12.8184 32.026 12.4005 31.9547C11.8721 31.8646 11.4215 31.9135 11.0485 32.1015C10.677 32.2815 10.38 32.5474 10.1577 32.899C9.94332 33.252 9.80046 33.6374 9.72916 34.0554C9.65786 34.4734 9.66878 34.8851 9.76192 35.2905C9.85507 35.6959 10.0471 36.0452 10.3379 36.3383C10.6367 36.6327 11.0463 36.8243 11.5668 36.9131ZM16.1991 39.4685L16.4554 37.9662L21.5245 33.5843L17.4435 32.8881L17.7462 31.1137L24.3468 32.2398L24.0905 33.742L19.0194 38.1358L23.1478 38.8401L22.8471 40.6026L16.1991 39.4685ZM27.7994 41.5449C26.9398 41.3982 26.2249 41.0937 25.6545 40.6312C25.0934 40.1621 24.6978 39.5793 24.4677 38.8827C24.2389 38.1782 24.1965 37.404 24.3404 36.5602C24.4884 35.6927 24.7904 34.9692 25.2463 34.3896C25.7115 33.8035 26.2898 33.3868 26.9813 33.1396C27.674 32.8845 28.4502 32.8302 29.3098 32.9769C30.1536 33.1208 30.8567 33.4234 31.4192 33.8845C31.9895 34.347 32.3937 34.9273 32.6317 35.6252C32.879 36.3166 32.9293 37.0921 32.7827 37.9517C32.6387 38.7955 32.3374 39.5151 31.8787 40.1105C31.4214 40.6979 30.8418 41.1225 30.1398 41.3842C29.447 41.6393 28.6669 41.6929 27.7994 41.5449ZM28.1437 39.7411C28.6799 39.8326 29.1345 39.7843 29.5074 39.5964C29.8804 39.4084 30.174 39.1379 30.3884 38.785C30.6028 38.432 30.7437 38.0584 30.8109 37.6641C30.8607 37.3723 30.8671 37.0731 30.8302 36.7665C30.8011 36.4613 30.7167 36.1709 30.577 35.8955C30.4452 35.6215 30.2502 35.3853 29.9918 35.187C29.7335 34.9888 29.3953 34.854 28.9774 34.7827C28.449 34.6925 27.9984 34.7415 27.6255 34.9294C27.2539 35.1095 26.9569 35.3753 26.7346 35.727C26.5202 36.0799 26.3774 36.4654 26.3061 36.8834C26.2348 37.3013 26.2457 37.713 26.3388 38.1185C26.432 38.5239 26.624 38.8732 26.9148 39.1663C27.2136 39.4607 27.6232 39.6523 28.1437 39.7411ZM33.2847 42.3833L34.7134 34.0083L36.5706 34.3251L39.3812 40.1852L40.2731 34.9567L42.2013 35.2857L40.7725 43.6607L38.9627 43.3519L36.0829 37.5409L35.201 42.7102L33.2847 42.3833Z" fill="#B0FF12"/>
<path d="M9.07762 37.8032L8.43627 38.5705L8.44199 38.5752L8.44778 38.5799L9.07762 37.8032ZM7.89076 36.0547L6.93964 36.3636L6.94123 36.3684L7.89076 36.0547ZM8.66943 31.5617L7.88615 30.94L7.88349 30.9434L8.66943 31.5617ZM10.4044 30.3116L10.7411 31.2533L10.7499 31.25L10.4044 30.3116ZM14.8423 31.0566L14.2082 31.8299L14.2124 31.8333L14.8423 31.0566ZM16.0548 32.7973L15.1083 33.12L15.1107 33.127L15.1132 33.134L16.0548 32.7973ZM15.3018 37.2825L16.0909 37.8968L16.094 37.8928L15.3018 37.2825ZM13.5629 38.5562L13.9085 39.4946L13.9121 39.4932L13.5629 38.5562ZM13.8115 35.957L12.9568 35.4378L12.9568 35.4378L13.8115 35.957ZM14.2532 33.9385L13.2578 34.0334L13.2589 34.0458L13.2604 34.0583L14.2532 33.9385ZM14.0001 33.0676L13.0989 33.5009L13.1035 33.5105L13.1082 33.5199L14.0001 33.0676ZM13.4149 32.3591L14.0238 31.5658L14.0238 31.5658L13.4149 32.3591ZM11.0485 32.1015L11.4847 33.0013L11.4917 32.9979L11.4986 32.9944L11.0485 32.1015ZM10.1577 32.899L9.31248 32.3646L9.3077 32.3722L9.30306 32.3798L10.1577 32.899ZM10.3379 36.3383L9.62808 37.0427L9.63597 37.0505L10.3379 36.3383ZM11.2225 38.7169L11.3907 37.7312C10.6686 37.608 10.1214 37.3622 9.70747 37.0265L9.07762 37.8032L8.44778 38.5799C9.17452 39.1693 10.0573 39.5326 11.0543 39.7027L11.2225 38.7169ZM9.07762 37.8032L9.71897 37.036C9.30132 36.6868 9.01216 36.2613 8.84029 35.741L7.89076 36.0547L6.94123 36.3684C7.22962 37.2414 7.7317 37.9815 8.43627 38.5705L9.07762 37.8032ZM7.89076 36.0547L8.84187 35.7459C8.67032 35.2176 8.62827 34.6097 8.74927 33.9004L7.76351 33.7322L6.77775 33.5641C6.61085 34.5424 6.65364 35.4828 6.93965 36.3636L7.89076 36.0547ZM7.76351 33.7322L8.74927 33.9004C8.87463 33.1656 9.12071 32.6054 9.45537 32.18L8.66943 31.5617L7.88349 30.9434C7.30624 31.6771 6.94837 32.564 6.77775 33.5641L7.76351 33.7322ZM8.66943 31.5617L9.45271 32.1834C9.80416 31.7405 10.2289 31.4364 10.7411 31.2532L10.4044 30.3116L10.0676 29.37C9.19691 29.6814 8.46508 30.2106 7.88615 30.94L8.66943 31.5617ZM10.4044 30.3116L10.7499 31.25C11.251 31.0655 11.8462 31.0121 12.5647 31.1347L12.7329 30.1489L12.9011 29.1631C11.9004 28.9924 10.9432 29.0475 10.0588 29.3732L10.4044 30.3116ZM12.7329 30.1489L12.5647 31.1347C13.2679 31.2546 13.802 31.4968 14.2083 31.8299L14.8423 31.0566L15.4763 30.2832C14.7576 29.694 13.8855 29.3311 12.9011 29.1631L12.7329 30.1489ZM14.8423 31.0566L14.2124 31.8333C14.636 32.1767 14.9308 32.5993 15.1083 33.12L16.0548 32.7973L17.0013 32.4745C16.7028 31.5992 16.1893 30.8614 15.4721 30.2798L14.8423 31.0566ZM16.0548 32.7973L15.1132 33.134C15.2927 33.6358 15.3432 34.2335 15.22 34.9556L16.2057 35.1238L17.1915 35.2919C17.3616 34.2949 17.3115 33.3416 16.9964 32.4605L16.0548 32.7973ZM16.2057 35.1238L15.22 34.9556C15.0996 35.661 14.8555 36.2232 14.5097 36.6722L15.3018 37.2825L16.094 37.8928C16.6654 37.1511 17.0239 36.2741 17.1915 35.2919L16.2057 35.1238ZM15.3018 37.2825L14.5127 36.6682C14.1701 37.1085 13.7431 37.4218 13.2136 37.6192L13.5629 38.5562L13.9121 39.4932C14.7867 39.1672 15.519 38.6315 16.0909 37.8968L15.3018 37.2825ZM13.5629 38.5562L13.2173 37.6178C12.7176 37.8018 12.1189 37.8554 11.3907 37.7312L11.2225 38.7169L11.0543 39.7027C12.0611 39.8744 13.0226 39.8208 13.9085 39.4946L13.5629 38.5562ZM11.5668 36.9131L11.3986 37.8989C12.0818 38.0154 12.7662 37.9711 13.3806 37.6614L12.9305 36.7684L12.4804 35.8754C12.349 35.9417 12.1242 35.9938 11.7349 35.9274L11.5668 36.9131ZM12.9305 36.7684L13.3806 37.6614C13.9187 37.3901 14.3534 36.9911 14.6662 36.4762L13.8115 35.957L12.9568 35.4378C12.8408 35.6289 12.6881 35.7707 12.4804 35.8754L12.9305 36.7684ZM13.8115 35.957L14.6662 36.4762C14.9439 36.0191 15.1306 35.5268 15.2198 35.0043L14.234 34.8361L13.2483 34.6679C13.2029 34.934 13.108 35.189 12.9568 35.4378L13.8115 35.957ZM14.234 34.8361L15.2198 35.0043C15.2865 34.6133 15.2941 34.217 15.2461 33.8188L14.2532 33.9385L13.2604 34.0583C13.2864 34.2732 13.2811 34.4753 13.2483 34.6679L14.234 34.8361ZM14.2532 33.9385L15.2487 33.8437C15.2077 33.413 15.0878 33.0015 14.892 32.6153L14.0001 33.0676L13.1082 33.5199C13.1917 33.6845 13.2406 33.8536 13.2578 34.0334L14.2532 33.9385ZM14.0001 33.0676L14.9013 32.6342C14.6969 32.209 14.3974 31.8525 14.0238 31.5658L13.4149 32.3591L12.8061 33.1524C12.9491 33.2621 13.0398 33.378 13.0989 33.5009L14.0001 33.0676ZM13.4149 32.3591L14.0238 31.5658C13.6033 31.2431 13.1001 31.0596 12.5686 30.969L12.4005 31.9547L12.2323 32.9405C12.5368 32.9924 12.7099 33.0785 12.8061 33.1524L13.4149 32.3591ZM12.4005 31.9547L12.5686 30.969C11.8896 30.8531 11.2102 30.9001 10.5984 31.2085L11.0485 32.1015L11.4986 32.9944C11.6327 32.9269 11.8547 32.876 12.2323 32.9405L12.4005 31.9547ZM11.0485 32.1015L10.6124 31.2016C10.0717 31.4636 9.63362 31.8567 9.31248 32.3646L10.1577 32.899L11.003 33.4334C11.1264 33.2381 11.2822 33.0995 11.4847 33.0013L11.0485 32.1015ZM10.1577 32.899L9.30306 32.3798C9.02147 32.8434 8.83532 33.3484 8.7434 33.8872L9.72916 34.0554L10.7149 34.2236C10.7656 33.9264 10.8652 33.6606 11.0124 33.4182L10.1577 32.899ZM9.72916 34.0554L8.7434 33.8872C8.65033 34.4328 8.66403 34.9778 8.78731 35.5144L9.76192 35.2905L10.7365 35.0666C10.6735 34.7923 10.6654 34.514 10.7149 34.2236L9.72916 34.0554ZM9.76192 35.2905L8.78731 35.5144C8.92188 36.1001 9.20489 36.6162 9.62812 37.0427L10.3379 36.3383L11.0477 35.6339C10.8892 35.4742 10.7883 35.2918 10.7365 35.0666L9.76192 35.2905ZM10.3379 36.3383L9.63597 37.0505C10.1142 37.5219 10.7288 37.7846 11.3986 37.8989L11.5668 36.9131L11.7349 35.9274C11.3637 35.864 11.1591 35.7436 11.0399 35.6261L10.3379 36.3383ZM16.1991 39.4685L15.2134 39.3004L15.0452 40.2861L16.031 40.4543L16.1991 39.4685ZM16.4554 37.9662L15.8014 37.2097L15.53 37.4444L15.4696 37.7981L16.4554 37.9662ZM21.5245 33.5843L22.1785 34.3408L23.7817 32.9549L21.6927 32.5985L21.5245 33.5843ZM17.4435 32.8881L16.4577 32.7199L16.2895 33.7057L17.2753 33.8738L17.4435 32.8881ZM17.7462 31.1137L17.9143 30.1279L16.9286 29.9598L16.7604 30.9455L17.7462 31.1137ZM24.3468 32.2398L25.3326 32.4079L25.5007 31.4222L24.515 31.254L24.3468 32.2398ZM24.0905 33.742L24.7453 34.4978L25.016 34.2633L25.0763 33.9102L24.0905 33.742ZM19.0194 38.1358L18.3646 37.3801L16.7653 38.7657L18.8512 39.1216L19.0194 38.1358ZM23.1478 38.8401L24.1335 39.0083L24.3017 38.0225L23.3159 37.8544L23.1478 38.8401ZM22.8471 40.6026L22.6789 41.5884L23.6647 41.7566L23.8328 40.7708L22.8471 40.6026ZM16.1991 39.4685L17.1849 39.6367L17.4412 38.1344L16.4554 37.9662L15.4696 37.7981L15.2134 39.3004L16.1991 39.4685ZM16.4554 37.9662L17.1094 38.7228L22.1785 34.3408L21.5245 33.5843L20.8705 32.8278L15.8014 37.2097L16.4554 37.9662ZM21.5245 33.5843L21.6927 32.5985L17.6116 31.9023L17.4435 32.8881L17.2753 33.8738L21.3563 34.57L21.5245 33.5843ZM17.4435 32.8881L18.4292 33.0562L18.7319 31.2819L17.7462 31.1137L16.7604 30.9455L16.4577 32.7199L17.4435 32.8881ZM17.7462 31.1137L17.578 32.0995L24.1786 33.2255L24.3468 32.2398L24.515 31.254L17.9143 30.1279L17.7462 31.1137ZM24.3468 32.2398L23.361 32.0716L23.1048 33.5739L24.0905 33.742L25.0763 33.9102L25.3326 32.4079L24.3468 32.2398ZM24.0905 33.742L23.4357 32.9863L18.3646 37.3801L19.0194 38.1358L19.6742 38.8916L24.7453 34.4978L24.0905 33.742ZM19.0194 38.1358L18.8512 39.1216L22.9796 39.8259L23.1478 38.8401L23.3159 37.8544L19.1876 37.1501L19.0194 38.1358ZM23.1478 38.8401L22.162 38.6719L21.8613 40.4345L22.8471 40.6026L23.8328 40.7708L24.1335 39.0083L23.1478 38.8401ZM22.8471 40.6026L23.0152 39.6169L16.3673 38.4828L16.1991 39.4685L16.031 40.4543L22.6789 41.5884L22.8471 40.6026ZM25.6545 40.6312L25.0132 41.3984L25.0189 41.4032L25.0247 41.4079L25.6545 40.6312ZM24.4677 38.8827L23.5166 39.1916L23.5181 39.1964L24.4677 38.8827ZM25.2463 34.3896L24.4631 33.768L24.4604 33.7713L25.2463 34.3896ZM26.9813 33.1396L27.318 34.0812L27.3269 34.078L26.9813 33.1396ZM31.4192 33.8845L30.7852 34.6578L30.7894 34.6612L31.4192 33.8845ZM32.6317 35.6252L31.6853 35.948L31.6876 35.955L31.6901 35.9619L32.6317 35.6252ZM31.8787 40.1105L32.6679 40.7247L32.6709 40.7208L31.8787 40.1105ZM30.1398 41.3842L30.4854 42.3226L30.4891 42.3212L30.1398 41.3842ZM30.3884 38.785L29.5338 38.2658L29.5338 38.2658L30.3884 38.785ZM30.8302 36.7665L29.8347 36.8614L29.8359 36.8738L29.8374 36.8862L30.8302 36.7665ZM30.577 35.8955L29.6758 36.3289L29.6804 36.3384L29.6852 36.3478L30.577 35.8955ZM29.9918 35.187L30.6007 34.3937L30.6007 34.3937L29.9918 35.187ZM27.6255 34.9294L28.0616 35.8293L28.0686 35.8259L28.0755 35.8224L27.6255 34.9294ZM26.7346 35.727L25.8894 35.1926L25.8846 35.2002L25.88 35.2078L26.7346 35.727ZM26.9148 39.1663L26.205 39.8707L26.2129 39.8785L26.9148 39.1663ZM27.7994 41.5449L27.9676 40.5591C27.2455 40.4359 26.6983 40.1901 26.2844 39.8545L25.6545 40.6312L25.0247 41.4079C25.7514 41.9972 26.6342 42.3606 27.6313 42.5306L27.7994 41.5449ZM25.6545 40.6312L26.2959 39.8639C25.8782 39.5148 25.5891 39.0893 25.4172 38.569L24.4677 38.8827L23.5181 39.1964C23.8065 40.0693 24.3086 40.8095 25.0132 41.3984L25.6545 40.6312ZM24.4677 38.8827L25.4188 38.5738C25.2472 38.0456 25.2052 37.4376 25.3262 36.7284L24.3404 36.5602L23.3547 36.392C23.1878 37.3704 23.2306 38.3108 23.5166 39.1915L24.4677 38.8827ZM24.3404 36.5602L25.3262 36.7284C25.4515 35.9936 25.6976 35.4333 26.0323 35.0079L25.2463 34.3896L24.4604 33.7713C23.8832 34.5051 23.5253 35.3919 23.3547 36.392L24.3404 36.5602ZM25.2463 34.3896L26.0296 35.0113C26.3811 34.5685 26.8059 34.2643 27.318 34.0812L26.9813 33.1396L26.6446 32.198C25.7738 32.5094 25.042 33.0386 24.4631 33.768L25.2463 34.3896ZM26.9813 33.1396L27.3269 34.078C27.8279 33.8934 28.4231 33.84 29.1416 33.9626L29.3098 32.9769L29.478 31.9911C28.4774 31.8204 27.5201 31.8755 26.6357 32.2012L26.9813 33.1396ZM29.3098 32.9769L29.1416 33.9626C29.8448 34.0826 30.3789 34.3248 30.7852 34.6578L31.4192 33.8845L32.0532 33.1112C31.3345 32.522 30.4624 32.159 29.478 31.9911L29.3098 32.9769ZM31.4192 33.8845L30.7894 34.6612C31.2129 35.0047 31.5077 35.4273 31.6853 35.948L32.6317 35.6252L33.5782 35.3025C33.2798 34.4272 32.7662 33.6894 32.0491 33.1078L31.4192 33.8845ZM32.6317 35.6252L31.6901 35.9619C31.8696 36.4638 31.9201 37.0615 31.7969 37.7836L32.7827 37.9517L33.7684 38.1199C33.9385 37.1228 33.8884 36.1695 33.5734 35.2885L32.6317 35.6252ZM32.7827 37.9517L31.7969 37.7836C31.6765 38.489 31.4325 39.0512 31.0866 39.5002L31.8787 40.1105L32.6709 40.7208C33.2423 39.979 33.6009 39.1021 33.7684 38.1199L32.7827 37.9517ZM31.8787 40.1105L31.0896 39.4962C30.747 39.9364 30.32 40.2498 29.7905 40.4472L30.1398 41.3842L30.4891 42.3212C31.3636 41.9952 32.0959 41.4594 32.6678 40.7247L31.8787 40.1105ZM30.1398 41.3842L29.7942 40.4458C29.2945 40.6298 28.6958 40.6834 27.9676 40.5591L27.7994 41.5449L27.6313 42.5306C28.638 42.7024 29.5995 42.6488 30.4854 42.3226L30.1398 41.3842ZM28.1437 39.7411L27.9755 40.7268C28.6587 40.8434 29.3431 40.799 29.9575 40.4893L29.5074 39.5964L29.0573 38.7034C28.9259 38.7696 28.7011 38.8217 28.3118 38.7553L28.1437 39.7411ZM29.5074 39.5964L29.9575 40.4893C30.4957 40.2181 30.9303 39.819 31.2431 39.3041L30.3884 38.785L29.5338 38.2658C29.4177 38.4569 29.265 38.5987 29.0573 38.7034L29.5074 39.5964ZM30.3884 38.785L31.2431 39.3041C31.5208 38.847 31.7076 38.3548 31.7967 37.8322L30.8109 37.6641L29.8252 37.4959C29.7798 37.7619 29.6849 38.017 29.5338 38.2658L30.3884 38.785ZM30.8109 37.6641L31.7967 37.8322C31.8634 37.4413 31.871 37.045 31.823 36.6468L30.8302 36.7665L29.8374 36.8862C29.8633 37.1012 29.858 37.3033 29.8252 37.4959L30.8109 37.6641ZM30.8302 36.7665L31.8257 36.6717C31.7846 36.2409 31.6648 35.8294 31.4689 35.4432L30.577 35.8955L29.6852 36.3478C29.7686 36.5124 29.8175 36.6816 29.8347 36.8614L30.8302 36.7665ZM30.577 35.8955L31.4782 35.4622C31.2738 35.037 30.9743 34.6805 30.6007 34.3937L29.9918 35.187L29.383 35.9803C29.526 36.0901 29.6167 36.206 29.6758 36.3289L30.577 35.8955ZM29.9918 35.187L30.6007 34.3937C30.1802 34.071 29.677 33.8876 29.1456 33.7969L28.9774 34.7827L28.8092 35.7684C29.1137 35.8204 29.2868 35.9065 29.383 35.9803L29.9918 35.187ZM28.9774 34.7827L29.1456 33.7969C28.4665 33.6811 27.7872 33.7281 27.1754 34.0364L27.6255 34.9294L28.0755 35.8224C28.2096 35.7548 28.4316 35.704 28.8092 35.7684L28.9774 34.7827ZM27.6255 34.9294L27.1893 34.0295C26.6487 34.2916 26.2105 34.6846 25.8894 35.1926L26.7346 35.727L27.5799 36.2613C27.7034 36.0661 27.8591 35.9274 28.0616 35.8293L27.6255 34.9294ZM26.7346 35.727L25.88 35.2078C25.5984 35.6714 25.4122 36.1764 25.3203 36.7152L26.3061 36.8834L27.2918 37.0515C27.3425 36.7544 27.4421 36.4885 27.5893 36.2461L26.7346 35.727ZM26.3061 36.8834L25.3203 36.7152C25.2272 37.2607 25.2409 37.8058 25.3642 38.3424L26.3388 38.1185L27.3135 37.8946C27.2504 37.6203 27.2423 37.3419 27.2918 37.0515L26.3061 36.8834ZM26.3388 38.1185L25.3642 38.3424C25.4988 38.9281 25.7818 39.4442 26.205 39.8707L26.9148 39.1663L27.6246 38.4619C27.4662 38.3022 27.3652 38.1197 27.3135 37.8946L26.3388 38.1185ZM26.9148 39.1663L26.2129 39.8785C26.6912 40.3498 27.3057 40.6126 27.9755 40.7268L28.1437 39.7411L28.3118 38.7553C27.9407 38.692 27.736 38.5715 27.6168 38.454L26.9148 39.1663ZM33.2847 42.3833L32.2989 42.2151L32.1308 43.2009L33.1165 43.369L33.2847 42.3833ZM34.7134 34.0083L34.8816 33.0225L33.8958 32.8543L33.7277 33.8401L34.7134 34.0083ZM36.5706 34.3251L37.4723 33.8926L37.2486 33.4263L36.7388 33.3393L36.5706 34.3251ZM39.3812 40.1852L38.4795 40.6176L39.8384 43.4511L40.3669 40.3534L39.3812 40.1852ZM40.2731 34.9567L40.4413 33.971L39.4555 33.8028L39.2874 34.7886L40.2731 34.9567ZM42.2013 35.2857L43.187 35.4538L43.3552 34.4681L42.3694 34.2999L42.2013 35.2857ZM40.7725 43.6607L40.6043 44.6464L41.5901 44.8146L41.7583 43.8288L40.7725 43.6607ZM38.9627 43.3519L38.0666 43.7959L38.2927 44.2521L38.7945 44.3377L38.9627 43.3519ZM36.0829 37.5409L36.9789 37.0968L35.614 34.3427L35.0971 37.3727L36.0829 37.5409ZM35.201 42.7102L35.0328 43.6959L36.0186 43.8641L36.1868 42.8783L35.201 42.7102ZM33.2847 42.3833L34.2704 42.5514L35.6992 34.1764L34.7134 34.0083L33.7277 33.8401L32.2989 42.2151L33.2847 42.3833ZM34.7134 34.0083L34.5453 34.994L36.4024 35.3108L36.5706 34.3251L36.7388 33.3393L34.8816 33.0225L34.7134 34.0083ZM36.5706 34.3251L35.6689 34.7575L38.4795 40.6176L39.3812 40.1852L40.2828 39.7527L37.4723 33.8926L36.5706 34.3251ZM39.3812 40.1852L40.3669 40.3534L41.2589 35.1249L40.2731 34.9567L39.2874 34.7886L38.3954 40.017L39.3812 40.1852ZM40.2731 34.9567L40.1049 35.9425L42.0331 36.2714L42.2013 35.2857L42.3694 34.2999L40.4413 33.971L40.2731 34.9567ZM42.2013 35.2857L41.2155 35.1175L39.7868 43.4925L40.7725 43.6607L41.7583 43.8288L43.187 35.4538L42.2013 35.2857ZM40.7725 43.6607L40.9407 42.6749L39.1308 42.3661L38.9627 43.3519L38.7945 44.3377L40.6043 44.6464L40.7725 43.6607ZM38.9627 43.3519L39.8587 42.9079L36.9789 37.0968L36.0829 37.5409L35.1869 37.9849L38.0666 43.7959L38.9627 43.3519ZM36.0829 37.5409L35.0971 37.3727L34.2152 42.542L35.201 42.7102L36.1868 42.8783L37.0686 37.709L36.0829 37.5409ZM35.201 42.7102L35.3692 41.7244L33.4529 41.3975L33.2847 42.3833L33.1165 43.369L35.0328 43.6959L35.201 42.7102Z" fill="white" mask="url(#path-6-outside-1_108_18)"/>
<mask id="path-8-outside-2_108_18" maskUnits="userSpaceOnUse" x="5.35053" y="27.8176" width="38.4911" height="18.0513" fill="black">
<rect fill="white" x="5.35053" y="27.8176" width="38.4911" height="18.0513"/>
<path d="M11.2225 38.7169C10.3629 38.5703 9.64797 38.2657 9.07762 37.8032C8.51651 37.3342 8.12089 36.7513 7.89076 36.0547C7.66198 35.3502 7.61956 34.5761 7.76351 33.7322C7.9115 32.8648 8.21347 32.1413 8.66943 31.5617C9.13462 30.9756 9.71293 30.5589 10.4044 30.3116C11.0971 30.0565 11.8733 30.0023 12.7329 30.1489C13.5767 30.2928 14.2798 30.5954 14.8423 31.0566C15.4126 31.5191 15.8168 32.0993 16.0548 32.7973C16.3021 33.4887 16.3524 34.2642 16.2057 35.1238C16.0618 35.9676 15.7605 36.6872 15.3018 37.2825C14.8445 37.87 14.2649 38.2945 13.5629 38.5562C12.8701 38.8113 12.09 38.8649 11.2225 38.7169ZM11.5668 36.9131C12.103 37.0046 12.5576 36.9564 12.9305 36.7684C13.3034 36.5804 13.5971 36.31 13.8115 35.957C14.0259 35.604 14.1668 35.2304 14.234 34.8361C14.2838 34.5443 14.2902 34.2451 14.2532 33.9385C14.2242 33.6333 14.1398 33.343 14.0001 33.0676C13.8683 32.7935 13.6733 32.5573 13.4149 32.3591C13.1566 32.1608 12.8184 32.026 12.4005 31.9547C11.8721 31.8646 11.4215 31.9135 11.0485 32.1015C10.677 32.2815 10.38 32.5474 10.1577 32.899C9.94332 33.252 9.80046 33.6374 9.72916 34.0554C9.65786 34.4734 9.66878 34.8851 9.76192 35.2905C9.85507 35.6959 10.0471 36.0452 10.3379 36.3383C10.6367 36.6327 11.0463 36.8243 11.5668 36.9131ZM16.1991 39.4685L16.4554 37.9662L21.5245 33.5843L17.4435 32.8881L17.7462 31.1137L24.3468 32.2398L24.0905 33.742L19.0194 38.1358L23.1478 38.8401L22.8471 40.6026L16.1991 39.4685ZM27.7994 41.5449C26.9398 41.3982 26.2249 41.0937 25.6545 40.6312C25.0934 40.1621 24.6978 39.5793 24.4677 38.8827C24.2389 38.1782 24.1965 37.404 24.3404 36.5602C24.4884 35.6927 24.7904 34.9692 25.2463 34.3896C25.7115 33.8035 26.2898 33.3868 26.9813 33.1396C27.674 32.8845 28.4502 32.8302 29.3098 32.9769C30.1536 33.1208 30.8567 33.4234 31.4192 33.8845C31.9895 34.347 32.3937 34.9273 32.6317 35.6252C32.879 36.3166 32.9293 37.0921 32.7827 37.9517C32.6387 38.7955 32.3374 39.5151 31.8787 40.1105C31.4214 40.6979 30.8418 41.1225 30.1398 41.3842C29.447 41.6393 28.6669 41.6929 27.7994 41.5449ZM28.1437 39.7411C28.6799 39.8326 29.1345 39.7843 29.5074 39.5964C29.8804 39.4084 30.174 39.1379 30.3884 38.785C30.6028 38.432 30.7437 38.0584 30.8109 37.6641C30.8607 37.3723 30.8671 37.0731 30.8302 36.7665C30.8011 36.4613 30.7167 36.1709 30.577 35.8955C30.4452 35.6215 30.2502 35.3853 29.9918 35.187C29.7335 34.9888 29.3953 34.854 28.9774 34.7827C28.449 34.6925 27.9984 34.7415 27.6255 34.9294C27.2539 35.1095 26.9569 35.3753 26.7346 35.727C26.5202 36.0799 26.3774 36.4654 26.3061 36.8834C26.2348 37.3013 26.2457 37.713 26.3388 38.1185C26.432 38.5239 26.624 38.8732 26.9148 39.1663C27.2136 39.4607 27.6232 39.6523 28.1437 39.7411ZM33.2847 42.3833L34.7134 34.0083L36.5706 34.3251L39.3812 40.1852L40.2731 34.9567L42.2013 35.2857L40.7725 43.6607L38.9627 43.3519L36.0829 37.5409L35.201 42.7102L33.2847 42.3833Z"/>
</mask>
<path d="M11.2225 38.7169C10.3629 38.5703 9.64797 38.2657 9.07762 37.8032C8.51651 37.3342 8.12089 36.7513 7.89076 36.0547C7.66198 35.3502 7.61956 34.5761 7.76351 33.7322C7.9115 32.8648 8.21347 32.1413 8.66943 31.5617C9.13462 30.9756 9.71293 30.5589 10.4044 30.3116C11.0971 30.0565 11.8733 30.0023 12.7329 30.1489C13.5767 30.2928 14.2798 30.5954 14.8423 31.0566C15.4126 31.5191 15.8168 32.0993 16.0548 32.7973C16.3021 33.4887 16.3524 34.2642 16.2057 35.1238C16.0618 35.9676 15.7605 36.6872 15.3018 37.2825C14.8445 37.87 14.2649 38.2945 13.5629 38.5562C12.8701 38.8113 12.09 38.8649 11.2225 38.7169ZM11.5668 36.9131C12.103 37.0046 12.5576 36.9564 12.9305 36.7684C13.3034 36.5804 13.5971 36.31 13.8115 35.957C14.0259 35.604 14.1668 35.2304 14.234 34.8361C14.2838 34.5443 14.2902 34.2451 14.2532 33.9385C14.2242 33.6333 14.1398 33.343 14.0001 33.0676C13.8683 32.7935 13.6733 32.5573 13.4149 32.3591C13.1566 32.1608 12.8184 32.026 12.4005 31.9547C11.8721 31.8646 11.4215 31.9135 11.0485 32.1015C10.677 32.2815 10.38 32.5474 10.1577 32.899C9.94332 33.252 9.80046 33.6374 9.72916 34.0554C9.65786 34.4734 9.66878 34.8851 9.76192 35.2905C9.85507 35.6959 10.0471 36.0452 10.3379 36.3383C10.6367 36.6327 11.0463 36.8243 11.5668 36.9131ZM16.1991 39.4685L16.4554 37.9662L21.5245 33.5843L17.4435 32.8881L17.7462 31.1137L24.3468 32.2398L24.0905 33.742L19.0194 38.1358L23.1478 38.8401L22.8471 40.6026L16.1991 39.4685ZM27.7994 41.5449C26.9398 41.3982 26.2249 41.0937 25.6545 40.6312C25.0934 40.1621 24.6978 39.5793 24.4677 38.8827C24.2389 38.1782 24.1965 37.404 24.3404 36.5602C24.4884 35.6927 24.7904 34.9692 25.2463 34.3896C25.7115 33.8035 26.2898 33.3868 26.9813 33.1396C27.674 32.8845 28.4502 32.8302 29.3098 32.9769C30.1536 33.1208 30.8567 33.4234 31.4192 33.8845C31.9895 34.347 32.3937 34.9273 32.6317 35.6252C32.879 36.3166 32.9293 37.0921 32.7827 37.9517C32.6387 38.7955 32.3374 39.5151 31.8787 40.1105C31.4214 40.6979 30.8418 41.1225 30.1398 41.3842C29.447 41.6393 28.6669 41.6929 27.7994 41.5449ZM28.1437 39.7411C28.6799 39.8326 29.1345 39.7843 29.5074 39.5964C29.8804 39.4084 30.174 39.1379 30.3884 38.785C30.6028 38.432 30.7437 38.0584 30.8109 37.6641C30.8607 37.3723 30.8671 37.0731 30.8302 36.7665C30.8011 36.4613 30.7167 36.1709 30.577 35.8955C30.4452 35.6215 30.2502 35.3853 29.9918 35.187C29.7335 34.9888 29.3953 34.854 28.9774 34.7827C28.449 34.6925 27.9984 34.7415 27.6255 34.9294C27.2539 35.1095 26.9569 35.3753 26.7346 35.727C26.5202 36.0799 26.3774 36.4654 26.3061 36.8834C26.2348 37.3013 26.2457 37.713 26.3388 38.1185C26.432 38.5239 26.624 38.8732 26.9148 39.1663C27.2136 39.4607 27.6232 39.6523 28.1437 39.7411ZM33.2847 42.3833L34.7134 34.0083L36.5706 34.3251L39.3812 40.1852L40.2731 34.9567L42.2013 35.2857L40.7725 43.6607L38.9627 43.3519L36.0829 37.5409L35.201 42.7102L33.2847 42.3833Z" fill="#B0FF12"/>
<path d="M9.07762 37.8032L8.43627 38.5705L8.44199 38.5752L8.44778 38.5799L9.07762 37.8032ZM7.89076 36.0547L6.93964 36.3636L6.94123 36.3684L7.89076 36.0547ZM8.66943 31.5617L7.88615 30.94L7.88349 30.9434L8.66943 31.5617ZM10.4044 30.3116L10.7411 31.2533L10.7499 31.25L10.4044 30.3116ZM14.8423 31.0566L14.2082 31.8299L14.2124 31.8333L14.8423 31.0566ZM16.0548 32.7973L15.1083 33.12L15.1107 33.127L15.1132 33.134L16.0548 32.7973ZM15.3018 37.2825L16.0909 37.8968L16.094 37.8928L15.3018 37.2825ZM13.5629 38.5562L13.9085 39.4946L13.9121 39.4932L13.5629 38.5562ZM13.8115 35.957L12.9568 35.4378L12.9568 35.4378L13.8115 35.957ZM14.2532 33.9385L13.2578 34.0334L13.2589 34.0458L13.2604 34.0583L14.2532 33.9385ZM14.0001 33.0676L13.0989 33.5009L13.1035 33.5105L13.1082 33.5199L14.0001 33.0676ZM13.4149 32.3591L14.0238 31.5658L14.0238 31.5658L13.4149 32.3591ZM11.0485 32.1015L11.4847 33.0013L11.4917 32.9979L11.4986 32.9944L11.0485 32.1015ZM10.1577 32.899L9.31248 32.3646L9.3077 32.3722L9.30306 32.3798L10.1577 32.899ZM10.3379 36.3383L9.62808 37.0427L9.63597 37.0505L10.3379 36.3383ZM11.2225 38.7169L11.3907 37.7312C10.6686 37.608 10.1214 37.3622 9.70747 37.0265L9.07762 37.8032L8.44778 38.5799C9.17452 39.1693 10.0573 39.5326 11.0543 39.7027L11.2225 38.7169ZM9.07762 37.8032L9.71897 37.036C9.30132 36.6868 9.01216 36.2613 8.84029 35.741L7.89076 36.0547L6.94123 36.3684C7.22962 37.2414 7.7317 37.9815 8.43627 38.5705L9.07762 37.8032ZM7.89076 36.0547L8.84187 35.7459C8.67032 35.2176 8.62827 34.6097 8.74927 33.9004L7.76351 33.7322L6.77775 33.5641C6.61085 34.5424 6.65364 35.4828 6.93965 36.3636L7.89076 36.0547ZM7.76351 33.7322L8.74927 33.9004C8.87463 33.1656 9.12071 32.6054 9.45537 32.18L8.66943 31.5617L7.88349 30.9434C7.30624 31.6771 6.94837 32.564 6.77775 33.5641L7.76351 33.7322ZM8.66943 31.5617L9.45271 32.1834C9.80416 31.7405 10.2289 31.4364 10.7411 31.2532L10.4044 30.3116L10.0676 29.37C9.19691 29.6814 8.46508 30.2106 7.88615 30.94L8.66943 31.5617ZM10.4044 30.3116L10.7499 31.25C11.251 31.0655 11.8462 31.0121 12.5647 31.1347L12.7329 30.1489L12.9011 29.1631C11.9004 28.9924 10.9432 29.0475 10.0588 29.3732L10.4044 30.3116ZM12.7329 30.1489L12.5647 31.1347C13.2679 31.2546 13.802 31.4968 14.2083 31.8299L14.8423 31.0566L15.4763 30.2832C14.7576 29.694 13.8855 29.3311 12.9011 29.1631L12.7329 30.1489ZM14.8423 31.0566L14.2124 31.8333C14.636 32.1767 14.9308 32.5993 15.1083 33.12L16.0548 32.7973L17.0013 32.4745C16.7028 31.5992 16.1893 30.8614 15.4721 30.2798L14.8423 31.0566ZM16.0548 32.7973L15.1132 33.134C15.2927 33.6358 15.3432 34.2335 15.22 34.9556L16.2057 35.1238L17.1915 35.2919C17.3616 34.2949 17.3115 33.3416 16.9964 32.4605L16.0548 32.7973ZM16.2057 35.1238L15.22 34.9556C15.0996 35.661 14.8555 36.2232 14.5097 36.6722L15.3018 37.2825L16.094 37.8928C16.6654 37.1511 17.0239 36.2741 17.1915 35.2919L16.2057 35.1238ZM15.3018 37.2825L14.5127 36.6682C14.1701 37.1085 13.7431 37.4218 13.2136 37.6192L13.5629 38.5562L13.9121 39.4932C14.7867 39.1672 15.519 38.6315 16.0909 37.8968L15.3018 37.2825ZM13.5629 38.5562L13.2173 37.6178C12.7176 37.8018 12.1189 37.8554 11.3907 37.7312L11.2225 38.7169L11.0543 39.7027C12.0611 39.8744 13.0226 39.8208 13.9085 39.4946L13.5629 38.5562ZM11.5668 36.9131L11.3986 37.8989C12.0818 38.0154 12.7662 37.9711 13.3806 37.6614L12.9305 36.7684L12.4804 35.8754C12.349 35.9417 12.1242 35.9938 11.7349 35.9274L11.5668 36.9131ZM12.9305 36.7684L13.3806 37.6614C13.9187 37.3901 14.3534 36.9911 14.6662 36.4762L13.8115 35.957L12.9568 35.4378C12.8408 35.6289 12.6881 35.7707 12.4804 35.8754L12.9305 36.7684ZM13.8115 35.957L14.6662 36.4762C14.9439 36.0191 15.1306 35.5268 15.2198 35.0043L14.234 34.8361L13.2483 34.6679C13.2029 34.934 13.108 35.189 12.9568 35.4378L13.8115 35.957ZM14.234 34.8361L15.2198 35.0043C15.2865 34.6133 15.2941 34.217 15.2461 33.8188L14.2532 33.9385L13.2604 34.0583C13.2864 34.2732 13.2811 34.4753 13.2483 34.6679L14.234 34.8361ZM14.2532 33.9385L15.2487 33.8437C15.2077 33.413 15.0878 33.0015 14.892 32.6153L14.0001 33.0676L13.1082 33.5199C13.1917 33.6845 13.2406 33.8536 13.2578 34.0334L14.2532 33.9385ZM14.0001 33.0676L14.9013 32.6342C14.6969 32.209 14.3974 31.8525 14.0238 31.5658L13.4149 32.3591L12.8061 33.1524C12.9491 33.2621 13.0398 33.378 13.0989 33.5009L14.0001 33.0676ZM13.4149 32.3591L14.0238 31.5658C13.6033 31.2431 13.1001 31.0596 12.5686 30.969L12.4005 31.9547L12.2323 32.9405C12.5368 32.9924 12.7099 33.0785 12.8061 33.1524L13.4149 32.3591ZM12.4005 31.9547L12.5686 30.969C11.8896 30.8531 11.2102 30.9001 10.5984 31.2085L11.0485 32.1015L11.4986 32.9944C11.6327 32.9269 11.8547 32.876 12.2323 32.9405L12.4005 31.9547ZM11.0485 32.1015L10.6124 31.2016C10.0717 31.4636 9.63362 31.8567 9.31248 32.3646L10.1577 32.899L11.003 33.4334C11.1264 33.2381 11.2822 33.0995 11.4847 33.0013L11.0485 32.1015ZM10.1577 32.899L9.30306 32.3798C9.02147 32.8434 8.83532 33.3484 8.7434 33.8872L9.72916 34.0554L10.7149 34.2236C10.7656 33.9264 10.8652 33.6606 11.0124 33.4182L10.1577 32.899ZM9.72916 34.0554L8.7434 33.8872C8.65033 34.4328 8.66403 34.9778 8.78731 35.5144L9.76192 35.2905L10.7365 35.0666C10.6735 34.7923 10.6654 34.514 10.7149 34.2236L9.72916 34.0554ZM9.76192 35.2905L8.78731 35.5144C8.92188 36.1001 9.20489 36.6162 9.62812 37.0427L10.3379 36.3383L11.0477 35.6339C10.8892 35.4742 10.7883 35.2918 10.7365 35.0666L9.76192 35.2905ZM10.3379 36.3383L9.63597 37.0505C10.1142 37.5219 10.7288 37.7846 11.3986 37.8989L11.5668 36.9131L11.7349 35.9274C11.3637 35.864 11.1591 35.7436 11.0399 35.6261L10.3379 36.3383ZM16.1991 39.4685L15.2134 39.3004L15.0452 40.2861L16.031 40.4543L16.1991 39.4685ZM16.4554 37.9662L15.8014 37.2097L15.53 37.4444L15.4696 37.7981L16.4554 37.9662ZM21.5245 33.5843L22.1785 34.3408L23.7817 32.9549L21.6927 32.5985L21.5245 33.5843ZM17.4435 32.8881L16.4577 32.7199L16.2895 33.7057L17.2753 33.8738L17.4435 32.8881ZM17.7462 31.1137L17.9143 30.1279L16.9286 29.9598L16.7604 30.9455L17.7462 31.1137ZM24.3468 32.2398L25.3326 32.4079L25.5007 31.4222L24.515 31.254L24.3468 32.2398ZM24.0905 33.742L24.7453 34.4978L25.016 34.2633L25.0763 33.9102L24.0905 33.742ZM19.0194 38.1358L18.3646 37.3801L16.7653 38.7657L18.8512 39.1216L19.0194 38.1358ZM23.1478 38.8401L24.1335 39.0083L24.3017 38.0225L23.3159 37.8544L23.1478 38.8401ZM22.8471 40.6026L22.6789 41.5884L23.6647 41.7566L23.8328 40.7708L22.8471 40.6026ZM16.1991 39.4685L17.1849 39.6367L17.4412 38.1344L16.4554 37.9662L15.4696 37.7981L15.2134 39.3004L16.1991 39.4685ZM16.4554 37.9662L17.1094 38.7228L22.1785 34.3408L21.5245 33.5843L20.8705 32.8278L15.8014 37.2097L16.4554 37.9662ZM21.5245 33.5843L21.6927 32.5985L17.6116 31.9023L17.4435 32.8881L17.2753 33.8738L21.3563 34.57L21.5245 33.5843ZM17.4435 32.8881L18.4292 33.0562L18.7319 31.2819L17.7462 31.1137L16.7604 30.9455L16.4577 32.7199L17.4435 32.8881ZM17.7462 31.1137L17.578 32.0995L24.1786 33.2255L24.3468 32.2398L24.515 31.254L17.9143 30.1279L17.7462 31.1137ZM24.3468 32.2398L23.361 32.0716L23.1048 33.5739L24.0905 33.742L25.0763 33.9102L25.3326 32.4079L24.3468 32.2398ZM24.0905 33.742L23.4357 32.9863L18.3646 37.3801L19.0194 38.1358L19.6742 38.8916L24.7453 34.4978L24.0905 33.742ZM19.0194 38.1358L18.8512 39.1216L22.9796 39.8259L23.1478 38.8401L23.3159 37.8544L19.1876 37.1501L19.0194 38.1358ZM23.1478 38.8401L22.162 38.6719L21.8613 40.4345L22.8471 40.6026L23.8328 40.7708L24.1335 39.0083L23.1478 38.8401ZM22.8471 40.6026L23.0152 39.6169L16.3673 38.4828L16.1991 39.4685L16.031 40.4543L22.6789 41.5884L22.8471 40.6026ZM25.6545 40.6312L25.0132 41.3984L25.0189 41.4032L25.0247 41.4079L25.6545 40.6312ZM24.4677 38.8827L23.5166 39.1916L23.5181 39.1964L24.4677 38.8827ZM25.2463 34.3896L24.4631 33.768L24.4604 33.7713L25.2463 34.3896ZM26.9813 33.1396L27.318 34.0812L27.3269 34.078L26.9813 33.1396ZM31.4192 33.8845L30.7852 34.6578L30.7894 34.6612L31.4192 33.8845ZM32.6317 35.6252L31.6853 35.948L31.6876 35.955L31.6901 35.9619L32.6317 35.6252ZM31.8787 40.1105L32.6679 40.7247L32.6709 40.7208L31.8787 40.1105ZM30.1398 41.3842L30.4854 42.3226L30.4891 42.3212L30.1398 41.3842ZM30.3884 38.785L29.5338 38.2658L29.5338 38.2658L30.3884 38.785ZM30.8302 36.7665L29.8347 36.8614L29.8359 36.8738L29.8374 36.8862L30.8302 36.7665ZM30.577 35.8955L29.6758 36.3289L29.6804 36.3384L29.6852 36.3478L30.577 35.8955ZM29.9918 35.187L30.6007 34.3937L30.6007 34.3937L29.9918 35.187ZM27.6255 34.9294L28.0616 35.8293L28.0686 35.8259L28.0755 35.8224L27.6255 34.9294ZM26.7346 35.727L25.8894 35.1926L25.8846 35.2002L25.88 35.2078L26.7346 35.727ZM26.9148 39.1663L26.205 39.8707L26.2129 39.8785L26.9148 39.1663ZM27.7994 41.5449L27.9676 40.5591C27.2455 40.4359 26.6983 40.1901 26.2844 39.8545L25.6545 40.6312L25.0247 41.4079C25.7514 41.9972 26.6342 42.3606 27.6313 42.5306L27.7994 41.5449ZM25.6545 40.6312L26.2959 39.8639C25.8782 39.5148 25.5891 39.0893 25.4172 38.569L24.4677 38.8827L23.5181 39.1964C23.8065 40.0693 24.3086 40.8095 25.0132 41.3984L25.6545 40.6312ZM24.4677 38.8827L25.4188 38.5738C25.2472 38.0456 25.2052 37.4376 25.3262 36.7284L24.3404 36.5602L23.3547 36.392C23.1878 37.3704 23.2306 38.3108 23.5166 39.1915L24.4677 38.8827ZM24.3404 36.5602L25.3262 36.7284C25.4515 35.9936 25.6976 35.4333 26.0323 35.0079L25.2463 34.3896L24.4604 33.7713C23.8832 34.5051 23.5253 35.3919 23.3547 36.392L24.3404 36.5602ZM25.2463 34.3896L26.0296 35.0113C26.3811 34.5685 26.8059 34.2643 27.318 34.0812L26.9813 33.1396L26.6446 32.198C25.7738 32.5094 25.042 33.0386 24.4631 33.768L25.2463 34.3896ZM26.9813 33.1396L27.3269 34.078C27.8279 33.8934 28.4231 33.84 29.1416 33.9626L29.3098 32.9769L29.478 31.9911C28.4774 31.8204 27.5201 31.8755 26.6357 32.2012L26.9813 33.1396ZM29.3098 32.9769L29.1416 33.9626C29.8448 34.0826 30.3789 34.3248 30.7852 34.6578L31.4192 33.8845L32.0532 33.1112C31.3345 32.522 30.4624 32.159 29.478 31.9911L29.3098 32.9769ZM31.4192 33.8845L30.7894 34.6612C31.2129 35.0047 31.5077 35.4273 31.6853 35.948L32.6317 35.6252L33.5782 35.3025C33.2798 34.4272 32.7662 33.6894 32.0491 33.1078L31.4192 33.8845ZM32.6317 35.6252L31.6901 35.9619C31.8696 36.4638 31.9201 37.0615 31.7969 37.7836L32.7827 37.9517L33.7684 38.1199C33.9385 37.1228 33.8884 36.1695 33.5734 35.2885L32.6317 35.6252ZM32.7827 37.9517L31.7969 37.7836C31.6765 38.489 31.4325 39.0512 31.0866 39.5002L31.8787 40.1105L32.6709 40.7208C33.2423 39.979 33.6009 39.1021 33.7684 38.1199L32.7827 37.9517ZM31.8787 40.1105L31.0896 39.4962C30.747 39.9364 30.32 40.2498 29.7905 40.4472L30.1398 41.3842L30.4891 42.3212C31.3636 41.9952 32.0959 41.4594 32.6678 40.7247L31.8787 40.1105ZM30.1398 41.3842L29.7942 40.4458C29.2945 40.6298 28.6958 40.6834 27.9676 40.5591L27.7994 41.5449L27.6313 42.5306C28.638 42.7024 29.5995 42.6488 30.4854 42.3226L30.1398 41.3842ZM28.1437 39.7411L27.9755 40.7268C28.6587 40.8434 29.3431 40.799 29.9575 40.4893L29.5074 39.5964L29.0573 38.7034C28.9259 38.7696 28.7011 38.8217 28.3118 38.7553L28.1437 39.7411ZM29.5074 39.5964L29.9575 40.4893C30.4957 40.2181 30.9303 39.819 31.2431 39.3041L30.3884 38.785L29.5338 38.2658C29.4177 38.4569 29.265 38.5987 29.0573 38.7034L29.5074 39.5964ZM30.3884 38.785L31.2431 39.3041C31.5208 38.847 31.7076 38.3548 31.7967 37.8322L30.8109 37.6641L29.8252 37.4959C29.7798 37.7619 29.6849 38.017 29.5338 38.2658L30.3884 38.785ZM30.8109 37.6641L31.7967 37.8322C31.8634 37.4413 31.871 37.045 31.823 36.6468L30.8302 36.7665L29.8374 36.8862C29.8633 37.1012 29.858 37.3033 29.8252 37.4959L30.8109 37.6641ZM30.8302 36.7665L31.8257 36.6717C31.7846 36.2409 31.6648 35.8294 31.4689 35.4432L30.577 35.8955L29.6852 36.3478C29.7686 36.5124 29.8175 36.6816 29.8347 36.8614L30.8302 36.7665ZM30.577 35.8955L31.4782 35.4622C31.2738 35.037 30.9743 34.6805 30.6007 34.3937L29.9918 35.187L29.383 35.9803C29.526 36.0901 29.6167 36.206 29.6758 36.3289L30.577 35.8955ZM29.9918 35.187L30.6007 34.3937C30.1802 34.071 29.677 33.8876 29.1456 33.7969L28.9774 34.7827L28.8092 35.7684C29.1137 35.8204 29.2868 35.9065 29.383 35.9803L29.9918 35.187ZM28.9774 34.7827L29.1456 33.7969C28.4665 33.6811 27.7872 33.7281 27.1754 34.0364L27.6255 34.9294L28.0755 35.8224C28.2096 35.7548 28.4316 35.704 28.8092 35.7684L28.9774 34.7827ZM27.6255 34.9294L27.1893 34.0295C26.6487 34.2916 26.2105 34.6846 25.8894 35.1926L26.7346 35.727L27.5799 36.2613C27.7034 36.0661 27.8591 35.9274 28.0616 35.8293L27.6255 34.9294ZM26.7346 35.727L25.88 35.2078C25.5984 35.6714 25.4122 36.1764 25.3203 36.7152L26.3061 36.8834L27.2918 37.0515C27.3425 36.7544 27.4421 36.4885 27.5893 36.2461L26.7346 35.727ZM26.3061 36.8834L25.3203 36.7152C25.2272 37.2607 25.2409 37.8058 25.3642 38.3424L26.3388 38.1185L27.3135 37.8946C27.2504 37.6203 27.2423 37.3419 27.2918 37.0515L26.3061 36.8834ZM26.3388 38.1185L25.3642 38.3424C25.4988 38.9281 25.7818 39.4442 26.205 39.8707L26.9148 39.1663L27.6246 38.4619C27.4662 38.3022 27.3652 38.1197 27.3135 37.8946L26.3388 38.1185ZM26.9148 39.1663L26.2129 39.8785C26.6912 40.3498 27.3057 40.6126 27.9755 40.7268L28.1437 39.7411L28.3118 38.7553C27.9407 38.692 27.736 38.5715 27.6168 38.454L26.9148 39.1663ZM33.2847 42.3833L32.2989 42.2151L32.1308 43.2009L33.1165 43.369L33.2847 42.3833ZM34.7134 34.0083L34.8816 33.0225L33.8958 32.8543L33.7277 33.8401L34.7134 34.0083ZM36.5706 34.3251L37.4723 33.8926L37.2486 33.4263L36.7388 33.3393L36.5706 34.3251ZM39.3812 40.1852L38.4795 40.6176L39.8384 43.4511L40.3669 40.3534L39.3812 40.1852ZM40.2731 34.9567L40.4413 33.971L39.4555 33.8028L39.2874 34.7886L40.2731 34.9567ZM42.2013 35.2857L43.187 35.4538L43.3552 34.4681L42.3694 34.2999L42.2013 35.2857ZM40.7725 43.6607L40.6043 44.6464L41.5901 44.8146L41.7583 43.8288L40.7725 43.6607ZM38.9627 43.3519L38.0666 43.7959L38.2927 44.2521L38.7945 44.3377L38.9627 43.3519ZM36.0829 37.5409L36.9789 37.0968L35.614 34.3427L35.0971 37.3727L36.0829 37.5409ZM35.201 42.7102L35.0328 43.6959L36.0186 43.8641L36.1868 42.8783L35.201 42.7102ZM33.2847 42.3833L34.2704 42.5514L35.6992 34.1764L34.7134 34.0083L33.7277 33.8401L32.2989 42.2151L33.2847 42.3833ZM34.7134 34.0083L34.5453 34.994L36.4024 35.3108L36.5706 34.3251L36.7388 33.3393L34.8816 33.0225L34.7134 34.0083ZM36.5706 34.3251L35.6689 34.7575L38.4795 40.6176L39.3812 40.1852L40.2828 39.7527L37.4723 33.8926L36.5706 34.3251ZM39.3812 40.1852L40.3669 40.3534L41.2589 35.1249L40.2731 34.9567L39.2874 34.7886L38.3954 40.017L39.3812 40.1852ZM40.2731 34.9567L40.1049 35.9425L42.0331 36.2714L42.2013 35.2857L42.3694 34.2999L40.4413 33.971L40.2731 34.9567ZM42.2013 35.2857L41.2155 35.1175L39.7868 43.4925L40.7725 43.6607L41.7583 43.8288L43.187 35.4538L42.2013 35.2857ZM40.7725 43.6607L40.9407 42.6749L39.1308 42.3661L38.9627 43.3519L38.7945 44.3377L40.6043 44.6464L40.7725 43.6607ZM38.9627 43.3519L39.8587 42.9079L36.9789 37.0968L36.0829 37.5409L35.1869 37.9849L38.0666 43.7959L38.9627 43.3519ZM36.0829 37.5409L35.0971 37.3727L34.2152 42.542L35.201 42.7102L36.1868 42.8783L37.0686 37.709L36.0829 37.5409ZM35.201 42.7102L35.3692 41.7244L33.4529 41.3975L33.2847 42.3833L33.1165 43.369L35.0328 43.6959L35.201 42.7102Z" fill="white" mask="url(#path-8-outside-2_108_18)"/>
<path d="M3.37014 57.9894L6.46138 39.8692L19.1225 42.0291L18.624 44.9509L9.16665 43.3375L8.24409 48.7454L16.3431 50.127L15.8446 53.0488L7.74564 51.6672L6.57385 58.5359L3.37014 57.9894ZM18.788 60.6196L21.8793 42.4994L25.083 43.0459L21.9917 61.1662L18.788 60.6196ZM26.0464 61.8579L29.1377 43.7377L32.5721 44.3236L39.06 59.0138L41.3118 45.8145L44.5155 46.3611L41.4243 64.4813L38.0668 63.9085L31.4888 49.282L29.2501 62.4044L26.0464 61.8579ZM45.469 65.1713L48.5602 47.0511L55.2496 48.1923C57.1462 48.5158 58.6896 49.1572 59.8799 50.1163C61.0732 51.0584 61.8949 52.2712 62.3452 53.7547C62.8155 55.2241 62.8888 56.907 62.5653 58.8036C62.2475 60.6661 61.6318 62.2139 60.7181 63.4471C59.8214 64.6833 58.6526 65.5565 57.2116 66.0668C55.7735 66.5599 54.0976 66.6433 52.1839 66.3168L45.469 65.1713ZM49.1711 62.796L52.6055 63.3819C53.9553 63.6122 55.084 63.541 55.9916 63.1683C56.9192 62.7815 57.6482 62.1673 58.1786 61.3259C58.729 60.4702 59.1077 59.4359 59.3147 58.2227C59.5158 57.0438 59.5071 55.9609 59.2886 54.9741C59.0701 53.9873 58.5874 53.1576 57.8405 52.4851C57.1137 51.7984 56.0753 51.3399 54.7255 51.1097L51.2655 50.5194L49.1711 62.796ZM64.0906 68.3481L67.1818 50.2279L79.971 52.4096L79.4726 55.3314L69.8871 53.6962L69.0738 58.4633L77.4035 59.8843L76.9138 62.7548L68.5841 61.3338L67.7927 65.9728L77.3782 67.6081L76.8798 70.5299L64.0906 68.3481ZM79.9339 71.0509L83.0252 52.9307L90.1759 54.1506C91.0985 54.308 91.9539 54.5506 92.742 54.8785C93.533 55.1892 94.2067 55.6207 94.7631 56.1728C95.3224 56.7078 95.7174 57.3818 95.948 58.1948C96.1785 59.0078 96.1991 59.9697 96.0096 61.0803C95.8522 62.003 95.5514 62.7869 95.1073 63.432C94.6631 64.0772 94.1097 64.5894 93.4472 64.9688C92.8017 65.351 92.0641 65.6032 91.2344 65.7254L94.0046 73.4513L90.4165 72.8392L87.9689 65.6958L84.2526 65.0619L83.1376 71.5974L79.9339 71.0509ZM84.7379 62.217L88.2492 62.816C88.8301 62.9151 89.3671 62.9627 89.8601 62.9589C90.3731 62.9409 90.8279 62.8515 91.2247 62.6906C91.6385 62.5326 91.9714 62.2816 92.2235 61.9378C92.4955 61.5798 92.6911 61.1032 92.8102 60.5081C92.9327 59.7905 92.8751 59.2004 92.6375 58.7379C92.417 58.2782 92.0394 57.9149 91.5047 57.6478C90.987 57.3837 90.3438 57.186 89.5749 57.0549L85.7304 56.399L84.7379 62.217Z" fill="#000756"/>
<mask id="path-11-outside-3_108_18" maskUnits="userSpaceOnUse" x="5.35053" y="27.8176" width="38.4911" height="18.0513" fill="black">
<rect fill="white" x="5.35053" y="27.8176" width="38.4911" height="18.0513"/>
<path d="M11.2225 38.7169C10.3629 38.5703 9.64797 38.2657 9.07762 37.8032C8.51651 37.3342 8.12089 36.7513 7.89076 36.0547C7.66198 35.3502 7.61956 34.5761 7.76351 33.7322C7.9115 32.8648 8.21347 32.1413 8.66943 31.5617C9.13462 30.9756 9.71293 30.5589 10.4044 30.3116C11.0971 30.0565 11.8733 30.0023 12.7329 30.1489C13.5767 30.2928 14.2798 30.5954 14.8423 31.0566C15.4126 31.5191 15.8168 32.0993 16.0548 32.7973C16.3021 33.4887 16.3524 34.2642 16.2057 35.1238C16.0618 35.9676 15.7605 36.6872 15.3018 37.2825C14.8445 37.87 14.2649 38.2945 13.5629 38.5562C12.8701 38.8113 12.09 38.8649 11.2225 38.7169ZM11.5668 36.9131C12.103 37.0046 12.5576 36.9564 12.9305 36.7684C13.3034 36.5804 13.5971 36.31 13.8115 35.957C14.0259 35.604 14.1668 35.2304 14.234 34.8361C14.2838 34.5443 14.2902 34.2451 14.2532 33.9385C14.2242 33.6333 14.1398 33.343 14.0001 33.0676C13.8683 32.7935 13.6733 32.5573 13.4149 32.3591C13.1566 32.1608 12.8184 32.026 12.4005 31.9547C11.8721 31.8646 11.4215 31.9135 11.0485 32.1015C10.677 32.2815 10.38 32.5474 10.1577 32.899C9.94332 33.252 9.80046 33.6374 9.72916 34.0554C9.65786 34.4734 9.66878 34.8851 9.76192 35.2905C9.85507 35.6959 10.0471 36.0452 10.3379 36.3383C10.6367 36.6327 11.0463 36.8243 11.5668 36.9131ZM16.1991 39.4685L16.4554 37.9662L21.5245 33.5843L17.4435 32.8881L17.7462 31.1137L24.3468 32.2398L24.0905 33.742L19.0194 38.1358L23.1478 38.8401L22.8471 40.6026L16.1991 39.4685ZM27.7994 41.5449C26.9398 41.3982 26.2249 41.0937 25.6545 40.6312C25.0934 40.1621 24.6978 39.5793 24.4677 38.8827C24.2389 38.1782 24.1965 37.404 24.3404 36.5602C24.4884 35.6927 24.7904 34.9692 25.2463 34.3896C25.7115 33.8035 26.2898 33.3868 26.9813 33.1396C27.674 32.8845 28.4502 32.8302 29.3098 32.9769C30.1536 33.1208 30.8567 33.4234 31.4192 33.8845C31.9895 34.347 32.3937 34.9273 32.6317 35.6252C32.879 36.3166 32.9293 37.0921 32.7827 37.9517C32.6387 38.7955 32.3374 39.5151 31.8787 40.1105C31.4214 40.6979 30.8418 41.1225 30.1398 41.3842C29.447 41.6393 28.6669 41.6929 27.7994 41.5449ZM28.1437 39.7411C28.6799 39.8326 29.1345 39.7843 29.5074 39.5964C29.8804 39.4084 30.174 39.1379 30.3884 38.785C30.6028 38.432 30.7437 38.0584 30.8109 37.6641C30.8607 37.3723 30.8671 37.0731 30.8302 36.7665C30.8011 36.4613 30.7167 36.1709 30.577 35.8955C30.4452 35.6215 30.2502 35.3853 29.9918 35.187C29.7335 34.9888 29.3953 34.854 28.9774 34.7827C28.449 34.6925 27.9984 34.7415 27.6255 34.9294C27.2539 35.1095 26.9569 35.3753 26.7346 35.727C26.5202 36.0799 26.3774 36.4654 26.3061 36.8834C26.2348 37.3013 26.2457 37.713 26.3388 38.1185C26.432 38.5239 26.624 38.8732 26.9148 39.1663C27.2136 39.4607 27.6232 39.6523 28.1437 39.7411ZM33.2847 42.3833L34.7134 34.0083L36.5706 34.3251L39.3812 40.1852L40.2731 34.9567L42.2013 35.2857L40.7725 43.6607L38.9627 43.3519L36.0829 37.5409L35.201 42.7102L33.2847 42.3833Z"/>
</mask>
<path d="M11.2225 38.7169C10.3629 38.5703 9.64797 38.2657 9.07762 37.8032C8.51651 37.3342 8.12089 36.7513 7.89076 36.0547C7.66198 35.3502 7.61956 34.5761 7.76351 33.7322C7.9115 32.8648 8.21347 32.1413 8.66943 31.5617C9.13462 30.9756 9.71293 30.5589 10.4044 30.3116C11.0971 30.0565 11.8733 30.0023 12.7329 30.1489C13.5767 30.2928 14.2798 30.5954 14.8423 31.0566C15.4126 31.5191 15.8168 32.0993 16.0548 32.7973C16.3021 33.4887 16.3524 34.2642 16.2057 35.1238C16.0618 35.9676 15.7605 36.6872 15.3018 37.2825C14.8445 37.87 14.2649 38.2945 13.5629 38.5562C12.8701 38.8113 12.09 38.8649 11.2225 38.7169ZM11.5668 36.9131C12.103 37.0046 12.5576 36.9564 12.9305 36.7684C13.3034 36.5804 13.5971 36.31 13.8115 35.957C14.0259 35.604 14.1668 35.2304 14.234 34.8361C14.2838 34.5443 14.2902 34.2451 14.2532 33.9385C14.2242 33.6333 14.1398 33.343 14.0001 33.0676C13.8683 32.7935 13.6733 32.5573 13.4149 32.3591C13.1566 32.1608 12.8184 32.026 12.4005 31.9547C11.8721 31.8646 11.4215 31.9135 11.0485 32.1015C10.677 32.2815 10.38 32.5474 10.1577 32.899C9.94332 33.252 9.80046 33.6374 9.72916 34.0554C9.65786 34.4734 9.66878 34.8851 9.76192 35.2905C9.85507 35.6959 10.0471 36.0452 10.3379 36.3383C10.6367 36.6327 11.0463 36.8243 11.5668 36.9131ZM16.1991 39.4685L16.4554 37.9662L21.5245 33.5843L17.4435 32.8881L17.7462 31.1137L24.3468 32.2398L24.0905 33.742L19.0194 38.1358L23.1478 38.8401L22.8471 40.6026L16.1991 39.4685ZM27.7994 41.5449C26.9398 41.3982 26.2249 41.0937 25.6545 40.6312C25.0934 40.1621 24.6978 39.5793 24.4677 38.8827C24.2389 38.1782 24.1965 37.404 24.3404 36.5602C24.4884 35.6927 24.7904 34.9692 25.2463 34.3896C25.7115 33.8035 26.2898 33.3868 26.9813 33.1396C27.674 32.8845 28.4502 32.8302 29.3098 32.9769C30.1536 33.1208 30.8567 33.4234 31.4192 33.8845C31.9895 34.347 32.3937 34.9273 32.6317 35.6252C32.879 36.3166 32.9293 37.0921 32.7827 37.9517C32.6387 38.7955 32.3374 39.5151 31.8787 40.1105C31.4214 40.6979 30.8418 41.1225 30.1398 41.3842C29.447 41.6393 28.6669 41.6929 27.7994 41.5449ZM28.1437 39.7411C28.6799 39.8326 29.1345 39.7843 29.5074 39.5964C29.8804 39.4084 30.174 39.1379 30.3884 38.785C30.6028 38.432 30.7437 38.0584 30.8109 37.6641C30.8607 37.3723 30.8671 37.0731 30.8302 36.7665C30.8011 36.4613 30.7167 36.1709 30.577 35.8955C30.4452 35.6215 30.2502 35.3853 29.9918 35.187C29.7335 34.9888 29.3953 34.854 28.9774 34.7827C28.449 34.6925 27.9984 34.7415 27.6255 34.9294C27.2539 35.1095 26.9569 35.3753 26.7346 35.727C26.5202 36.0799 26.3774 36.4654 26.3061 36.8834C26.2348 37.3013 26.2457 37.713 26.3388 38.1185C26.432 38.5239 26.624 38.8732 26.9148 39.1663C27.2136 39.4607 27.6232 39.6523 28.1437 39.7411ZM33.2847 42.3833L34.7134 34.0083L36.5706 34.3251L39.3812 40.1852L40.2731 34.9567L42.2013 35.2857L40.7725 43.6607L38.9627 43.3519L36.0829 37.5409L35.201 42.7102L33.2847 42.3833Z" fill="#B0FF12"/>
<path d="M9.07762 37.8032L8.43627 38.5705L8.44199 38.5752L8.44778 38.5799L9.07762 37.8032ZM7.89076 36.0547L6.93964 36.3636L6.94123 36.3684L7.89076 36.0547ZM8.66943 31.5617L7.88615 30.94L7.88349 30.9434L8.66943 31.5617ZM10.4044 30.3116L10.7411 31.2533L10.7499 31.25L10.4044 30.3116ZM14.8423 31.0566L14.2082 31.8299L14.2124 31.8333L14.8423 31.0566ZM16.0548 32.7973L15.1083 33.12L15.1107 33.127L15.1132 33.134L16.0548 32.7973ZM15.3018 37.2825L16.0909 37.8968L16.094 37.8928L15.3018 37.2825ZM13.5629 38.5562L13.9085 39.4946L13.9121 39.4932L13.5629 38.5562ZM13.8115 35.957L12.9568 35.4378L12.9568 35.4378L13.8115 35.957ZM14.2532 33.9385L13.2578 34.0334L13.2589 34.0458L13.2604 34.0583L14.2532 33.9385ZM14.0001 33.0676L13.0989 33.5009L13.1035 33.5105L13.1082 33.5199L14.0001 33.0676ZM13.4149 32.3591L14.0238 31.5658L14.0238 31.5658L13.4149 32.3591ZM11.0485 32.1015L11.4847 33.0013L11.4917 32.9979L11.4986 32.9944L11.0485 32.1015ZM10.1577 32.899L9.31248 32.3646L9.3077 32.3722L9.30306 32.3798L10.1577 32.899ZM10.3379 36.3383L9.62808 37.0427L9.63597 37.0505L10.3379 36.3383ZM11.2225 38.7169L11.3907 37.7312C10.6686 37.608 10.1214 37.3622 9.70747 37.0265L9.07762 37.8032L8.44778 38.5799C9.17452 39.1693 10.0573 39.5326 11.0543 39.7027L11.2225 38.7169ZM9.07762 37.8032L9.71897 37.036C9.30132 36.6868 9.01216 36.2613 8.84029 35.741L7.89076 36.0547L6.94123 36.3684C7.22962 37.2414 7.7317 37.9815 8.43627 38.5705L9.07762 37.8032ZM7.89076 36.0547L8.84187 35.7459C8.67032 35.2176 8.62827 34.6097 8.74927 33.9004L7.76351 33.7322L6.77775 33.5641C6.61085 34.5424 6.65364 35.4828 6.93965 36.3636L7.89076 36.0547ZM7.76351 33.7322L8.74927 33.9004C8.87463 33.1656 9.12071 32.6054 9.45537 32.18L8.66943 31.5617L7.88349 30.9434C7.30624 31.6771 6.94837 32.564 6.77775 33.5641L7.76351 33.7322ZM8.66943 31.5617L9.45271 32.1834C9.80416 31.7405 10.2289 31.4364 10.7411 31.2532L10.4044 30.3116L10.0676 29.37C9.19691 29.6814 8.46508 30.2106 7.88615 30.94L8.66943 31.5617ZM10.4044 30.3116L10.7499 31.25C11.251 31.0655 11.8462 31.0121 12.5647 31.1347L12.7329 30.1489L12.9011 29.1631C11.9004 28.9924 10.9432 29.0475 10.0588 29.3732L10.4044 30.3116ZM12.7329 30.1489L12.5647 31.1347C13.2679 31.2546 13.802 31.4968 14.2083 31.8299L14.8423 31.0566L15.4763 30.2832C14.7576 29.694 13.8855 29.3311 12.9011 29.1631L12.7329 30.1489ZM14.8423 31.0566L14.2124 31.8333C14.636 32.1767 14.9308 32.5993 15.1083 33.12L16.0548 32.7973L17.0013 32.4745C16.7028 31.5992 16.1893 30.8614 15.4721 30.2798L14.8423 31.0566ZM16.0548 32.7973L15.1132 33.134C15.2927 33.6358 15.3432 34.2335 15.22 34.9556L16.2057 35.1238L17.1915 35.2919C17.3616 34.2949 17.3115 33.3416 16.9964 32.4605L16.0548 32.7973ZM16.2057 35.1238L15.22 34.9556C15.0996 35.661 14.8555 36.2232 14.5097 36.6722L15.3018 37.2825L16.094 37.8928C16.6654 37.1511 17.0239 36.2741 17.1915 35.2919L16.2057 35.1238ZM15.3018 37.2825L14.5127 36.6682C14.1701 37.1085 13.7431 37.4218 13.2136 37.6192L13.5629 38.5562L13.9121 39.4932C14.7867 39.1672 15.519 38.6315 16.0909 37.8968L15.3018 37.2825ZM13.5629 38.5562L13.2173 37.6178C12.7176 37.8018 12.1189 37.8554 11.3907 37.7312L11.2225 38.7169L11.0543 39.7027C12.0611 39.8744 13.0226 39.8208 13.9085 39.4946L13.5629 38.5562ZM11.5668 36.9131L11.3986 37.8989C12.0818 38.0154 12.7662 37.9711 13.3806 37.6614L12.9305 36.7684L12.4804 35.8754C12.349 35.9417 12.1242 35.9938 11.7349 35.9274L11.5668 36.9131ZM12.9305 36.7684L13.3806 37.6614C13.9187 37.3901 14.3534 36.9911 14.6662 36.4762L13.8115 35.957L12.9568 35.4378C12.8408 35.6289 12.6881 35.7707 12.4804 35.8754L12.9305 36.7684ZM13.8115 35.957L14.6662 36.4762C14.9439 36.0191 15.1306 35.5268 15.2198 35.0043L14.234 34.8361L13.2483 34.6679C13.2029 34.934 13.108 35.189 12.9568 35.4378L13.8115 35.957ZM14.234 34.8361L15.2198 35.0043C15.2865 34.6133 15.2941 34.217 15.2461 33.8188L14.2532 33.9385L13.2604 34.0583C13.2864 34.2732 13.2811 34.4753 13.2483 34.6679L14.234 34.8361ZM14.2532 33.9385L15.2487 33.8437C15.2077 33.413 15.0878 33.0015 14.892 32.6153L14.0001 33.0676L13.1082 33.5199C13.1917 33.6845 13.2406 33.8536 13.2578 34.0334L14.2532 33.9385ZM14.0001 33.0676L14.9013 32.6342C14.6969 32.209 14.3974 31.8525 14.0238 31.5658L13.4149 32.3591L12.8061 33.1524C12.9491 33.2621 13.0398 33.378 13.0989 33.5009L14.0001 33.0676ZM13.4149 32.3591L14.0238 31.5658C13.6033 31.2431 13.1001 31.0596 12.5686 30.969L12.4005 31.9547L12.2323 32.9405C12.5368 32.9924 12.7099 33.0785 12.8061 33.1524L13.4149 32.3591ZM12.4005 31.9547L12.5686 30.969C11.8896 30.8531 11.2102 30.9001 10.5984 31.2085L11.0485 32.1015L11.4986 32.9944C11.6327 32.9269 11.8547 32.876 12.2323 32.9405L12.4005 31.9547ZM11.0485 32.1015L10.6124 31.2016C10.0717 31.4636 9.63362 31.8567 9.31248 32.3646L10.1577 32.899L11.003 33.4334C11.1264 33.2381 11.2822 33.0995 11.4847 33.0013L11.0485 32.1015ZM10.1577 32.899L9.30306 32.3798C9.02147 32.8434 8.83532 33.3484 8.7434 33.8872L9.72916 34.0554L10.7149 34.2236C10.7656 33.9264 10.8652 33.6606 11.0124 33.4182L10.1577 32.899ZM9.72916 34.0554L8.7434 33.8872C8.65033 34.4328 8.66403 34.9778 8.78731 35.5144L9.76192 35.2905L10.7365 35.0666C10.6735 34.7923 10.6654 34.514 10.7149 34.2236L9.72916 34.0554ZM9.76192 35.2905L8.78731 35.5144C8.92188 36.1001 9.20489 36.6162 9.62812 37.0427L10.3379 36.3383L11.0477 35.6339C10.8892 35.4742 10.7883 35.2918 10.7365 35.0666L9.76192 35.2905ZM10.3379 36.3383L9.63597 37.0505C10.1142 37.5219 10.7288 37.7846 11.3986 37.8989L11.5668 36.9131L11.7349 35.9274C11.3637 35.864 11.1591 35.7436 11.0399 35.6261L10.3379 36.3383ZM16.1991 39.4685L15.2134 39.3004L15.0452 40.2861L16.031 40.4543L16.1991 39.4685ZM16.4554 37.9662L15.8014 37.2097L15.53 37.4444L15.4696 37.7981L16.4554 37.9662ZM21.5245 33.5843L22.1785 34.3408L23.7817 32.9549L21.6927 32.5985L21.5245 33.5843ZM17.4435 32.8881L16.4577 32.7199L16.2895 33.7057L17.2753 33.8738L17.4435 32.8881ZM17.7462 31.1137L17.9143 30.1279L16.9286 29.9598L16.7604 30.9455L17.7462 31.1137ZM24.3468 32.2398L25.3326 32.4079L25.5007 31.4222L24.515 31.254L24.3468 32.2398ZM24.0905 33.742L24.7453 34.4978L25.016 34.2633L25.0763 33.9102L24.0905 33.742ZM19.0194 38.1358L18.3646 37.3801L16.7653 38.7657L18.8512 39.1216L19.0194 38.1358ZM23.1478 38.8401L24.1335 39.0083L24.3017 38.0225L23.3159 37.8544L23.1478 38.8401ZM22.8471 40.6026L22.6789 41.5884L23.6647 41.7566L23.8328 40.7708L22.8471 40.6026ZM16.1991 39.4685L17.1849 39.6367L17.4412 38.1344L16.4554 37.9662L15.4696 37.7981L15.2134 39.3004L16.1991 39.4685ZM16.4554 37.9662L17.1094 38.7228L22.1785 34.3408L21.5245 33.5843L20.8705 32.8278L15.8014 37.2097L16.4554 37.9662ZM21.5245 33.5843L21.6927 32.5985L17.6116 31.9023L17.4435 32.8881L17.2753 33.8738L21.3563 34.57L21.5245 33.5843ZM17.4435 32.8881L18.4292 33.0562L18.7319 31.2819L17.7462 31.1137L16.7604 30.9455L16.4577 32.7199L17.4435 32.8881ZM17.7462 31.1137L17.578 32.0995L24.1786 33.2255L24.3468 32.2398L24.515 31.254L17.9143 30.1279L17.7462 31.1137ZM24.3468 32.2398L23.361 32.0716L23.1048 33.5739L24.0905 33.742L25.0763 33.9102L25.3326 32.4079L24.3468 32.2398ZM24.0905 33.742L23.4357 32.9863L18.3646 37.3801L19.0194 38.1358L19.6742 38.8916L24.7453 34.4978L24.0905 33.742ZM19.0194 38.1358L18.8512 39.1216L22.9796 39.8259L23.1478 38.8401L23.3159 37.8544L19.1876 37.1501L19.0194 38.1358ZM23.1478 38.8401L22.162 38.6719L21.8613 40.4345L22.8471 40.6026L23.8328 40.7708L24.1335 39.0083L23.1478 38.8401ZM22.8471 40.6026L23.0152 39.6169L16.3673 38.4828L16.1991 39.4685L16.031 40.4543L22.6789 41.5884L22.8471 40.6026ZM25.6545 40.6312L25.0132 41.3984L25.0189 41.4032L25.0247 41.4079L25.6545 40.6312ZM24.4677 38.8827L23.5166 39.1916L23.5181 39.1964L24.4677 38.8827ZM25.2463 34.3896L24.4631 33.768L24.4604 33.7713L25.2463 34.3896ZM26.9813 33.1396L27.318 34.0812L27.3269 34.078L26.9813 33.1396ZM31.4192 33.8845L30.7852 34.6578L30.7894 34.6612L31.4192 33.8845ZM32.6317 35.6252L31.6853 35.948L31.6876 35.955L31.6901 35.9619L32.6317 35.6252ZM31.8787 40.1105L32.6679 40.7247L32.6709 40.7208L31.8787 40.1105ZM30.1398 41.3842L30.4854 42.3226L30.4891 42.3212L30.1398 41.3842ZM30.3884 38.785L29.5338 38.2658L29.5338 38.2658L30.3884 38.785ZM30.8302 36.7665L29.8347 36.8614L29.8359 36.8738L29.8374 36.8862L30.8302 36.7665ZM30.577 35.8955L29.6758 36.3289L29.6804 36.3384L29.6852 36.3478L30.577 35.8955ZM29.9918 35.187L30.6007 34.3937L30.6007 34.3937L29.9918 35.187ZM27.6255 34.9294L28.0616 35.8293L28.0686 35.8259L28.0755 35.8224L27.6255 34.9294ZM26.7346 35.727L25.8894 35.1926L25.8846 35.2002L25.88 35.2078L26.7346 35.727ZM26.9148 39.1663L26.205 39.8707L26.2129 39.8785L26.9148 39.1663ZM27.7994 41.5449L27.9676 40.5591C27.2455 40.4359 26.6983 40.1901 26.2844 39.8545L25.6545 40.6312L25.0247 41.4079C25.7514 41.9972 26.6342 42.3606 27.6313 42.5306L27.7994 41.5449ZM25.6545 40.6312L26.2959 39.8639C25.8782 39.5148 25.5891 39.0893 25.4172 38.569L24.4677 38.8827L23.5181 39.1964C23.8065 40.0693 24.3086 40.8095 25.0132 41.3984L25.6545 40.6312ZM24.4677 38.8827L25.4188 38.5738C25.2472 38.0456 25.2052 37.4376 25.3262 36.7284L24.3404 36.5602L23.3547 36.392C23.1878 37.3704 23.2306 38.3108 23.5166 39.1915L24.4677 38.8827ZM24.3404 36.5602L25.3262 36.7284C25.4515 35.9936 25.6976 35.4333 26.0323 35.0079L25.2463 34.3896L24.4604 33.7713C23.8832 34.5051 23.5253 35.3919 23.3547 36.392L24.3404 36.5602ZM25.2463 34.3896L26.0296 35.0113C26.3811 34.5685 26.8059 34.2643 27.318 34.0812L26.9813 33.1396L26.6446 32.198C25.7738 32.5094 25.042 33.0386 24.4631 33.768L25.2463 34.3896ZM26.9813 33.1396L27.3269 34.078C27.8279 33.8934 28.4231 33.84 29.1416 33.9626L29.3098 32.9769L29.478 31.9911C28.4774 31.8204 27.5201 31.8755 26.6357 32.2012L26.9813 33.1396ZM29.3098 32.9769L29.1416 33.9626C29.8448 34.0826 30.3789 34.3248 30.7852 34.6578L31.4192 33.8845L32.0532 33.1112C31.3345 32.522 30.4624 32.159 29.478 31.9911L29.3098 32.9769ZM31.4192 33.8845L30.7894 34.6612C31.2129 35.0047 31.5077 35.4273 31.6853 35.948L32.6317 35.6252L33.5782 35.3025C33.2798 34.4272 32.7662 33.6894 32.0491 33.1078L31.4192 33.8845ZM32.6317 35.6252L31.6901 35.9619C31.8696 36.4638 31.9201 37.0615 31.7969 37.7836L32.7827 37.9517L33.7684 38.1199C33.9385 37.1228 33.8884 36.1695 33.5734 35.2885L32.6317 35.6252ZM32.7827 37.9517L31.7969 37.7836C31.6765 38.489 31.4325 39.0512 31.0866 39.5002L31.8787 40.1105L32.6709 40.7208C33.2423 39.979 33.6009 39.1021 33.7684 38.1199L32.7827 37.9517ZM31.8787 40.1105L31.0896 39.4962C30.747 39.9364 30.32 40.2498 29.7905 40.4472L30.1398 41.3842L30.4891 42.3212C31.3636 41.9952 32.0959 41.4594 32.6678 40.7247L31.8787 40.1105ZM30.1398 41.3842L29.7942 40.4458C29.2945 40.6298 28.6958 40.6834 27.9676 40.5591L27.7994 41.5449L27.6313 42.5306C28.638 42.7024 29.5995 42.6488 30.4854 42.3226L30.1398 41.3842ZM28.1437 39.7411L27.9755 40.7268C28.6587 40.8434 29.3431 40.799 29.9575 40.4893L29.5074 39.5964L29.0573 38.7034C28.9259 38.7696 28.7011 38.8217 28.3118 38.7553L28.1437 39.7411ZM29.5074 39.5964L29.9575 40.4893C30.4957 40.2181 30.9303 39.819 31.2431 39.3041L30.3884 38.785L29.5338 38.2658C29.4177 38.4569 29.265 38.5987 29.0573 38.7034L29.5074 39.5964ZM30.3884 38.785L31.2431 39.3041C31.5208 38.847 31.7076 38.3548 31.7967 37.8322L30.8109 37.6641L29.8252 37.4959C29.7798 37.7619 29.6849 38.017 29.5338 38.2658L30.3884 38.785ZM30.8109 37.6641L31.7967 37.8322C31.8634 37.4413 31.871 37.045 31.823 36.6468L30.8302 36.7665L29.8374 36.8862C29.8633 37.1012 29.858 37.3033 29.8252 37.4959L30.8109 37.6641ZM30.8302 36.7665L31.8257 36.6717C31.7846 36.2409 31.6648 35.8294 31.4689 35.4432L30.577 35.8955L29.6852 36.3478C29.7686 36.5124 29.8175 36.6816 29.8347 36.8614L30.8302 36.7665ZM30.577 35.8955L31.4782 35.4622C31.2738 35.037 30.9743 34.6805 30.6007 34.3937L29.9918 35.187L29.383 35.9803C29.526 36.0901 29.6167 36.206 29.6758 36.3289L30.577 35.8955ZM29.9918 35.187L30.6007 34.3937C30.1802 34.071 29.677 33.8876 29.1456 33.7969L28.9774 34.7827L28.8092 35.7684C29.1137 35.8204 29.2868 35.9065 29.383 35.9803L29.9918 35.187ZM28.9774 34.7827L29.1456 33.7969C28.4665 33.6811 27.7872 33.7281 27.1754 34.0364L27.6255 34.9294L28.0755 35.8224C28.2096 35.7548 28.4316 35.704 28.8092 35.7684L28.9774 34.7827ZM27.6255 34.9294L27.1893 34.0295C26.6487 34.2916 26.2105 34.6846 25.8894 35.1926L26.7346 35.727L27.5799 36.2613C27.7034 36.0661 27.8591 35.9274 28.0616 35.8293L27.6255 34.9294ZM26.7346 35.727L25.88 35.2078C25.5984 35.6714 25.4122 36.1764 25.3203 36.7152L26.3061 36.8834L27.2918 37.0515C27.3425 36.7544 27.4421 36.4885 27.5893 36.2461L26.7346 35.727ZM26.3061 36.8834L25.3203 36.7152C25.2272 37.2607 25.2409 37.8058 25.3642 38.3424L26.3388 38.1185L27.3135 37.8946C27.2504 37.6203 27.2423 37.3419 27.2918 37.0515L26.3061 36.8834ZM26.3388 38.1185L25.3642 38.3424C25.4988 38.9281 25.7818 39.4442 26.205 39.8707L26.9148 39.1663L27.6246 38.4619C27.4662 38.3022 27.3652 38.1197 27.3135 37.8946L26.3388 38.1185ZM26.9148 39.1663L26.2129 39.8785C26.6912 40.3498 27.3057 40.6126 27.9755 40.7268L28.1437 39.7411L28.3118 38.7553C27.9407 38.692 27.736 38.5715 27.6168 38.454L26.9148 39.1663ZM33.2847 42.3833L32.2989 42.2151L32.1308 43.2009L33.1165 43.369L33.2847 42.3833ZM34.7134 34.0083L34.8816 33.0225L33.8958 32.8543L33.7277 33.8401L34.7134 34.0083ZM36.5706 34.3251L37.4723 33.8926L37.2486 33.4263L36.7388 33.3393L36.5706 34.3251ZM39.3812 40.1852L38.4795 40.6176L39.8384 43.4511L40.3669 40.3534L39.3812 40.1852ZM40.2731 34.9567L40.4413 33.971L39.4555 33.8028L39.2874 34.7886L40.2731 34.9567ZM42.2013 35.2857L43.187 35.4538L43.3552 34.4681L42.3694 34.2999L42.2013 35.2857ZM40.7725 43.6607L40.6043 44.6464L41.5901 44.8146L41.7583 43.8288L40.7725 43.6607ZM38.9627 43.3519L38.0666 43.7959L38.2927 44.2521L38.7945 44.3377L38.9627 43.3519ZM36.0829 37.5409L36.9789 37.0968L35.614 34.3427L35.0971 37.3727L36.0829 37.5409ZM35.201 42.7102L35.0328 43.6959L36.0186 43.8641L36.1868 42.8783L35.201 42.7102ZM33.2847 42.3833L34.2704 42.5514L35.6992 34.1764L34.7134 34.0083L33.7277 33.8401L32.2989 42.2151L33.2847 42.3833ZM34.7134 34.0083L34.5453 34.994L36.4024 35.3108L36.5706 34.3251L36.7388 33.3393L34.8816 33.0225L34.7134 34.0083ZM36.5706 34.3251L35.6689 34.7575L38.4795 40.6176L39.3812 40.1852L40.2828 39.7527L37.4723 33.8926L36.5706 34.3251ZM39.3812 40.1852L40.3669 40.3534L41.2589 35.1249L40.2731 34.9567L39.2874 34.7886L38.3954 40.017L39.3812 40.1852ZM40.2731 34.9567L40.1049 35.9425L42.0331 36.2714L42.2013 35.2857L42.3694 34.2999L40.4413 33.971L40.2731 34.9567ZM42.2013 35.2857L41.2155 35.1175L39.7868 43.4925L40.7725 43.6607L41.7583 43.8288L43.187 35.4538L42.2013 35.2857ZM40.7725 43.6607L40.9407 42.6749L39.1308 42.3661L38.9627 43.3519L38.7945 44.3377L40.6043 44.6464L40.7725 43.6607ZM38.9627 43.3519L39.8587 42.9079L36.9789 37.0968L36.0829 37.5409L35.1869 37.9849L38.0666 43.7959L38.9627 43.3519ZM36.0829 37.5409L35.0971 37.3727L34.2152 42.542L35.201 42.7102L36.1868 42.8783L37.0686 37.709L36.0829 37.5409ZM35.201 42.7102L35.3692 41.7244L33.4529 41.3975L33.2847 42.3833L33.1165 43.369L35.0328 43.6959L35.201 42.7102Z" fill="white" mask="url(#path-11-outside-3_108_18)"/>
<path d="M41.1146 70.4345C40.499 69.8801 40.4494 68.9316 41.0038 68.3161L46.6921 62L48.9213 64.0076L43.233 70.3237C42.6786 70.9393 41.7302 70.9889 41.1146 70.4345V70.4345Z" fill="#000756"/>
<path d="M56 52.3865C58.0324 54.066 58.7333 55.1955 58.3575 57.9039" stroke="#000756"/>
</g>
<defs>
<clipPath id="clip0_108_18">
<rect width="100" height="100" rx="50" fill="white"/>
</clipPath>
</defs>
</svg>
