<svg width="110" height="40" viewBox="0 0 110 40" fill="none" xmlns="http://www.w3.org/2000/svg">
<g clip-path="url(#clip0_108_66)">
<rect width="110" height="40" rx="15" fill="white"/>
<path d="M9.78559 31.5864L9.63087 13.2051L22.4744 13.097L22.4994 16.0609L12.9057 16.1416L12.9519 21.6274L21.1676 21.5583L21.1925 24.5222L12.9768 24.5913L13.0355 31.5591L9.78559 31.5864ZM25.4257 31.4548L25.2709 13.0734L28.5208 13.0461L28.6755 31.4274L25.4257 31.4548ZM32.7887 31.3928L32.634 13.0115L36.1178 12.9821L45.0962 26.297L44.9835 12.9075L48.2334 12.8802L48.3881 31.2615L44.9823 31.2902L35.9265 18.0539L36.0386 31.3655L32.7887 31.3928ZM52.4911 31.227L52.3364 12.8456L59.1222 12.7885C61.0461 12.7723 62.6785 13.1313 64.0194 13.8653C65.3601 14.5821 66.383 15.6308 67.088 17.0116C67.8101 18.3749 68.1793 20.0185 68.1955 21.9425C68.2114 23.8317 67.8785 25.4639 67.1967 26.839C66.5322 28.214 65.5359 29.2798 64.2075 30.0363C62.879 30.7755 61.2441 31.1533 59.3029 31.1696L52.4911 31.227ZM55.716 28.2357L59.1999 28.2064C60.5692 28.1949 61.6676 27.9256 62.4952 27.3986C63.34 26.8542 63.9492 26.121 64.3228 25.1992C64.7136 24.2599 64.9038 23.1749 64.8934 21.9443C64.8834 20.7483 64.6837 19.6839 64.2945 18.7512C63.9053 17.8184 63.2838 17.087 62.43 16.5568C61.5933 16.0092 60.4904 15.7411 59.1211 15.7526L55.6112 15.7822L55.716 28.2357ZM71.3811 31.068L71.2263 12.6866L84.1999 12.5774L84.2248 15.5413L74.5012 15.6232L74.5419 20.459L82.9916 20.3879L83.0161 23.2998L74.5664 23.3709L74.606 28.0767L84.3297 27.9949L84.3546 30.9588L71.3811 31.068ZM87.4528 30.9327L87.298 12.5513L94.5518 12.4903C95.4878 12.4824 96.3725 12.5703 97.2061 12.754C98.0395 12.9203 98.7788 13.2261 99.4239 13.6713C100.069 14.0992 100.577 14.693 100.947 15.4526C101.317 16.2121 101.507 17.1552 101.517 18.2819C101.525 19.2178 101.367 20.0425 101.044 20.7559C100.72 21.4694 100.266 22.0712 99.6807 22.5615C99.1128 23.0516 98.4313 23.43 97.6362 23.6967L101.726 30.8126L98.0864 30.8432L94.4167 24.2438L90.6468 24.2756L90.7026 30.9053L87.4528 30.9327ZM90.6226 21.3897L94.1844 21.3597C94.7737 21.3547 95.3107 21.3069 95.7953 21.2161C96.297 21.1079 96.729 20.9396 97.0911 20.7112C97.4705 20.4827 97.7539 20.1769 97.9414 19.794C98.146 19.3936 98.2545 18.89 98.2667 18.2832C98.2605 17.5553 98.0997 16.9846 97.7843 16.5712C97.4861 16.1577 97.0503 15.8667 96.4769 15.6982C95.9207 15.5295 95.2527 15.4485 94.4727 15.4551L90.5729 15.4879L90.6226 21.3897Z" fill="#B0FF12"/>
<path d="M14.1139 11.2307C13.2419 11.238 12.4844 11.0644 11.8414 10.7098C11.2064 10.3471 10.7141 9.84326 10.3647 9.19818C10.0152 8.5451 9.8368 7.79057 9.82959 6.9346C9.82218 6.05463 9.99175 5.28918 10.3383 4.63824C10.6927 3.97923 11.1885 3.46704 11.8254 3.10167C12.4623 2.72829 13.2167 2.53794 14.0887 2.5306C14.9446 2.52339 15.6901 2.69712 16.3251 3.05179C16.9681 3.40639 17.4684 3.9062 17.8258 4.55121C18.1912 5.18816 18.3775 5.94262 18.3849 6.81459C18.3921 7.67056 18.2225 8.43201 17.8761 9.09895C17.5296 9.75789 17.034 10.2781 16.3892 10.6595C15.7523 11.0329 14.9939 11.2233 14.1139 11.2307ZM14.1344 9.39445C14.6784 9.38987 15.1174 9.26218 15.4513 9.01136C15.7852 8.76054 16.0265 8.44249 16.1753 8.05723C16.324 7.67196 16.3967 7.27934 16.3934 6.87935C16.3909 6.58336 16.3444 6.28774 16.2539 5.99249C16.1714 5.69718 16.0371 5.4263 15.851 5.17986C15.673 4.93335 15.4393 4.73531 15.15 4.58574C14.8607 4.43616 14.5041 4.36316 14.0801 4.36673C13.5441 4.37124 13.1092 4.49891 12.7753 4.74973C12.4413 4.99255 12.196 5.30662 12.0392 5.69196C11.8904 6.07722 11.8179 6.48185 11.8214 6.90583C11.825 7.32982 11.9084 7.73313 12.0716 8.11577C12.2348 8.49841 12.4855 8.80831 12.8235 9.04548C13.1695 9.28257 13.6065 9.3989 14.1344 9.39445ZM19.145 11.0923L19.1322 9.56839L23.3485 4.36072L19.2087 4.39557L19.1935 2.59563L25.8893 2.53927L25.9021 4.06322L21.6859 9.28289L25.8738 9.24764L25.8888 11.0356L19.145 11.0923ZM30.9297 11.0891C30.0577 11.0965 29.3003 10.9229 28.6572 10.5683C28.0222 10.2056 27.5299 9.70172 27.1805 9.05663C26.831 8.40355 26.6526 7.64903 26.6454 6.79306C26.638 5.91309 26.8076 5.14763 27.1541 4.49669C27.5086 3.83769 28.0043 3.3255 28.6412 2.96012C29.2781 2.58675 30.0325 2.39639 30.9045 2.38905C31.7605 2.38185 32.5059 2.55558 33.141 2.91025C33.784 3.26485 34.2842 3.76465 34.6416 4.40967C35.007 5.04662 35.1934 5.80107 35.2007 6.67304C35.2079 7.52901 35.0383 8.29047 34.6919 8.95741C34.3454 9.61635 33.8498 10.1365 33.205 10.518C32.5681 10.8914 31.8097 11.0817 30.9297 11.0891ZM30.9503 9.25291C31.4942 9.24833 31.9332 9.12063 32.2671 8.86981C32.601 8.61899 32.8423 8.30095 32.9911 7.91569C33.1398 7.53042 33.2125 7.13779 33.2092 6.73781C33.2067 6.44182 33.1602 6.1462 33.0697 5.85095C32.9872 5.55563 32.8529 5.28475 32.6668 5.03831C32.4888 4.7918 32.2551 4.59376 31.9658 4.44419C31.6766 4.29462 31.3199 4.22162 30.8959 4.22519C30.36 4.2297 29.925 4.35737 29.5911 4.60819C29.2571 4.85101 29.0118 5.16508 28.855 5.55041C28.7063 5.93568 28.6337 6.34031 28.6372 6.76429C28.6408 7.18828 28.7242 7.59159 28.8874 7.97423C29.0506 8.35687 29.3013 8.66677 29.6393 8.90393C29.9853 9.14103 30.4223 9.25735 30.9503 9.25291ZM36.4768 10.9465L36.4053 2.45075L38.2893 2.4349L42.0898 7.70709L42.0451 2.40328L44.0011 2.38682L44.0726 10.8825L42.2366 10.898L38.3766 5.68628L38.4208 10.9301L36.4768 10.9465Z" fill="#129CFF"/>
<path d="M49.1339 37.1759C48.4301 36.7388 48.2139 35.814 48.651 35.1103L53.1355 27.8895L55.684 29.4723L51.1995 36.693C50.7624 37.3968 49.8376 37.613 49.1339 37.1759V37.1759Z" fill="#B0FF12"/>
<path d="M60.6008 16.7844C62.8977 18.079 63.7869 19.067 63.8949 21.7993" stroke="#B0FF12"/>
</g>
<defs>
<clipPath id="clip0_108_66">
<rect width="110" height="40" rx="15" fill="white"/>
</clipPath>
</defs>
</svg>
